# Blender 4.4.1
# www.blender.org
mtllib pingpong_net.mtl
o Cube.001
v 0.000000 0.758590 0.718554
v -0.011876 0.786053 0.801290
v 0.000000 0.794782 0.678440
v -0.016999 0.758590 0.718554
v -0.016999 0.794782 0.718554
v -0.016498 0.794782 0.678440
v -0.011351 0.754718 0.769579
v 0.000000 0.754718 0.769579
v 0.000000 0.800411 0.678041
v 0.000000 0.800411 0.721646
v -0.011351 0.800411 0.721646
v -0.011898 0.800411 0.678041
v 0.000000 0.722523 0.703993
v 0.000000 0.820651 0.801290
v -0.011876 0.820651 0.801290
v -0.011876 0.797756 0.838949
v -0.016999 0.722523 0.703993
v 0.000000 0.820651 0.848612
v -0.003441 0.939592 0.848612
v -0.011876 0.803410 0.859358
v 0.000000 0.803410 0.859358
v 0.000000 0.820651 0.859358
v -0.006344 0.939592 0.851514
v 0.000000 0.957597 0.848612
v 0.000000 0.939592 0.859358
v 0.000000 0.957597 0.859358
v 0.000000 0.939592 0.848612
v -0.011351 0.725929 0.745809
v 0.000000 0.725929 0.745809
v -0.011327 0.754297 0.656441
v 0.000000 0.754297 0.656441
v -0.011327 0.742298 0.651596
v 0.000000 0.742298 0.651596
v -0.008970 0.730986 0.794433
v 0.000000 0.730986 0.794433
v -0.008970 0.714276 0.780636
v 0.000000 0.714276 0.780636
v -0.005638 0.709817 0.830840
v 0.000000 0.709817 0.830840
v -0.005638 0.702694 0.829363
v 0.000000 0.702694 0.829363
v -0.004837 0.820651 0.851514
v -0.002771 0.820651 0.848612
v -0.005264 0.820651 0.845742
v -0.005628 0.818079 0.847526
v -0.001935 0.820651 0.859358
v -0.004837 0.820651 0.856456
v -0.005934 0.817964 0.859358
v -0.001935 0.957597 0.848612
v -0.004837 0.957597 0.851514
v -0.004837 0.957597 0.856456
v -0.001935 0.957597 0.859358
v -0.003441 0.939592 0.859358
v -0.006344 0.939592 0.856456
v -0.003441 0.939592 0.830424
v 0.000000 0.939592 0.830424
v 0.000000 0.824242 0.830424
v -0.002771 0.824242 0.830424
v -0.003441 0.926896 0.859358
v -0.006344 0.926896 0.851514
v 0.000000 0.926896 0.859358
v -0.003441 0.926896 0.848612
v -0.006344 0.926896 0.856456
v 0.000000 0.939592 -0.044987
v -0.003441 0.927280 0.830424
v -0.001935 0.925450 0.859358
v -0.002771 0.925450 0.848612
v -0.004837 0.925450 0.856456
v -0.003441 0.939592 -0.044987
v -0.002771 0.925877 0.830424
v -0.004837 0.925450 0.851514
v 0.000000 0.925450 0.859358
v -0.004837 0.941331 0.856456
v 0.000000 0.941331 0.848612
v -0.001935 0.941331 0.848612
v 0.000000 0.941331 0.859358
v -0.004837 0.941331 0.851514
v -0.001935 0.941331 0.859358
v -0.003441 0.939592 0.828071
v 0.000000 0.939592 0.828071
v 0.000000 0.824242 0.828071
v -0.001257 0.925877 0.828071
v -0.001257 0.824242 0.828071
v -0.003441 0.927280 0.828071
v 0.000000 0.925877 -0.044987
v 0.000000 0.824242 -0.044987
v -0.001257 0.925877 -0.044987
v -0.001257 0.824242 -0.044987
v 0.000000 0.927280 -0.044987
v -0.003441 0.927280 -0.044987
v 0.011876 0.786053 0.801290
v 0.016999 0.758590 0.718554
v 0.016999 0.794782 0.718554
v 0.016498 0.794782 0.678440
v 0.011351 0.754718 0.769579
v 0.011351 0.800411 0.721646
v 0.011898 0.800411 0.678041
v 0.011876 0.820651 0.801290
v 0.011876 0.797756 0.838949
v 0.016999 0.722523 0.703993
v 0.003441 0.939592 0.848612
v 0.011876 0.803410 0.859358
v 0.006344 0.939592 0.851514
v 0.011351 0.725929 0.745809
v 0.011327 0.754297 0.656441
v 0.011327 0.742298 0.651596
v 0.008970 0.730986 0.794433
v 0.008970 0.714276 0.780636
v 0.005638 0.709817 0.830840
v 0.005638 0.702694 0.829363
v 0.004837 0.820651 0.851514
v 0.002771 0.820651 0.848612
v 0.005264 0.820651 0.845742
v 0.005628 0.818079 0.847526
v 0.001935 0.820651 0.859358
v 0.004837 0.820651 0.856456
v 0.005934 0.817964 0.859358
v 0.001935 0.957597 0.848612
v 0.004837 0.957597 0.851514
v 0.004837 0.957597 0.856456
v 0.001935 0.957597 0.859358
v 0.003441 0.939592 0.859358
v 0.006344 0.939592 0.856456
v 0.003441 0.939592 0.830424
v 0.002771 0.824242 0.830424
v 0.003441 0.926896 0.859358
v 0.006344 0.926896 0.851514
v 0.003441 0.926896 0.848612
v 0.006344 0.926896 0.856456
v 0.003441 0.927280 0.830424
v 0.001935 0.925450 0.859358
v 0.002771 0.925450 0.848612
v 0.004837 0.925450 0.856456
v 0.003441 0.939592 -0.044987
v 0.002771 0.925877 0.830424
v 0.004837 0.925450 0.851514
v 0.004837 0.941331 0.856456
v 0.001935 0.941331 0.848612
v 0.004837 0.941331 0.851514
v 0.001935 0.941331 0.859358
v 0.003441 0.939592 0.828071
v 0.001257 0.925877 0.828071
v 0.001257 0.824242 0.828071
v 0.003441 0.927280 0.828071
v 0.001257 0.925877 -0.044987
v 0.001257 0.824242 -0.044987
v 0.003441 0.927280 -0.044987
v 0.000000 0.758590 -0.808528
v -0.011876 0.786053 -0.891264
v 0.000000 0.794782 -0.768414
v -0.016999 0.758590 -0.808528
v -0.016999 0.794782 -0.808528
v -0.016498 0.794782 -0.768414
v -0.011351 0.754718 -0.859553
v 0.000000 0.754718 -0.859553
v 0.000000 0.800411 -0.768015
v 0.000000 0.800411 -0.811620
v -0.011351 0.800411 -0.811620
v -0.011898 0.800411 -0.768015
v 0.000000 0.722523 -0.793967
v 0.000000 0.820651 -0.891264
v -0.011876 0.820651 -0.891264
v -0.011876 0.797756 -0.928923
v -0.016999 0.722523 -0.793967
v 0.000000 0.820651 -0.938586
v -0.003441 0.939592 -0.938586
v -0.011876 0.803410 -0.949332
v 0.000000 0.803410 -0.949332
v 0.000000 0.820651 -0.949332
v -0.006344 0.939592 -0.941489
v 0.000000 0.957597 -0.938586
v 0.000000 0.939592 -0.949332
v 0.000000 0.957597 -0.949332
v 0.000000 0.939592 -0.938586
v -0.011351 0.725929 -0.835783
v 0.000000 0.725929 -0.835783
v -0.011327 0.754297 -0.746415
v 0.000000 0.754297 -0.746415
v -0.011327 0.742298 -0.741570
v 0.000000 0.742298 -0.741570
v -0.008970 0.730986 -0.884407
v 0.000000 0.730986 -0.884407
v -0.008970 0.714276 -0.870610
v 0.000000 0.714276 -0.870610
v -0.005638 0.709817 -0.920814
v 0.000000 0.709817 -0.920814
v -0.005638 0.702694 -0.919337
v 0.000000 0.702694 -0.919337
v -0.004837 0.820651 -0.941489
v -0.002771 0.820651 -0.938586
v -0.005264 0.820651 -0.935716
v -0.005628 0.818079 -0.937500
v -0.001935 0.820651 -0.949332
v -0.004837 0.820651 -0.946430
v -0.005934 0.817964 -0.949332
v -0.001935 0.957597 -0.938586
v -0.004837 0.957597 -0.941489
v -0.004837 0.957597 -0.946430
v -0.001935 0.957597 -0.949332
v -0.003441 0.939592 -0.949332
v -0.006344 0.939592 -0.946430
v -0.003441 0.939592 -0.920399
v 0.000000 0.939592 -0.920399
v 0.000000 0.824242 -0.920399
v -0.002771 0.824242 -0.920399
v -0.003441 0.926896 -0.949332
v -0.006344 0.926896 -0.941489
v 0.000000 0.926896 -0.949332
v -0.003441 0.926896 -0.938586
v -0.006344 0.926896 -0.946430
v -0.003441 0.927280 -0.920399
v -0.001935 0.925450 -0.949332
v -0.002771 0.925450 -0.938586
v -0.004837 0.925450 -0.946430
v -0.002771 0.925877 -0.920399
v -0.004837 0.925450 -0.941489
v 0.000000 0.925450 -0.949332
v -0.004837 0.941331 -0.946430
v 0.000000 0.941331 -0.938586
v -0.001935 0.941331 -0.938586
v 0.000000 0.941331 -0.949332
v -0.004837 0.941331 -0.941489
v -0.001935 0.941331 -0.949332
v -0.003441 0.939592 -0.918045
v 0.000000 0.939592 -0.918045
v 0.000000 0.824242 -0.918045
v -0.001257 0.925877 -0.918045
v -0.001257 0.824242 -0.918045
v -0.003441 0.927280 -0.918045
v 0.011876 0.786053 -0.891264
v 0.016999 0.758590 -0.808528
v 0.016999 0.794782 -0.808528
v 0.016498 0.794782 -0.768414
v 0.011351 0.754718 -0.859553
v 0.011351 0.800411 -0.811620
v 0.011898 0.800411 -0.768015
v 0.011876 0.820651 -0.891264
v 0.011876 0.797756 -0.928923
v 0.016999 0.722523 -0.793967
v 0.003441 0.939592 -0.938586
v 0.011876 0.803410 -0.949332
v 0.006344 0.939592 -0.941489
v 0.011351 0.725929 -0.835783
v 0.011327 0.754297 -0.746415
v 0.011327 0.742298 -0.741570
v 0.008970 0.730986 -0.884407
v 0.008970 0.714276 -0.870610
v 0.005638 0.709817 -0.920814
v 0.005638 0.702694 -0.919337
v 0.004837 0.820651 -0.941489
v 0.002771 0.820651 -0.938586
v 0.005264 0.820651 -0.935716
v 0.005628 0.818079 -0.937500
v 0.001935 0.820651 -0.949332
v 0.004837 0.820651 -0.946430
v 0.005934 0.817964 -0.949332
v 0.001935 0.957597 -0.938586
v 0.004837 0.957597 -0.941489
v 0.004837 0.957597 -0.946430
v 0.001935 0.957597 -0.949332
v 0.003441 0.939592 -0.949332
v 0.006344 0.939592 -0.946430
v 0.003441 0.939592 -0.920399
v 0.002771 0.824242 -0.920399
v 0.003441 0.926896 -0.949332
v 0.006344 0.926896 -0.941489
v 0.003441 0.926896 -0.938586
v 0.006344 0.926896 -0.946430
v 0.003441 0.927280 -0.920399
v 0.001935 0.925450 -0.949332
v 0.002771 0.925450 -0.938586
v 0.004837 0.925450 -0.946430
v 0.002771 0.925877 -0.920399
v 0.004837 0.925450 -0.941489
v 0.004837 0.941331 -0.946430
v 0.001935 0.941331 -0.938586
v 0.004837 0.941331 -0.941489
v 0.001935 0.941331 -0.949332
v 0.003441 0.939592 -0.918045
v 0.001257 0.925877 -0.918045
v 0.001257 0.824242 -0.918045
v 0.003441 0.927280 -0.918045
vn -0.0000 0.9976 -0.0690
vn -0.9730 0.1167 0.1993
vn -0.9902 -0.0710 0.1201
vn -0.0000 1.0000 -0.0000
vn -0.0000 -0.0706 -0.9975
vn -0.7396 0.6731 0.0004
vn -0.9369 0.3438 -0.0640
vn -1.0000 -0.0044 -0.0074
vn -0.0000 0.9692 -0.2463
vn -1.0000 -0.0000 -0.0000
vn -0.0000 -0.9483 -0.3173
vn -0.9917 0.1098 0.0667
vn -0.0000 -0.9967 0.0812
vn -0.0000 -0.0000 1.0000
vn -0.0000 0.3744 -0.9273
vn -0.0000 -0.9356 -0.3531
vn -0.9949 0.0377 -0.0935
vn -0.0000 -0.9729 -0.2313
vn -0.9976 -0.0441 0.0534
vn -0.0000 0.7233 0.6906
vn -0.0000 -0.2029 0.9792
vn -0.9972 -0.0401 0.0626
vn -0.0000 0.8645 0.5027
vn -0.6788 0.7326 0.0502
vn -0.4871 0.7249 0.4870
vn -0.7071 -0.0000 -0.7071
vn -0.7071 -0.0000 0.7071
vn -0.0000 -0.0000 -1.0000
vn -0.0000 -0.9811 -0.1937
vn -0.9047 -0.4259 -0.0095
vn -0.6837 -0.6958 -0.2199
vn -0.6926 -0.7214 -0.0000
vn -0.6595 -0.4964 -0.5645
vn -0.5693 -0.5930 0.5693
vn -0.8146 -0.0000 -0.5800
vn -0.0000 -1.0000 -0.0000
vn -0.6030 0.5224 0.6030
vn -0.6030 0.5224 -0.6030
vn -0.7558 0.6548 -0.0000
vn -0.5403 -0.8415 -0.0000
vn -0.8410 -0.0000 -0.5411
vn 0.9730 0.1167 0.1993
vn 0.9902 -0.0710 0.1201
vn 0.7396 0.6731 0.0004
vn 0.9369 0.3438 -0.0640
vn 1.0000 -0.0044 -0.0074
vn 1.0000 -0.0000 -0.0000
vn 0.9917 0.1098 0.0667
vn 0.9949 0.0377 -0.0935
vn 0.9976 -0.0441 0.0534
vn 0.9972 -0.0401 0.0626
vn 0.6788 0.7326 0.0502
vn 0.4871 0.7249 0.4870
vn 0.7071 -0.0000 -0.7071
vn 0.7071 -0.0000 0.7071
vn 0.9047 -0.4259 -0.0095
vn 0.6837 -0.6958 -0.2199
vn 0.6926 -0.7214 -0.0000
vn 0.6595 -0.4963 -0.5645
vn 0.5693 -0.5930 0.5693
vn 0.8146 -0.0000 -0.5800
vn 0.6030 0.5224 0.6030
vn 0.6030 0.5224 -0.6030
vn 0.7558 0.6548 -0.0000
vn 0.5403 -0.8415 -0.0000
vn 0.8410 -0.0000 -0.5411
vn -0.0000 0.9976 0.0690
vn -0.9730 0.1167 -0.1993
vn -0.9902 -0.0710 -0.1201
vn -0.0000 -0.0706 0.9975
vn -0.7396 0.6731 -0.0004
vn -0.9369 0.3438 0.0640
vn -1.0000 -0.0044 0.0074
vn -0.0000 0.9692 0.2463
vn -0.0000 -0.9483 0.3173
vn -0.9917 0.1098 -0.0667
vn -0.0000 -0.9967 -0.0812
vn -0.0000 0.3744 0.9273
vn -0.0000 -0.9356 0.3531
vn -0.9949 0.0377 0.0935
vn -0.0000 -0.9729 0.2313
vn -0.9976 -0.0441 -0.0534
vn -0.0000 0.7233 -0.6906
vn -0.0000 -0.2029 -0.9792
vn -0.9972 -0.0401 -0.0626
vn -0.0000 0.8645 -0.5027
vn -0.6788 0.7326 -0.0502
vn -0.4871 0.7249 -0.4870
vn -0.0000 -0.9811 0.1937
vn -0.9047 -0.4259 0.0095
vn -0.6837 -0.6958 0.2199
vn -0.6595 -0.4963 0.5645
vn -0.5693 -0.5930 -0.5693
vn -0.8146 -0.0000 0.5800
vn -0.8410 -0.0000 0.5411
vn 0.9730 0.1167 -0.1993
vn 0.9902 -0.0710 -0.1201
vn 0.7396 0.6731 -0.0004
vn 0.9369 0.3438 0.0640
vn 1.0000 -0.0044 0.0074
vn 0.9917 0.1098 -0.0667
vn 0.9949 0.0377 0.0935
vn 0.9976 -0.0441 -0.0534
vn 0.9972 -0.0401 -0.0626
vn 0.6788 0.7326 -0.0502
vn 0.4871 0.7249 -0.4870
vn 0.9047 -0.4259 0.0095
vn 0.6837 -0.6958 0.2199
vn 0.6595 -0.4964 0.5645
vn 0.5693 -0.5930 -0.5693
vn 0.8146 -0.0000 0.5800
vn 0.8410 -0.0000 0.5411
vt 0.405701 0.917543
vt 0.107064 0.917543
vt 0.107064 0.618907
vt 0.405701 0.618907
vt 0.183914 0.656785
vt 0.437310 0.656785
vt 0.437310 0.910181
vt 0.183914 0.910181
vt 0.256382 0.618907
vt 0.127069 0.693566
vt 0.127069 0.842884
vt 0.256382 0.917543
vt 0.385696 0.842884
vt 0.385696 0.693566
vt 0.114373 0.722084
vt 0.168615 0.889026
vt 0.344150 0.889026
vt 0.398392 0.722084
vt 0.041573 0.434210
vt 0.042804 0.528503
vt 0.964486 0.528503
vt 0.963256 0.434210
s 0
usemtl PingPong
f 4/1/1 1/2/1 31/3/1 30/4/1
f 5/1/2 4/2/2 7/3/2 11/4/2
f 7/1/3 4/2/3 17/3/3 28/4/3
f 9/5/4 12/6/4 11/7/4 10/8/4
f 3/1/5 6/2/5 12/3/5 9/4/5
f 6/5/6 5/6/6 11/7/6 12/8/6
f 42/9/7 45/10/7 16/11/7 20/12/7 48/13/7 47/14/7
f 11/1/8 7/2/8 2/3/8 15/4/8
f 10/1/9 11/2/9 15/3/9 14/4/9
f 14/9/4 15/15/4 44/16/4 43/17/4 18/18/4
f 77/1/10 73/2/10 51/3/10 50/4/10
f 28/1/11 29/2/11 37/3/11 36/4/11
f 24/9/4 49/10/4 50/11/4 51/12/4 52/13/4 26/14/4
f 15/9/12 2/15/12 16/16/12 45/17/12 44/18/12
f 17/1/13 13/2/13 29/3/13 28/4/13
f 19/1/4 27/2/4 56/3/4 55/4/4
f 78/1/14 76/2/14 26/3/14 52/4/14
f 21/9/14 22/15/14 46/16/14 48/17/14 20/18/14
f 30/1/15 31/2/15 33/3/15 32/4/15
f 13/1/16 17/2/16 32/3/16 33/4/16
f 17/1/17 4/2/17 30/3/17 32/4/17
f 36/1/18 37/2/18 41/3/18 40/4/18
f 7/1/19 28/2/19 36/3/19 34/4/19
f 8/1/20 7/2/20 34/3/20 35/4/20
f 39/1/21 38/2/21 40/3/21 41/4/21
f 34/1/22 36/2/22 40/3/22 38/4/22
f 35/1/23 34/2/23 38/3/23 39/4/23
f 42/1/24 43/2/24 44/3/24 45/4/24
f 46/1/25 47/2/25 48/3/25
f 77/1/26 50/2/26 49/3/26 75/4/26
f 78/1/27 52/2/27 51/3/27 73/4/27
f 74/1/28 75/2/28 49/3/28 24/4/28
f 59/1/27 53/2/27 54/3/27 63/4/27
f 60/1/26 23/2/26 19/3/26 62/4/26
f 59/1/14 61/2/14 25/3/14 53/4/14
f 60/1/10 63/2/10 54/3/10 23/4/10
f 65/1/10 55/2/10 79/3/10 84/4/10
f 18/1/29 43/2/29 58/3/29 57/4/29
f 62/1/10 19/2/10 55/3/10 65/4/10
f 67/1/30 62/2/30 65/3/30 70/4/30
f 70/1/31 65/2/31 84/3/31 82/4/31
f 71/1/32 68/2/32 63/3/32 60/4/32
f 66/1/14 72/2/14 61/3/14 59/4/14
f 71/1/33 60/2/33 62/3/33 67/4/33
f 66/1/34 59/2/34 63/3/34 68/4/34
f 46/1/27 66/2/27 68/3/27 47/4/27
f 42/1/35 71/2/35 67/3/35 43/4/35
f 46/1/14 22/2/14 72/3/14 66/4/14
f 42/1/10 47/2/10 68/3/10 71/4/10
f 57/1/36 58/2/36 83/3/36 81/4/36
f 43/1/10 67/2/10 70/3/10 58/4/10
f 27/1/28 19/2/28 75/3/28 74/4/28
f 53/1/37 78/2/37 73/3/37 54/4/37
f 23/1/38 77/2/38 75/3/38 19/4/38
f 53/1/14 25/2/14 76/3/14 78/4/14
f 23/1/39 54/2/39 73/3/39 77/4/39
f 82/1/40 84/2/40 90/3/40 87/4/40
f 81/1/36 83/2/36 88/3/36 86/4/36
f 84/1/10 79/2/10 69/3/10 90/4/10
f 58/1/41 70/2/41 82/3/41 83/4/41
f 55/1/4 56/2/4 80/3/4 79/4/4
f 89/1/28 90/2/28 69/3/28 64/4/28
f 85/1/28 87/2/28 90/3/28 89/4/28
f 86/1/28 88/2/28 87/3/28 85/4/28
f 83/19/10 82/20/10 87/21/10 88/22/10
f 79/1/4 80/2/4 64/3/4 69/4/4
f 92/1/1 105/4/1 31/3/1 1/2/1
f 93/1/42 96/4/42 95/3/42 92/2/42
f 95/1/43 104/4/43 100/3/43 92/2/43
f 9/5/4 10/8/4 96/7/4 97/6/4
f 3/1/5 9/4/5 97/3/5 94/2/5
f 94/5/44 97/8/44 96/7/44 93/6/44
f 111/9/45 116/14/45 117/13/45 102/12/45 99/11/45 114/10/45
f 96/1/46 98/4/46 91/3/46 95/2/46
f 10/1/9 14/4/9 98/3/9 96/2/9
f 14/9/4 18/18/4 112/17/4 113/16/4 98/15/4
f 139/1/47 119/4/47 120/3/47 137/2/47
f 104/1/11 108/4/11 37/3/11 29/2/11
f 24/9/4 26/14/4 121/13/4 120/12/4 119/11/4 118/10/4
f 98/9/48 113/18/48 114/17/48 99/16/48 91/15/48
f 100/1/13 104/4/13 29/3/13 13/2/13
f 101/1/4 124/4/4 56/3/4 27/2/4
f 140/1/14 121/4/14 26/3/14 76/2/14
f 21/9/14 102/18/14 117/17/14 115/16/14 22/15/14
f 105/1/15 106/4/15 33/3/15 31/2/15
f 13/1/16 33/4/16 106/3/16 100/2/16
f 100/1/49 106/4/49 105/3/49 92/2/49
f 108/1/18 110/4/18 41/3/18 37/2/18
f 95/1/50 107/4/50 108/3/50 104/2/50
f 8/1/20 35/4/20 107/3/20 95/2/20
f 39/1/21 41/4/21 110/3/21 109/2/21
f 107/1/51 109/4/51 110/3/51 108/2/51
f 35/1/23 39/4/23 109/3/23 107/2/23
f 111/1/52 114/4/52 113/3/52 112/2/52
f 115/1/53 117/3/53 116/2/53
f 139/1/54 138/4/54 118/3/54 119/2/54
f 140/1/55 137/4/55 120/3/55 121/2/55
f 74/1/28 24/4/28 118/3/28 138/2/28
f 126/1/55 129/4/55 123/3/55 122/2/55
f 127/1/54 128/4/54 101/3/54 103/2/54
f 126/1/14 122/4/14 25/3/14 61/2/14
f 127/1/47 103/4/47 123/3/47 129/2/47
f 130/1/47 144/4/47 141/3/47 124/2/47
f 18/1/29 57/4/29 125/3/29 112/2/29
f 128/1/47 130/4/47 124/3/47 101/2/47
f 132/1/56 135/4/56 130/3/56 128/2/56
f 135/1/57 142/4/57 144/3/57 130/2/57
f 136/1/58 127/4/58 129/3/58 133/2/58
f 131/1/14 126/4/14 61/3/14 72/2/14
f 136/1/59 132/4/59 128/3/59 127/2/59
f 131/1/60 133/4/60 129/3/60 126/2/60
f 115/1/55 116/4/55 133/3/55 131/2/55
f 111/1/61 112/4/61 132/3/61 136/2/61
f 115/1/14 131/4/14 72/3/14 22/2/14
f 111/1/47 136/4/47 133/3/47 116/2/47
f 57/1/36 81/4/36 143/3/36 125/2/36
f 112/1/47 125/4/47 135/3/47 132/2/47
f 27/1/28 74/4/28 138/3/28 101/2/28
f 122/1/62 123/4/62 137/3/62 140/2/62
f 103/1/63 101/4/63 138/3/63 139/2/63
f 122/1/14 140/4/14 76/3/14 25/2/14
f 103/1/64 139/4/64 137/3/64 123/2/64
f 142/1/65 145/4/65 147/3/65 144/2/65
f 81/1/36 86/4/36 146/3/36 143/2/36
f 144/1/47 147/4/47 134/3/47 141/2/47
f 125/1/66 143/4/66 142/3/66 135/2/66
f 124/1/4 141/4/4 80/3/4 56/2/4
f 89/1/28 64/4/28 134/3/28 147/2/28
f 85/1/28 89/4/28 147/3/28 145/2/28
f 86/1/28 85/4/28 145/3/28 146/2/28
f 143/19/47 146/22/47 145/21/47 142/20/47
f 141/1/4 134/4/4 64/3/4 80/2/4
f 151/1/67 177/4/67 178/3/67 148/2/67
f 152/1/68 158/4/68 154/3/68 151/2/68
f 154/1/69 175/4/69 164/3/69 151/2/69
f 156/5/4 157/8/4 158/7/4 159/6/4
f 150/1/70 156/4/70 159/3/70 153/2/70
f 153/5/71 159/8/71 158/7/71 152/6/71
f 189/9/72 194/14/72 195/13/72 167/12/72 163/11/72 192/10/72
f 158/1/73 162/4/73 149/3/73 154/2/73
f 157/1/74 161/4/74 162/3/74 158/2/74
f 161/9/4 165/18/4 190/17/4 191/16/4 162/15/4
f 222/1/10 197/4/10 198/3/10 218/2/10
f 175/1/75 183/4/75 184/3/75 176/2/75
f 171/9/4 173/14/4 199/13/4 198/12/4 197/11/4 196/10/4
f 162/9/76 191/18/76 192/17/76 163/16/76 149/15/76
f 164/1/77 175/4/77 176/3/77 160/2/77
f 166/1/4 202/4/4 203/3/4 174/2/4
f 223/1/28 199/4/28 173/3/28 221/2/28
f 168/9/28 167/18/28 195/17/28 193/16/28 169/15/28
f 177/1/78 179/4/78 180/3/78 178/2/78
f 160/1/79 180/4/79 179/3/79 164/2/79
f 164/1/80 179/4/80 177/3/80 151/2/80
f 183/1/81 187/4/81 188/3/81 184/2/81
f 154/1/82 181/4/82 183/3/82 175/2/82
f 155/1/83 182/4/83 181/3/83 154/2/83
f 186/1/84 188/4/84 187/3/84 185/2/84
f 181/1/85 185/4/85 187/3/85 183/2/85
f 182/1/86 186/4/86 185/3/86 181/2/86
f 189/1/87 192/4/87 191/3/87 190/2/87
f 193/1/88 195/3/88 194/2/88
f 222/1/27 220/4/27 196/3/27 197/2/27
f 223/1/26 218/4/26 198/3/26 199/2/26
f 219/1/14 171/4/14 196/3/14 220/2/14
f 206/1/26 210/4/26 201/3/26 200/2/26
f 207/1/27 209/4/27 166/3/27 170/2/27
f 206/1/28 200/4/28 172/3/28 208/2/28
f 207/1/10 170/4/10 201/3/10 210/2/10
f 211/1/10 229/4/10 224/3/10 202/2/10
f 165/1/89 204/4/89 205/3/89 190/2/89
f 209/1/10 211/4/10 202/3/10 166/2/10
f 213/1/90 215/4/90 211/3/90 209/2/90
f 215/1/91 227/4/91 229/3/91 211/2/91
f 216/1/32 207/4/32 210/3/32 214/2/32
f 212/1/28 206/4/28 208/3/28 217/2/28
f 216/1/92 213/4/92 209/3/92 207/2/92
f 212/1/93 214/4/93 210/3/93 206/2/93
f 193/1/26 194/4/26 214/3/26 212/2/26
f 189/1/94 190/4/94 213/3/94 216/2/94
f 193/1/28 212/4/28 217/3/28 169/2/28
f 189/1/10 216/4/10 214/3/10 194/2/10
f 204/1/36 226/4/36 228/3/36 205/2/36
f 190/1/10 205/4/10 215/3/10 213/2/10
f 174/1/14 219/4/14 220/3/14 166/2/14
f 200/1/38 201/4/38 218/3/38 223/2/38
f 170/1/37 166/4/37 220/3/37 222/2/37
f 200/1/28 223/4/28 221/3/28 172/2/28
f 170/1/39 222/4/39 218/3/39 201/2/39
f 227/1/40 87/4/40 90/3/40 229/2/40
f 226/1/36 86/4/36 88/3/36 228/2/36
f 229/1/10 90/4/10 69/3/10 224/2/10
f 205/1/95 228/4/95 227/3/95 215/2/95
f 202/1/4 224/4/4 225/3/4 203/2/4
f 228/19/10 88/22/10 87/21/10 227/20/10
f 224/1/4 69/4/4 64/3/4 225/2/4
f 231/1/67 148/2/67 178/3/67 244/4/67
f 232/1/96 231/2/96 234/3/96 235/4/96
f 234/1/97 231/2/97 239/3/97 243/4/97
f 156/5/4 236/6/4 235/7/4 157/8/4
f 150/1/70 233/2/70 236/3/70 156/4/70
f 233/5/98 232/6/98 235/7/98 236/8/98
f 250/9/99 253/10/99 238/11/99 241/12/99 256/13/99 255/14/99
f 235/1/100 234/2/100 230/3/100 237/4/100
f 157/1/74 235/2/74 237/3/74 161/4/74
f 161/9/4 237/15/4 252/16/4 251/17/4 165/18/4
f 277/1/47 275/2/47 259/3/47 258/4/47
f 243/1/75 176/2/75 184/3/75 247/4/75
f 171/9/4 257/10/4 258/11/4 259/12/4 260/13/4 173/14/4
f 237/9/101 230/15/101 238/16/101 253/17/101 252/18/101
f 239/1/77 160/2/77 176/3/77 243/4/77
f 240/1/4 174/2/4 203/3/4 263/4/4
f 278/1/28 221/2/28 173/3/28 260/4/28
f 168/9/28 169/15/28 254/16/28 256/17/28 241/18/28
f 244/1/78 178/2/78 180/3/78 245/4/78
f 160/1/79 239/2/79 245/3/79 180/4/79
f 239/1/102 231/2/102 244/3/102 245/4/102
f 247/1/81 184/2/81 188/3/81 249/4/81
f 234/1/103 243/2/103 247/3/103 246/4/103
f 155/1/83 234/2/83 246/3/83 182/4/83
f 186/1/84 248/2/84 249/3/84 188/4/84
f 246/1/104 247/2/104 249/3/104 248/4/104
f 182/1/86 246/2/86 248/3/86 186/4/86
f 250/1/105 251/2/105 252/3/105 253/4/105
f 254/1/106 255/2/106 256/3/106
f 277/1/55 258/2/55 257/3/55 276/4/55
f 278/1/54 260/2/54 259/3/54 275/4/54
f 219/1/14 276/2/14 257/3/14 171/4/14
f 265/1/54 261/2/54 262/3/54 268/4/54
f 266/1/55 242/2/55 240/3/55 267/4/55
f 265/1/28 208/2/28 172/3/28 261/4/28
f 266/1/47 268/2/47 262/3/47 242/4/47
f 269/1/47 263/2/47 279/3/47 282/4/47
f 165/1/89 251/2/89 264/3/89 204/4/89
f 267/1/47 240/2/47 263/3/47 269/4/47
f 271/1/107 267/2/107 269/3/107 273/4/107
f 273/1/108 269/2/108 282/3/108 280/4/108
f 274/1/58 272/2/58 268/3/58 266/4/58
f 270/1/28 217/2/28 208/3/28 265/4/28
f 274/1/109 266/2/109 267/3/109 271/4/109
f 270/1/110 265/2/110 268/3/110 272/4/110
f 254/1/54 270/2/54 272/3/54 255/4/54
f 250/1/111 274/2/111 271/3/111 251/4/111
f 254/1/28 169/2/28 217/3/28 270/4/28
f 250/1/47 255/2/47 272/3/47 274/4/47
f 204/1/36 264/2/36 281/3/36 226/4/36
f 251/1/47 271/2/47 273/3/47 264/4/47
f 174/1/14 240/2/14 276/3/14 219/4/14
f 261/1/63 278/2/63 275/3/63 262/4/63
f 242/1/62 277/2/62 276/3/62 240/4/62
f 261/1/28 172/2/28 221/3/28 278/4/28
f 242/1/64 262/2/64 275/3/64 277/4/64
f 280/1/65 282/2/65 147/3/65 145/4/65
f 226/1/36 281/2/36 146/3/36 86/4/36
f 282/1/47 279/2/47 134/3/47 147/4/47
f 264/1/112 273/2/112 280/3/112 281/4/112
f 263/1/4 203/2/4 225/3/4 279/4/4
f 281/19/47 280/20/47 145/21/47 146/22/47
f 279/1/4 225/2/4 64/3/4 134/4/4
