<svg xmlns="http://www.w3.org/2000/svg" viewBox="0 0 32 32"><defs><style>.cls-1{fill:#155257;}.cls-2{fill:#e6f5f0;}</style></defs><g id="Layer_10" data-name="Layer 10"><path class="cls-1" d="M21,13l-4.3,3.46L12.17,9.39,7.28,6,10.39,26.2l6.31,1,6.87-10.41ZM15.66,25.1l-3.9-.59L9.34,9.06l.59.4,6.28,9.75,4.93-3.92.54.78Z"/><path class="cls-2" d="M21.14,15.29l-4.93,3.92L9.93,9.46l-.59-.4,2.42,15.45,3.9.59,6-9Z"/><path class="cls-1" d="M14.44,24.31a3.48,3.48,0,0,0-1.16-.19,3.57,3.57,0,0,0-1.15,6.94,3.47,3.47,0,0,0,1.15.19,3.58,3.58,0,0,0,3.38-2.41,3.57,3.57,0,0,0-2.22-4.53Z"/><path class="cls-1" d="M13.06,8.23a3.55,3.55,0,0,0-1-2.54A3.49,3.49,0,0,0,9.56,4.6H9.49A3.59,3.59,0,0,0,5.92,8.1a3.57,3.57,0,0,0,3.5,3.63h.07A3.59,3.59,0,0,0,13.06,8.23Z"/><path class="cls-1" d="M26.18,15.18A3.55,3.55,0,0,0,26,12.45a3.62,3.62,0,0,0-3.2-2,3.57,3.57,0,0,0-1.16,7,3.48,3.48,0,0,0,1.16.19A3.56,3.56,0,0,0,26.18,15.18Z"/><path class="cls-1" d="M22,5.52a3.61,3.61,0,0,0-.17-2.72,3.55,3.55,0,0,0-3.21-2h0A3.57,3.57,0,1,0,22,5.52Z"/></g></svg>