<svg xmlns="http://www.w3.org/2000/svg" viewBox="0 0 16 16"><defs><style>.cls-1{fill:#155257;}.cls-2{fill:#e6f5f0;}</style></defs><g id="Layer_10" data-name="Layer 10"><path class="cls-1" d="M10.94,6.43,8.75,8.2,6.44,4.58,4,2.86,5.54,13.14l3.21.49,3.5-5.3ZM8.22,12.58l-2-.3L5,4.41l.3.2,3.2,5,2.51-2,.28.4Z"/><path class="cls-2" d="M11,7.58l-2.51,2-3.2-5L5,4.41l1.23,7.87,2,.3L11.29,8Z"/><path class="cls-1" d="M7.6,12.17A2,2,0,0,0,7,12.08a1.81,1.81,0,0,0-.59,3.53,1.7,1.7,0,0,0,.59.1,1.81,1.81,0,0,0,1.72-1.23,1.77,1.77,0,0,0-.09-1.39A1.82,1.82,0,0,0,7.6,12.17Z"/><path class="cls-1" d="M6.89,4a1.83,1.83,0,0,0-.5-1.3,1.77,1.77,0,0,0-1.28-.55h0A1.82,1.82,0,0,0,3.26,3.92a1.79,1.79,0,0,0,.51,1.29A1.82,1.82,0,0,0,5,5.77h0A1.82,1.82,0,0,0,6.89,4Z"/><path class="cls-1" d="M13.58,7.52a1.82,1.82,0,0,0-1.13-2.3,1.7,1.7,0,0,0-.59-.1,1.81,1.81,0,0,0-.59,3.53,1.7,1.7,0,0,0,.59.1A1.81,1.81,0,0,0,13.58,7.52Z"/><path class="cls-1" d="M11.45,2.61a1.81,1.81,0,0,0-.08-1.39,1.83,1.83,0,0,0-1-.92A1.7,1.7,0,0,0,9.73.2h0A1.83,1.83,0,0,0,8,1.43,1.86,1.86,0,0,0,8.1,2.82a1.82,1.82,0,0,0,1,.92,2,2,0,0,0,.59.1A1.82,1.82,0,0,0,11.45,2.61Z"/></g></svg>