<svg xmlns="http://www.w3.org/2000/svg" viewBox="0 0 1133.4 398.29"><defs><style>.cls-1{fill:#e6f5f0;}.cls-2{fill:#83c8c0;}.cls-3{fill:#155257;}.cls-4{fill:#bee1dc;}.cls-5{fill:#3caaaa;}</style></defs><g id="Layer_7" data-name="Layer 7"><path class="cls-1" d="M108.74,175.75a8.52,8.52,0,0,1-3.28.94l4.77,30.45,9.3,1.42L130,192.87a8.39,8.39,0,0,1-3.09-3.17l-6.06,4.83Z"/><path class="cls-2" d="M249,286.46c.47-3.8.7-14.61-3.74-19-2.41-2.37-10.55-7.33-15.32-10.12l.09,35.06a93.09,93.09,0,0,0,19-5.12v-.57A2.64,2.64,0,0,1,249,286.46Z"/><path class="cls-3" d="M371.55,237V132H390.3l36.75,64.43L463.58,132h18.75V237H467v-83.1l-32.85,57.9H419.7l-32.85-57.52V237Z"/><path class="cls-3" d="M510,270.28a33.48,33.48,0,0,1-6.07-.52v-13.5a27.58,27.58,0,0,0,4.2.37q7.88,0,12.82-4.46t8.7-13.09q-9.23-18.53-17.32-38T496.88,162h17.4q4.8,15.08,10.38,30.11t11.89,29.74L557,162h16.35l-29.33,77.33q-5.62,14.85-13.35,22.91T510,270.28Z"/><path class="cls-3" d="M614.33,238.78a37.86,37.86,0,0,1-19.84-5.06,34.12,34.12,0,0,1-13-13.95,47.3,47.3,0,0,1,0-40.61,34.17,34.17,0,0,1,13-13.92,37.86,37.86,0,0,1,19.84-5.06H616q11.47,0,19.87,5.06a34.37,34.37,0,0,1,13,13.92,47.39,47.39,0,0,1,0,40.61,34.32,34.32,0,0,1-13,13.95q-8.4,5.06-19.87,5.06Zm.07-13.95h1.5q10.27,0,16.13-6.9t5.85-18.45q0-11.62-5.85-18.49t-16.13-6.86h-1.5q-10.2,0-16.09,6.86t-5.88,18.49q0,11.55,5.88,18.45T614.4,224.83Z"/><path class="cls-3" d="M712.57,238.78q-14.77,0-25.65-5.29a48.31,48.31,0,0,1-18.15-15.26l11.55-10.5a41.27,41.27,0,0,0,14.37,12.38,39.4,39.4,0,0,0,17.81,4h1.87q11.77,0,17.78-4.05a12.84,12.84,0,0,0,6-11.25q0-5.55-3.19-8.62a20.77,20.77,0,0,0-7.69-4.65,65.66,65.66,0,0,0-8.55-2.4l-17-3.6a78.83,78.83,0,0,1-9.41-2.63,39.79,39.79,0,0,1-9.64-4.84,23.48,23.48,0,0,1-10.43-20.66A27.83,27.83,0,0,1,677.14,145,32.06,32.06,0,0,1,691,134.08a51.94,51.94,0,0,1,20.93-3.9h1.87q25.2,0,38.78,19.5l-11.4,9.45Q735,151,728.17,148a35.37,35.37,0,0,0-14.7-3.08H711.6q-10.27,0-16.65,4.09t-6.38,11.14a10.49,10.49,0,0,0,2.48,7.31,16.13,16.13,0,0,0,6.64,4.24,70,70,0,0,0,9,2.55l17,3.6q3.53.75,8.66,2.32a42.6,42.6,0,0,1,10.2,4.76,26.85,26.85,0,0,1,8.48,8.67q3.4,5.48,3.41,14a28.16,28.16,0,0,1-5,16.73A31.39,31.39,0,0,1,735.6,235a54.74,54.74,0,0,1-21.15,3.75Z"/><path class="cls-3" d="M795.22,238.78q-13,0-19.8-8.77t-6.82-24.68V162h15v41.55q0,21.3,15.45,21.3h1.5a19,19,0,0,0,13-4.72,28.63,28.63,0,0,0,8-11.93V162h15v75h-15V224.46A31.69,31.69,0,0,1,811.24,235a26.79,26.79,0,0,1-14.37,3.82Z"/><path class="cls-3" d="M866.1,148.63a9.5,9.5,0,0,1-7.24-2.81,11,11,0,0,1,0-14.36,10.86,10.86,0,0,1,14.51,0,11.12,11.12,0,0,1,0,14.36A9.47,9.47,0,0,1,866.1,148.63ZM858.6,237V162h15v75Z"/><path class="cls-3" d="M929.4,238q-13.35,0-20.33-6.75t-7-20.78V175H887.4V162h14.7V139.63h15V162h25.27V175H917.1v33.38q0,8.85,3.67,12.3t10.88,3.45a57.07,57.07,0,0,0,6.18-.3q2.74-.3,5.67-.75v13.12a60.85,60.85,0,0,1-6.75,1.24A57.9,57.9,0,0,1,929.4,238Z"/><path class="cls-3" d="M991,238.78A35.74,35.74,0,0,1,972,233.83,33.83,33.83,0,0,1,959.36,220a48.53,48.53,0,0,1,0-41A34,34,0,0,1,972,165.17a35.48,35.48,0,0,1,18.94-5h1.65a31.05,31.05,0,0,1,17.29,4.84A32.11,32.11,0,0,1,1021.57,179q4.2,9.1,4.2,21.94v4.57H970.35q1.35,9.22,6.93,14.51t14.59,5.29h1.5a25.17,25.17,0,0,0,10.35-2.21,24.54,24.54,0,0,0,8.33-6l9.22,9.75a37,37,0,0,1-12.56,8.7,40.14,40.14,0,0,1-16.09,3.22Zm-.45-65.1A18.3,18.3,0,0,0,977.13,179q-5.36,5.28-6.78,14.44h40.35a24.39,24.39,0,0,0-5.44-14q-4.77-5.7-13.24-5.7Z"/><path class="cls-3" d="M190.09,290.47l.08-.08-.07,0Z"/><path class="cls-2" d="M229.68,142.29c.74,6,5.46,8.43,11.25,10.07a33.76,33.76,0,0,1,.09-4.62c.41-5.47.3-8.87.3-8.9a2.49,2.49,0,0,1,1.05-2.13c.46-.33,10.5-7.72,12.33-23a93.85,93.85,0,0,0-25.11-7.6Z"/><path class="cls-4" d="M304.44,228c-1.37-7.43-2.78-15.11-5.37-17.85s-5.65-4.18-8.9-5.71a34.35,34.35,0,0,1-7.69-4.48l-.19,4.94c0,.1,0,.21,0,.31-.89,5.33,1,22.63,6,33.25a66.58,66.58,0,0,0,6.87,10.78,93.9,93.9,0,0,0,9.51-20.21C304.56,228.73,304.5,228.39,304.44,228Z"/><path class="cls-4" d="M247.17,210.61a3.17,3.17,0,0,1,.28-.78,237.89,237.89,0,0,0,8.41-23.26,56.22,56.22,0,0,1,9.36-18.51l-17.89-8.95-.27-.1s-2.17-.53-3.72-.89c-3.77-.87-9.49-2.2-13.63-5.75l.23,90.69c2.06-5.53,4.85-11.46,7.87-13.29a8,8,0,0,0,1.36-1.1c1-1.3,2.07-2.85,3.15-4.47A59.72,59.72,0,0,0,247.17,210.61Z"/><path class="cls-5" d="M262.34,237.84s0-.07,0-.1c.75-4.09,5.28-13.77,9-21.22a14.15,14.15,0,0,1-5,1c-7.79.17-12.45-1-15.2-2.26-1.55,5.47-5,15.34-10.74,18.8-2.33,1.42-6,10.5-8.42,18.81,4,2.35,13.65,8.06,16.81,11.15,5.73,5.61,5.66,16.76,5.37,21.24q4.18-1.9,8.13-4.2C261.76,273,260.38,248.94,262.34,237.84Z"/><path class="cls-2" d="M260.65,188c-3.14,10.36-6.54,18.86-8,22.38,1.59.89,5.41,2.28,13.6,2.1,9.36-.2,11.1-12.69,11.43-17.48l.05-1.28a201,201,0,0,1-9.46-21.4A52.52,52.52,0,0,0,260.65,188Z"/><path class="cls-1" d="M225,256.67l0,0-.25-106.15h0l-.09-45c-3.14-.31-6.32-.48-9.54-.48a94.37,94.37,0,0,0-14.46,1.11l.56,12.47,12.3,19,.4,1.28.1,16.93-42.17,20.69-3.53,3.82-11.32,31.88-7.39,24.92-4.79-2.75c-1.08-.77-9.11-6.44-13.87-9.91-3-2.15-13.39-5.83-15.61-6.34,2.37,10.3,15.82,21.38,21.26,30.09,4.59,3.33,17.46,10.14,17.88,9.3,1.19-2.37,10.93-16.56,12.51-18.87,4.55-12.78,12.41-33.93,17-28,3.56,10,8.2,23.35,8.91,27.4a1.81,1.81,0,0,1,0,.4l.22,16.08a2.09,2.09,0,0,1,0,.25l-5.29,35,2.4.74a94.91,94.91,0,0,0,34.9,2.79Z"/><path class="cls-3" d="M215.83,95.88a106.37,106.37,0,0,0-56.83,17,94.62,94.62,0,0,0-34.31,38,8.48,8.48,0,0,0-.84,16.29,8.35,8.35,0,0,0,2.75.46,8.5,8.5,0,0,0,7.64-12.23c0-.07-.07-.12-.1-.19,9-15.54,20.25-27.49,33.53-35.58a86.18,86.18,0,0,1,28-10.82l.07,1.58a8.47,8.47,0,0,0,.08,16,8.31,8.31,0,0,0,2.75.46,8,8,0,0,0,1.84-.21l8.42,13-.06,6.43a8.45,8.45,0,0,0-6.47,10.2l-29,13.86a8.44,8.44,0,0,0-3.94-2.82,8.68,8.68,0,0,0-2.76-.46,8.5,8.5,0,0,0-8,5.75,8.5,8.5,0,0,0,3.54,10l-9.92,27.93-4.54,15.33a8,8,0,0,0-1.83-.21,8.44,8.44,0,0,0-5.11,1.73l-18.56-10.76a8.59,8.59,0,0,0,.08-3.46L134.87,194a8.48,8.48,0,0,0,2.18-16.49,8.31,8.31,0,0,0-2.75-.46,8.45,8.45,0,0,0-8.47,7.94L122,188.08l-9.87-15.52A8.48,8.48,0,0,0,105,159.72h-.17a8.53,8.53,0,0,0-8.49,8.34,8.41,8.41,0,0,0,2.37,6.05,8.58,8.58,0,0,0,2.87,2l5.23,34a8.42,8.42,0,0,0,4.3,12.73,5.6,5.6,0,0,0,.7.2l15.38,19.56s11.3,11.11,19.77,16.95a8.44,8.44,0,0,0,5.17,5,8.35,8.35,0,0,0,2.75.46,8.5,8.5,0,0,0,8.22-10.66c2.26-3.51,5.88-8.86,8.48-12.66,0,0,5.39-15.89,8.38-27.2,3.3,9.33,6.88,19.79,7.78,23.75a8.48,8.48,0,0,0-.88,16.3,7,7,0,0,0,1.17.31l-2.32,25.82A8.49,8.49,0,0,0,182,296.38l0,.08.43.13a7.9,7.9,0,0,0,1.11.48,8.63,8.63,0,0,0,1.93.41,116.53,116.53,0,0,0,30.42,4.27,102.94,102.94,0,1,0,0-205.87Zm-11,28.32a8.49,8.49,0,0,0-3.43-13.84l-.6-.17-.1-2.22a104.13,104.13,0,0,1,15.16-1.09c3,0,5.88.15,8.76.42l.1,37.53-7.62,4.06a8.4,8.4,0,0,0-3.15-2.3l-.07-7.76-.4-1.28Zm-49,85.15,0,.07Zm-47.06-33.6,12.1,18.78,6.06-4.83a8.39,8.39,0,0,0,3.09,3.17l-10.38,15.57a8.45,8.45,0,0,0-9.39-1.39l-4.76-30.36A8.52,8.52,0,0,0,108.74,175.75Zm70.87,18.15a8.5,8.5,0,0,0-8,5.75A8.49,8.49,0,0,0,175.86,210c-1.74,7.09-5.3,18.34-8.94,28.57-1,1.45-4.51,6.6-7.27,10.8a8.45,8.45,0,0,0-2-1,8.64,8.64,0,0,0-2.76-.46,8.49,8.49,0,0,0-7.91,5.46,189.88,189.88,0,0,1-16-14.16l-13.2-17a8.43,8.43,0,0,0,1.87-1.32l18.14,10.53a8.51,8.51,0,0,0,5.31,10.73,8.31,8.31,0,0,0,2.75.46,8.5,8.5,0,0,0,7.63-12.24,8.42,8.42,0,0,0-1.34-2l0-.22,4.77-16.07,10-28.27a8.46,8.46,0,0,0,4.88-1.81l26.34,13.17a8.5,8.5,0,0,0,5.67,9.2,8.31,8.31,0,0,0,2.75.46,8.5,8.5,0,0,0,2.76-16.54,8.68,8.68,0,0,0-2.76-.46,8.47,8.47,0,0,0-6.28,2.82l-25.61-12.8a8.41,8.41,0,0,0,.37-3.1l29.47-14.45a8.53,8.53,0,0,0,6.05,2.53,8.49,8.49,0,0,0,8-5.74,8.34,8.34,0,0,0,.38-3.89l5.67-2.78.25,96.72L187,206.56a8.5,8.5,0,0,0-4.64-12.2A8.68,8.68,0,0,0,179.61,193.9Zm11,87.85,2.44-27.06a2.09,2.09,0,0,0,0-.25v-.29a8.48,8.48,0,0,0-.2-15.59v-.2a1.81,1.81,0,0,0,0-.4c-.71-4.05-5.35-17.44-8.91-27.4L222.59,252l-31.22,30.25Q191,282,190.62,281.75Zm25.21,9a130.49,130.49,0,0,1-21.1-1.41,8.22,8.22,0,0,0-.43-2.95L225,256.67l.08,33.62C222,290.59,219,290.75,215.83,290.75Zm13.76-182.84a91.4,91.4,0,0,1,24.85,7.48c-2.34,14.12-11.63,21-12.07,21.32a2.49,2.49,0,0,0-1.05,2.13s.11,3.43-.3,8.9a33.76,33.76,0,0,0-.09,4.62c-5.79-1.64-10.51-4.11-11.25-10.07Zm.12,44.46c4.14,3.55,9.86,4.88,13.63,5.75,1.55.36,3.72.89,3.72.89l.27.1,17.89,8.95a56.22,56.22,0,0,0-9.36,18.51,237.89,237.89,0,0,1-8.41,23.26,3.17,3.17,0,0,0-.28.78,59.72,59.72,0,0,1-4.85,13.59,18.11,18.11,0,0,1-3.15,4.47,8,8,0,0,1-1.36,1.1c-3,1.83-5.81,7.76-7.87,13.29Zm48,41.37-.05,1.28c-.33,4.79-2.07,17.28-11.43,17.48-8.19.18-12-1.21-13.6-2.1,1.47-3.52,4.87-12,8-22.38a52.52,52.52,0,0,1,7.61-15.68A201,201,0,0,0,277.72,193.74Zm-4.8-23.2a28.71,28.71,0,0,1,13.41,7.18c3.31,3.26,8.66,13.93,11.06,24.85A54.75,54.75,0,0,0,292.3,200c-4.1-1.93-7.65-3.6-9.78-7.84a1.09,1.09,0,0,1-.08-.15A199,199,0,0,1,272.92,170.54Zm-23.7,113.92a91,91,0,0,1-19.16,5.19L230,257.46c4.77,2.79,12.91,7.75,15.32,10.12C249.1,271.29,249.48,279.71,249.22,284.46Zm13.12-46.62c-1.76,10-.82,30.53-.22,40.38q-3.81,2.23-7.85,4.1c0-5.32-.75-13.69-5.47-18.32-3.16-3.09-12.76-8.8-16.81-11.15,2.39-8.31,6.09-17.39,8.42-18.81,5.71-3.46,9.19-13.33,10.74-18.8,2.75,1.27,7.41,2.43,15.2,2.26a14.15,14.15,0,0,0,5-1c-3.69,7.45-8.22,17.13-9,21.22C262.35,237.77,262.35,237.8,262.34,237.84Zm5,37.07-.28-20.57.22-15.86c.8-4,6.14-15.07,10.12-23,.77,7.8,2.76,17.64,6.31,25.12a68,68,0,0,0,7.11,11.27A92.65,92.65,0,0,1,267.37,274.91Zm26.43-27.43a58.15,58.15,0,0,1-5.55-9c-5-10.62-6.89-27.92-6-33.25,0-.1,0-.21,0-.31l.19-4.94a34.35,34.35,0,0,0,7.69,4.48c3.25,1.53,6.32,3,8.9,5.71,2.26,2.39,3.62,8.54,4.84,15A91.91,91.91,0,0,1,293.8,247.48Zm9.48-40c-1.54-13-8.28-28.18-13.44-33.27A34.39,34.39,0,0,0,270.18,165l-.21-.13-20.52-10.26-.24-.1-3.14-1.18a20.3,20.3,0,0,1-.06-5.18c.28-3.81.33-6.65.32-8.18a39.65,39.65,0,0,0,12.78-22.22,92,92,0,0,1,48.66,81.1,93.12,93.12,0,0,1-1.28,15.31A20.7,20.7,0,0,0,303.28,207.43Z"/><path class="cls-5" d="M272.92,170.54A199,199,0,0,0,282.44,192a1.09,1.09,0,0,0,.08.15c2.13,4.24,5.68,5.91,9.78,7.84a54.75,54.75,0,0,1,5.09,2.61c-2.4-10.92-7.75-21.59-11.06-24.85A28.71,28.71,0,0,0,272.92,170.54Z"/></g></svg>