<svg xmlns="http://www.w3.org/2000/svg" viewBox="0 0 462.51 464.78"><defs><style>.cls-1{fill:none;}.cls-2{fill:#155257;}.cls-3{fill:#e6f5f0;}.cls-4{fill:#83c8c0;}.cls-5{fill:#bee1dc;}.cls-6{fill:#3caaaa;}</style></defs><g id="Layer_7" data-name="Layer 7"><path class="cls-1" d="M263,160.07l-.59,20s-.67,0-1.73-.07l2.75,1.3,19.43,6.59s12.1,6,17.53,7.66,16.48,5.69,20.26,12.5a105,105,0,0,1,8.27,18.7c.46,1.51.93,3.36,1.37,5.28a80,80,0,0,1,2.61,12.62c.84,2.11,4.19,10.66,6.79,19.1a116.25,116.25,0,0,0-61-132.41c-.37,2.19-1,5.23-2,9.34C274,151.77,263,160.07,263,160.07Z"/><path class="cls-1" d="M302,249.48a21.52,21.52,0,0,0,2.49-4.16A18.26,18.26,0,0,0,302,249.48Z"/><path class="cls-1" d="M242.55,171.46l3.69,1.74a51,51,0,0,1-3.69-5.43l0-47.48q-1.23-.17-2.46-.3l2.12,193.78Z"/><path class="cls-1" d="M85,190.8l14.31,9.87,13.27,20.86,12.6-10.16,7.56,10.9-20.13,30.54L94.07,250Z"/><path class="cls-1" d="M310.88,276s-6.78-14.67-6-30.08a1.12,1.12,0,0,0-.1-.69l-.29,1.6s-14.17,29-15.57,36.94c-.31,1.73-.54,3.74-.72,5.94-.11,7.84-.24,18.64-.24,22.95,0,1.38,0,3.52,0,6.09.21,5.91.51,11.26.74,15A116.69,116.69,0,0,0,324,299.48a38.14,38.14,0,0,0-3.73-7.5C319.11,290.5,310.88,276,310.88,276Z"/><path class="cls-2" d="M132.7,222.27l-7.56-10.9-12.6,10.16L99.27,200.67,85,190.8,94.07,250l18.5,2.85ZM98.06,245,91,199.7l1.74,1.18,18.41,28.59L125.56,218l1.61,2.28-17.66,26.5Z"/><polygon class="cls-3" points="125.56 217.96 111.12 229.47 92.71 200.88 90.97 199.7 98.06 244.99 109.51 246.74 127.17 220.24 125.56 217.96"/><path class="cls-4" d="M246.24,173.2,260.72,180c1.06.07,1.73.07,1.73.07l.59-20s10.95-8.3,13.69-19.38c1-4.11,1.63-7.15,2-9.34a115.39,115.39,0,0,0-36.14-11.06l0,47.48A51,51,0,0,0,246.24,173.2Z"/><path class="cls-5" d="M332.94,244.66c0,.28.07.55.1.82-8.27-8.75-20-7.89-25.41-18.83l-.1,2.58c-.46,6.66-3,24-17.07,24.29-17.42.37-20.54-4.75-20.54-4.75a292.4,292.4,0,0,0,10.64-29.34c5-16.5,13.38-24.52,13.38-24.52s13.34.67,23.34,10.54c4.09,4,9.66,14.81,13.05,26.59-.44-1.92-.91-3.77-1.37-5.28a105,105,0,0,0-8.27-18.7c-3.78-6.81-14.83-10.86-20.26-12.5s-17.53-7.66-17.53-7.66l-19.43-6.59-2.75-1.3a29.15,29.15,0,0,1-8.89-1.74c-1.88-.79-3.91-2.93-5.59-5.07l-3.69-1.74-.3,142.31.22,20.25V301.45s17.6,10,22.14,14.45c6.69,6.55,5.94,22.9,5.61,27.37l2.48-1c.34-4.8.94-20.69-5.63-27.12-4.54-4.45-22.13-14.45-22.13-14.45s3.6-20.85,8.79-25.67,16.49-24.55,16.49-24.55,3.12,5.13,20.54,4.76a14,14,0,0,0,11.2-5.73,18.26,18.26,0,0,1,2.49-4.16c.2-.43.39-.87.57-1.31l-.23,1.25a1.12,1.12,0,0,1,.1.69c-.79,15.41,6,30.08,6,30.08s8.23,14.47,9.35,16a38.14,38.14,0,0,1,3.73,7.5,115.46,115.46,0,0,0,15.77-35.72C337.13,255.32,333.78,246.77,332.94,244.66Z"/><path class="cls-5" d="M288,318.78c0-2.57,0-4.71,0-6.09,0-4.31.13-15.11.24-22.95A270.57,270.57,0,0,0,288,318.78Z"/><path class="cls-5" d="M251.83,178.27a29.15,29.15,0,0,0,8.89,1.74l-14.48-6.81C247.92,175.34,250,177.48,251.83,178.27Z"/><path class="cls-6" d="M288.3,334.11c.16-.09.31-.19.46-.29-.23-3.78-.53-9.13-.74-15C288.07,323.15,288.17,328.79,288.3,334.11Z"/><path class="cls-6" d="M288.21,289.74c.18-2.2.41-4.21.72-5.94,1.4-7.9,15.57-36.94,15.57-36.94l.29-1.6c-.07-.09-.19-.07-.34.06a21.52,21.52,0,0,1-2.49,4.16c-4.76,9.46-13.63,31.32-13.63,31.32S288.28,284.65,288.21,289.74Z"/><path class="cls-6" d="M288,318.78a270.57,270.57,0,0,1,.19-29c.07-5.09.12-8.94.12-8.94s8.87-21.86,13.63-31.32a14,14,0,0,1-11.2,5.73c-17.42.37-20.54-4.76-20.54-4.76s-11.3,19.74-16.49,24.55-8.79,25.67-8.79,25.67,17.59,10,22.13,14.45c6.57,6.43,6,22.32,5.63,27.12a115.37,115.37,0,0,0,15.6-8.13C288.17,328.79,288.07,323.15,288,318.78Z"/><path class="cls-6" d="M304.79,245.26,305,244c-.18.44-.37.88-.57,1.31C304.6,245.19,304.72,245.17,304.79,245.26Z"/><path class="cls-4" d="M270.22,343.27c.33-4.47,1.08-20.82-5.61-27.37-4.54-4.44-22.14-14.45-22.14-14.45V334l.18,16.48A115,115,0,0,0,270.22,343.27Z"/><path class="cls-6" d="M332.74,244.16l.2.5A80,80,0,0,0,330.33,232C331.65,237.77,332.74,244.16,332.74,244.16Z"/><path class="cls-6" d="M330.33,232c-3.39-11.78-9-22.56-13.05-26.59-10-9.87-23.34-10.54-23.34-10.54a245.12,245.12,0,0,0,13.69,31.74c5.37,10.94,17.14,10.08,25.41,18.83,0-.27-.07-.54-.1-.82l-.2-.5S331.65,237.77,330.33,232Z"/><path class="cls-4" d="M280.56,219.43a292.4,292.4,0,0,1-10.64,29.34s3.12,5.12,20.54,4.75c14.07-.3,16.61-17.63,17.07-24.29l.1-2.58a245.12,245.12,0,0,1-13.69-31.74S285.57,202.93,280.56,219.43Z"/><path class="cls-3" d="M242.17,350.57l.08-36.8L240.13,120a117,117,0,0,0-13-.73,164.18,164.18,0,0,0-21.57,1.52c.11,10.63,2.74,22.28,8.91,29.07,10.94,12,10.68,17.16,10.68,17.16l-3.34,14.29-19.64,9.26s-12.11,6-17.53,7.66-14.23,6.74-18,13.56-5.26,14.59-6.81,19.64c-1.85,6-5.61,16.29-5.61,16.29s-6.17,18-8.55,29.28c-2.07,9.93-4.88,1.57-4.88,1.57s-10.94-7.73-17.24-12.31c-13.54-9.85-20.92-2.46-20.92-2.46l12.72,17.55s33.07,31.52,36.51,29.22c3.7-2.46,9.52-11.33,13-15.92,1.12-1.47,9.35-15.94,9.35-15.94l9.32-34.62,13.23,39.38s.36,24.78.36,31.9c0,5.52-.28,23.27-.7,32.45a141.83,141.83,0,0,0,30.73,3.74A117.32,117.32,0,0,0,242.17,350.57Z"/><path class="cls-3" d="M242.47,350.53V334l-.22-20.25-.08,36.8Z"/><path class="cls-3" d="M242.65,350.5,242.47,334v16.51Z"/><path class="cls-2" d="M228.05,108a130.87,130.87,0,0,0-70,20.93c-18.68,12-33.07,28-42.23,46.81a10.43,10.43,0,0,0-7,14.77,10.46,10.46,0,0,0,18.79-9.2l-.12-.23c11.09-19.13,24.93-33.84,41.28-43.79A105.72,105.72,0,0,1,203.28,124l.08,1.94a10.43,10.43,0,0,0,.1,19.71,10.31,10.31,0,0,0,3.39.57,10.58,10.58,0,0,0,2.26-.26l10.37,16-.08,7.92a10.47,10.47,0,0,0-7.68,6.81,10.35,10.35,0,0,0-.28,5.75l-35.73,17.05a10.43,10.43,0,0,0-4.86-3.46,10.31,10.31,0,0,0-3.39-.57,10.46,10.46,0,0,0-5.54,19.33l-12.21,34.38L144.12,268a10,10,0,0,0-2.25-.26,10.47,10.47,0,0,0-6.3,2.13l-22.84-13.25a10.32,10.32,0,0,0,.1-4.25l15.56-23.59a10.45,10.45,0,0,0,2.69-20.31,10.61,10.61,0,0,0-3.39-.56,10.47,10.47,0,0,0-9.9,7.07,10.67,10.67,0,0,0-.53,2.7l-4.72,3.81-12.16-19.11a10.28,10.28,0,0,0,1.5-5.14,10.45,10.45,0,0,0-10.26-10.66h-.2A10.51,10.51,0,0,0,81,196.88a10.46,10.46,0,0,0,6.45,9.86l6.44,41.79a10.66,10.66,0,0,0-1.21,2.38,10.47,10.47,0,0,0,6.51,13.29,8.47,8.47,0,0,0,.86.25l18.93,24.07s13.91,13.68,24.33,20.87A10.46,10.46,0,0,0,163.14,303c2.79-4.31,7.24-10.9,10.44-15.57,0,0,6.64-19.57,10.31-33.49,4.07,11.49,8.47,24.36,9.58,29.23a10.45,10.45,0,0,0-1.09,20.08,10.63,10.63,0,0,0,1.45.37L191,335.37a10.45,10.45,0,0,0-4.62,19.46v.1l.51.16a11.23,11.23,0,0,0,1.38.59,10.13,10.13,0,0,0,2.37.51,143.4,143.4,0,0,0,37.45,5.25,126.7,126.7,0,0,0,0-253.4ZM214.46,142.9a10.33,10.33,0,0,0,1.78-11.74,10.34,10.34,0,0,0-6-5.29c-.24-.09-.48-.15-.73-.22l-.12-2.73a129.07,129.07,0,0,1,18.66-1.34c3.63,0,7.23.18,10.78.52l.12,46.19-9.38,5a10.33,10.33,0,0,0-3.87-2.84l-.1-9.55-.49-1.57ZM154.15,247.71l0,.09ZM96.23,206.35l14.89,23.12,7.46-5.95a10.47,10.47,0,0,0,3.8,3.91L109.6,246.59a10.23,10.23,0,0,0-3.67-2.18,10.36,10.36,0,0,0-3.39-.57,10.49,10.49,0,0,0-4.49,1L92.19,207.5A10.42,10.42,0,0,0,96.23,206.35Zm87.23,22.35a10.45,10.45,0,0,0-4.62,19.83c-2.13,8.74-6.51,22.58-11,35.17-1.22,1.79-5.55,8.12-8.94,13.29a10.5,10.5,0,0,0-2.48-1.25,10.64,10.64,0,0,0-3.4-.57,10.45,10.45,0,0,0-9.74,6.72,232.92,232.92,0,0,1-19.71-17.43L107.32,263.6a10.27,10.27,0,0,0,2.3-1.62L132,274.93a10.47,10.47,0,0,0,6.53,13.21,10.36,10.36,0,0,0,3.39.57,10.46,10.46,0,0,0,9.4-15.06,10.94,10.94,0,0,0-1.66-2.44l.07-.28,5.86-19.77,12.36-34.81a10.36,10.36,0,0,0,6-2.22l32.42,16.21a10.47,10.47,0,0,0,7,11.33,10.27,10.27,0,0,0,3.39.57,10.46,10.46,0,0,0,3.39-20.36A10.38,10.38,0,0,0,209,224.77L177.44,209a10.26,10.26,0,0,0,.46-3.8l36.27-17.79A10.45,10.45,0,0,0,232,178.68l7-3.42.31,119.05-46.7-50a10.44,10.44,0,0,0-9.11-15.58ZM197,336.83l3-33.31c0-.11,0-.21,0-.32v-.35a10.43,10.43,0,0,0-.25-19.19v-.24a4.21,4.21,0,0,0,0-.5c-.89-5-6.6-21.47-11-33.72l47.63,51-38.43,37.24A9.36,9.36,0,0,0,197,336.83Zm31,11.07a161.73,161.73,0,0,1-26-1.73,10.26,10.26,0,0,0-.52-3.64L239.3,306l.11,41.39Q233.8,347.9,228.05,347.9Zm16.93-225a112.47,112.47,0,0,1,30.59,9.2c-2.88,17.39-14.32,25.85-14.86,26.24a3.09,3.09,0,0,0-1.29,2.62c0,.05.14,4.23-.37,11a41.37,41.37,0,0,0-.1,5.68c-7.13-2-12.95-5.06-13.86-12.39Zm.14,54.72c5.1,4.37,12.15,6,16.78,7.08l4.58,1.09.34.13,22,11a69.05,69.05,0,0,0-11.52,22.79A296.14,296.14,0,0,1,267,248.3a3.62,3.62,0,0,0-.35.95,73.16,73.16,0,0,1-6,16.74,22.28,22.28,0,0,1-3.88,5.5,9.64,9.64,0,0,1-1.66,1.35c-3.72,2.25-7.16,9.55-9.7,16.36Zm59.11,50.92-.07,1.58c-.4,5.89-2.55,21.27-14.06,21.52-10.09.21-14.79-1.49-16.75-2.58,1.81-4.34,6-14.8,9.86-27.55a65.2,65.2,0,0,1,9.36-19.31A246.68,246.68,0,0,0,304.23,228.49Zm-5.91-28.55a35.34,35.34,0,0,1,16.51,8.84c4.06,4,10.65,17.14,13.61,30.58-2.13-1.26-4.26-2.27-6.27-3.21-5.05-2.38-9.42-4.44-12-9.65l-.1-.19A243.13,243.13,0,0,1,298.32,199.94ZM269.14,340.16a111.64,111.64,0,0,1-23.58,6.38l-.1-39.61c5.87,3.43,15.89,9.54,18.86,12.45C269,324,269.46,334.32,269.14,340.16Zm16.15-57.39c-2.17,12.32-1,37.59-.26,49.71q-4.69,2.75-9.67,5c0-6.54-.92-16.85-6.73-22.54-3.89-3.8-15.71-10.84-20.69-13.73,2.94-10.22,7.49-21.41,10.36-23.15,7-4.26,11.31-16.41,13.22-23.14,3.38,1.56,9.12,3,18.71,2.78a17.55,17.55,0,0,0,6.13-1.2c-4.55,9.16-10.12,21.08-11.05,26.12A.52.52,0,0,1,285.29,282.77Zm6.19,45.64-.33-25.33.26-19.51c1-4.88,7.56-18.56,12.46-28.27.94,9.61,3.4,21.71,7.76,30.92a84.48,84.48,0,0,0,8.75,13.88A114.19,114.19,0,0,1,291.48,328.41ZM324,294.64a71.75,71.75,0,0,1-6.82-11.05c-6.19-13.07-8.49-34.36-7.38-40.92,0-.13,0-.26,0-.4l.23-6.07a42.94,42.94,0,0,0,9.47,5.52c4,1.88,7.78,3.66,10.95,7,2.79,2.94,4.46,10.51,6,18.46A112.24,112.24,0,0,1,324,294.64Zm11.68-49.3c-1.91-16-10.19-34.68-16.54-41-9.1-9-20.58-10.91-24.21-11.31-.09-.05-.17-.12-.26-.16l-25.25-12.63-.3-.13-3.86-1.44a24.56,24.56,0,0,1-.08-6.38c.35-4.69.41-8.18.4-10.07a48.76,48.76,0,0,0,15.72-27.35,113.14,113.14,0,0,1,58.32,118.67A25.35,25.35,0,0,0,335.69,245.34Z"/></g></svg>