<svg xmlns="http://www.w3.org/2000/svg" viewBox="0 0 865.48 658.37"><defs><style>.cls-1{fill:none;}.cls-2{fill:#155257;}.cls-3{fill:#e6f5f0;}.cls-4{fill:#83c8c0;}.cls-5{fill:#bee1dc;}.cls-6{fill:#3caaaa;}</style></defs><g id="Layer_7" data-name="Layer 7"><path class="cls-1" d="M465.76,158.25l-.59,20s-.68,0-1.73-.06l2.75,1.29,19.43,6.6s12.1,6,17.53,7.65,16.47,5.69,20.26,12.51a104.64,104.64,0,0,1,8.27,18.7c.46,1.51.93,3.36,1.37,5.28a80,80,0,0,1,2.61,12.62c.84,2.11,4.19,10.66,6.79,19.1a116.25,116.25,0,0,0-61-132.41c-.37,2.19-1,5.22-2,9.33C476.71,149.94,465.76,158.25,465.76,158.25Z"/><path class="cls-1" d="M504.68,247.66a22.14,22.14,0,0,0,2.49-4.16A18.26,18.26,0,0,0,504.68,247.66Z"/><path class="cls-1" d="M445.26,169.64l3.7,1.74a52.75,52.75,0,0,1-3.7-5.44l.05-47.47q-1.23-.16-2.46-.3L445,312Z"/><path class="cls-1" d="M287.67,189,302,198.85l13.27,20.85,12.6-10.15,7.56,10.9L315.29,251l-18.5-2.85Z"/><path class="cls-1" d="M513.6,274.21s-6.78-14.67-6-30.08a1.12,1.12,0,0,0-.1-.69l-.29,1.6s-14.17,29-15.57,36.94c-.31,1.73-.54,3.74-.72,5.94-.11,7.84-.24,18.64-.24,22.95,0,1.38,0,3.51.05,6.08.21,5.92.51,11.27.74,15.05a116.6,116.6,0,0,0,35.2-34.35,37.72,37.72,0,0,0-3.73-7.49C521.83,288.68,513.6,274.21,513.6,274.21Z"/><path class="cls-2" d="M335.42,220.45l-7.56-10.9-12.6,10.15L302,198.85,287.67,189l9.12,59.17,18.5,2.85Zm-34.64,22.71-7.09-45.28,1.74,1.18,18.41,28.58,14.44-11.51,1.61,2.29-17.66,26.5Z"/><polygon class="cls-3" points="328.28 216.13 313.84 227.64 295.43 199.06 293.69 197.88 300.78 243.16 312.23 244.91 329.89 218.42 328.28 216.13"/><path class="cls-4" d="M449,171.38l14.48,6.81c1.05.06,1.73.06,1.73.06l.59-20s10.95-8.31,13.69-19.39c1-4.11,1.63-7.14,2-9.33a115.13,115.13,0,0,0-36.14-11.06l-.05,47.47A52.75,52.75,0,0,0,449,171.38Z"/><path class="cls-5" d="M535.66,242.84c0,.27.07.55.1.82-8.27-8.76-20-7.89-25.41-18.83l-.1,2.58c-.46,6.66-3,24-17.07,24.29-17.42.37-20.54-4.75-20.54-4.75a292.07,292.07,0,0,0,10.64-29.35c5-16.49,13.38-24.51,13.38-24.51s13.34.67,23.34,10.53c4.09,4,9.66,14.82,13,26.6-.44-1.92-.91-3.77-1.37-5.28a104.64,104.64,0,0,0-8.27-18.7c-3.79-6.82-14.83-10.87-20.26-12.51s-17.53-7.65-17.53-7.65l-19.43-6.6-2.75-1.29a29.15,29.15,0,0,1-8.89-1.74c-1.88-.79-3.91-2.93-5.59-5.07l-3.7-1.74L445,312l.22,20.25V299.63s17.6,10,22.14,14.45c6.68,6.54,5.94,22.9,5.6,27.36.84-.33,1.66-.67,2.49-1,.34-4.8.94-20.7-5.63-27.12-4.54-4.45-22.13-14.45-22.13-14.45s3.6-20.85,8.79-25.67,16.49-24.55,16.49-24.55,3.12,5.12,20.54,4.75a13.94,13.94,0,0,0,11.2-5.72,18.26,18.26,0,0,1,2.49-4.16c.2-.43.39-.87.57-1.31l-.23,1.25a1.12,1.12,0,0,1,.1.69c-.79,15.41,6,30.08,6,30.08s8.23,14.47,9.35,16a37.72,37.72,0,0,1,3.73,7.49,115.41,115.41,0,0,0,15.77-35.71C539.85,253.5,536.5,245,535.66,242.84Z"/><path class="cls-5" d="M490.74,317c0-2.57-.05-4.7-.05-6.08,0-4.31.13-15.11.24-22.95A270.36,270.36,0,0,0,490.74,317Z"/><path class="cls-5" d="M454.55,176.45a29.15,29.15,0,0,0,8.89,1.74L449,171.38C450.64,173.52,452.67,175.66,454.55,176.45Z"/><path class="cls-6" d="M491,332.29l.46-.29c-.23-3.78-.53-9.13-.74-15.05C490.79,321.33,490.89,327,491,332.29Z"/><path class="cls-6" d="M490.93,287.92c.18-2.2.41-4.21.72-5.94,1.4-7.9,15.57-36.94,15.57-36.94l.29-1.6c-.07-.09-.19-.07-.34.06a22.14,22.14,0,0,1-2.49,4.16c-4.76,9.45-13.63,31.31-13.63,31.31S491,282.83,490.93,287.92Z"/><path class="cls-6" d="M490.74,317a270.36,270.36,0,0,1,.19-29c.06-5.09.12-8.95.12-8.95s8.87-21.86,13.63-31.31a13.94,13.94,0,0,1-11.2,5.72c-17.42.37-20.54-4.75-20.54-4.75s-11.3,19.73-16.49,24.55-8.79,25.67-8.79,25.67,17.59,10,22.13,14.45c6.57,6.42,6,22.32,5.63,27.12a116.52,116.52,0,0,0,15.6-8.13C490.89,327,490.79,321.33,490.74,317Z"/><path class="cls-6" d="M507.51,243.44l.23-1.25c-.18.44-.37.88-.57,1.31C507.32,243.37,507.44,243.35,507.51,243.44Z"/><path class="cls-4" d="M472.93,341.44c.34-4.46,1.08-20.82-5.6-27.36-4.54-4.45-22.14-14.45-22.14-14.45V332.2l.18,16.48A115.29,115.29,0,0,0,472.93,341.44Z"/><path class="cls-6" d="M535.46,242.34l.2.5a80,80,0,0,0-2.61-12.62C534.37,236,535.46,242.34,535.46,242.34Z"/><path class="cls-6" d="M533.05,230.22c-3.39-11.78-9-22.57-13-26.6-10-9.86-23.34-10.53-23.34-10.53a245.12,245.12,0,0,0,13.69,31.74c5.37,10.94,17.14,10.07,25.41,18.83,0-.27-.07-.55-.1-.82l-.2-.5S534.37,236,533.05,230.22Z"/><path class="cls-4" d="M483.28,217.6A292.07,292.07,0,0,1,472.64,247s3.12,5.12,20.54,4.75c14.07-.3,16.61-17.63,17.07-24.29l.1-2.58a245.12,245.12,0,0,1-13.69-31.74S488.29,201.11,483.28,217.6Z"/><path class="cls-3" d="M444.89,348.75,445,312l-2.12-193.78a117,117,0,0,0-13.05-.74A164.18,164.18,0,0,0,408.23,119c.11,10.63,2.74,22.29,8.91,29.07,10.94,12,10.68,17.17,10.68,17.17l-3.34,14.29-19.64,9.26s-12.11,6-17.53,7.66-14.23,6.74-18,13.56-5.26,14.59-6.82,19.64c-1.84,6-5.6,16.29-5.6,16.29s-6.17,17.94-8.55,29.28c-2.07,9.92-4.88,1.57-4.88,1.57S332.5,269,326.2,264.43c-13.54-9.85-20.92-2.47-20.92-2.47L318,279.51s33.07,31.52,36.51,29.23c3.7-2.46,9.52-11.34,13-15.92,1.12-1.48,9.35-15.95,9.35-15.95l9.32-34.61,13.23,39.38s.36,24.78.36,31.9c0,5.52-.28,23.26-.7,32.44a141.21,141.21,0,0,0,30.73,3.74A117.33,117.33,0,0,0,444.89,348.75Z"/><path class="cls-3" d="M445.19,348.71V332.2L445,312l-.08,36.8Z"/><path class="cls-3" d="M445.37,348.68l-.18-16.48v16.51Z"/><path class="cls-2" d="M430.77,106.22a130.94,130.94,0,0,0-70,20.92c-18.68,12-33.08,28.05-42.23,46.82a10.44,10.44,0,0,0-1,20.06,10.27,10.27,0,0,0,3.39.57,10.47,10.47,0,0,0,9.39-15.07l-.12-.22c11.09-19.13,24.93-33.84,41.28-43.8A106.17,106.17,0,0,1,406,122.18l.08,1.95a10.43,10.43,0,0,0,.1,19.71,10.57,10.57,0,0,0,3.39.56,10,10,0,0,0,2.26-.26l10.37,16-.08,7.92a10.46,10.46,0,0,0-7.68,6.8,10.35,10.35,0,0,0-.28,5.75l-35.73,17.06A10.46,10.46,0,1,0,364.64,213l-12.21,34.38-5.59,18.87a10,10,0,0,0-2.25-.26,10.47,10.47,0,0,0-6.3,2.13l-22.84-13.25a10.33,10.33,0,0,0,.1-4.25L331.11,227a10.44,10.44,0,0,0,2.69-20.3,10.63,10.63,0,0,0-3.39-.57,10.48,10.48,0,0,0-9.9,7.08,10.67,10.67,0,0,0-.53,2.7l-4.72,3.8L303.1,200.6a10.28,10.28,0,0,0,1.5-5.14,10.45,10.45,0,0,0-10.26-10.66h-.2a10.51,10.51,0,0,0-10.46,10.26,10.39,10.39,0,0,0,2.92,7.45,10.52,10.52,0,0,0,3.53,2.41l6.44,41.79a10.35,10.35,0,0,0,5.3,15.67,8.47,8.47,0,0,0,.86.25l18.93,24.07s13.91,13.67,24.33,20.87a10.46,10.46,0,0,0,19.87-6.42c2.79-4.31,7.24-10.9,10.44-15.58,0,0,6.63-19.56,10.31-33.48,4.07,11.48,8.47,24.36,9.58,29.23a10.42,10.42,0,0,0-7.09,14.78,10.34,10.34,0,0,0,6,5.29,10.67,10.67,0,0,0,1.45.38l-2.86,31.78a10.43,10.43,0,0,0-8.75,15,10.26,10.26,0,0,0,4.13,4.44v.1l.51.17a11.23,11.23,0,0,0,1.38.59,10.66,10.66,0,0,0,2.37.51,143.82,143.82,0,0,0,37.45,5.25,126.7,126.7,0,1,0,0-253.4Zm-13.59,34.86a10.56,10.56,0,0,0,2.29-3.75A10.48,10.48,0,0,0,413,124c-.24-.08-.48-.15-.73-.21l-.12-2.73a127.46,127.46,0,0,1,18.66-1.34c3.63,0,7.23.18,10.78.51l.12,46.2-9.38,5a10.33,10.33,0,0,0-3.87-2.84l-.1-9.55-.49-1.57ZM356.87,245.89l0,.09ZM299,204.53l14.89,23.11,7.46-5.94a10.45,10.45,0,0,0,3.8,3.9l-12.78,19.17a10.23,10.23,0,0,0-3.67-2.18,10.33,10.33,0,0,0-7.88.46l-5.86-37.37A10.42,10.42,0,0,0,299,204.53Zm87.23,22.34a10.46,10.46,0,0,0-4.62,19.84c-2.13,8.73-6.51,22.57-11,35.17-1.22,1.79-5.55,8.12-8.94,13.29a10,10,0,0,0-2.49-1.25,10.27,10.27,0,0,0-3.39-.57,10.45,10.45,0,0,0-9.74,6.72,232.92,232.92,0,0,1-19.71-17.43L310,261.78a10.27,10.27,0,0,0,2.3-1.62l22.33,12.95a10.47,10.47,0,0,0,6.53,13.21,10.36,10.36,0,0,0,3.39.57,10.47,10.47,0,0,0,9.4-15.07,11.17,11.17,0,0,0-1.66-2.44l.07-.27,5.86-19.78,12.36-34.8a10.36,10.36,0,0,0,6-2.22l32.42,16.21a10.46,10.46,0,1,0,13.76-8.47,10.61,10.61,0,0,0-3.39-.56,10.45,10.45,0,0,0-7.74,3.46l-31.52-15.76a10.31,10.31,0,0,0,.46-3.81l36.27-17.79a10.47,10.47,0,0,0,7.45,3.13,10.44,10.44,0,0,0,10.36-11.86l7-3.43L442,292.48l-46.7-50a10,10,0,0,0,.79-1.72,10.46,10.46,0,0,0-6.51-13.29A10.27,10.27,0,0,0,386.18,226.87ZM399.74,335l3-33.31c0-.11,0-.21,0-.32V301a10.43,10.43,0,0,0-.25-19.19v-.24a4.21,4.21,0,0,0,0-.5c-.89-5-6.6-21.47-11-33.73l47.63,51-38.43,37.23C400.36,335.41,400.06,335.2,399.74,335Zm31,11.07a161.73,161.73,0,0,1-26-1.73,10.26,10.26,0,0,0-.52-3.64L442,304.13l.11,41.38A112.36,112.36,0,0,1,430.77,346.08ZM447.7,121a112.48,112.48,0,0,1,30.59,9.21c-2.88,17.39-14.32,25.85-14.86,26.24a3.09,3.09,0,0,0-1.29,2.62s.14,4.23-.37,11a41.39,41.39,0,0,0-.1,5.68c-7.13-2-12.95-5-13.86-12.39Zm.14,54.73c5.1,4.37,12.15,6,16.78,7.08,1.91.44,4.58,1.09,4.58,1.09l.34.13,22,11A69.05,69.05,0,0,0,480,217.85a296.14,296.14,0,0,1-10.35,28.63,3.62,3.62,0,0,0-.35,1,73.33,73.33,0,0,1-6,16.74,22.48,22.48,0,0,1-3.88,5.5,10.14,10.14,0,0,1-1.66,1.35c-3.72,2.25-7.16,9.55-9.7,16.36ZM507,226.67l-.07,1.58c-.4,5.89-2.55,21.27-14.06,21.51-10.09.22-14.79-1.48-16.75-2.58,1.81-4.33,6-14.8,9.86-27.54a65.2,65.2,0,0,1,9.36-19.31A247.57,247.57,0,0,0,507,226.67ZM501,198.12A35.31,35.31,0,0,1,517.55,207c4.06,4,10.65,17.15,13.61,30.59-2.13-1.26-4.26-2.27-6.27-3.22-5-2.37-9.42-4.43-12-9.64l-.1-.19A243.13,243.13,0,0,1,501,198.12ZM471.86,338.34a112.24,112.24,0,0,1-23.58,6.38l-.1-39.61c5.87,3.43,15.89,9.54,18.86,12.45C471.71,322.13,472.18,332.5,471.86,338.34ZM488,281c-2.17,12.32-1,37.58-.26,49.71q-4.69,2.74-9.67,5c0-6.54-.92-16.85-6.73-22.54-3.89-3.81-15.71-10.84-20.69-13.73,2.94-10.22,7.49-21.41,10.36-23.15,7-4.26,11.31-16.42,13.21-23.14,3.39,1.56,9.12,3,18.72,2.78a17.33,17.33,0,0,0,6.13-1.21C494.53,263.88,489,275.8,488,280.83A.5.5,0,0,1,488,281Zm6.19,45.63-.33-25.32.26-19.51c1-4.88,7.56-18.56,12.46-28.28.94,9.61,3.4,21.72,7.76,30.93a83.94,83.94,0,0,0,8.75,13.87A113.86,113.86,0,0,1,494.2,326.58Zm32.53-33.76a71.86,71.86,0,0,1-6.82-11.06c-6.19-13.06-8.49-34.35-7.38-40.92,0-.13,0-.26,0-.39l.23-6.08a42.16,42.16,0,0,0,9.47,5.52c4,1.88,7.78,3.66,11,7,2.79,3,4.46,10.52,6,18.47A112.41,112.41,0,0,1,526.73,292.82Zm11.68-49.3c-1.91-16-10.19-34.69-16.54-41-9.1-9-20.58-10.91-24.21-11.31a1.83,1.83,0,0,0-.26-.16l-25.25-12.63-.3-.13L468,176.89a24.44,24.44,0,0,1-.08-6.37c.35-4.69.41-8.18.4-10.07A48.8,48.8,0,0,0,484,133.1a113.14,113.14,0,0,1,58.32,118.67A25.25,25.25,0,0,0,538.41,243.52Z"/><path class="cls-2" d="M104.22,518V413H123l36.75,64.43L196.25,413H215V518H199.7v-83.1l-32.85,57.9H152.37l-32.85-57.52V518Z"/><path class="cls-2" d="M242.67,551.26a33.59,33.59,0,0,1-6.08-.52v-13.5a27.58,27.58,0,0,0,4.2.37q7.88,0,12.83-4.46t8.7-13.09Q253.1,501.54,245,482.11T229.54,443h17.4q4.8,15.07,10.39,30.12t11.89,29.73L289.69,443H306l-29.32,77.33q-5.62,14.85-13.35,22.91T242.67,551.26Z"/><path class="cls-2" d="M347,519.76a37.73,37.73,0,0,1-19.83-5.06,34.09,34.09,0,0,1-13-14,47.39,47.39,0,0,1,0-40.61,34.17,34.17,0,0,1,13-13.91A37.74,37.74,0,0,1,347,441.16h1.65q11.48,0,19.88,5.07a34.25,34.25,0,0,1,13,13.91,47.3,47.3,0,0,1,0,40.61,34.17,34.17,0,0,1-13,14q-8.4,5.07-19.88,5.06Zm.08-13.95h1.5q10.28,0,16.12-6.9t5.85-18.45q0-11.62-5.85-18.48t-16.12-6.87h-1.5q-10.2,0-16.09,6.87t-5.89,18.48q0,11.55,5.89,18.45T347.07,505.81Z"/><path class="cls-2" d="M445.24,519.76q-14.78,0-25.65-5.28a48.42,48.42,0,0,1-18.15-15.27L413,488.71a41.33,41.33,0,0,0,14.36,12.38,39.47,39.47,0,0,0,17.82,4H447q11.77,0,17.78-4.05a12.84,12.84,0,0,0,6-11.25c0-3.7-1.07-6.57-3.19-8.62a20.85,20.85,0,0,0-7.69-4.65,65.66,65.66,0,0,0-8.55-2.4l-17-3.6a79.48,79.48,0,0,1-9.42-2.63,40.24,40.24,0,0,1-9.63-4.83,23.51,23.51,0,0,1-10.43-20.67A27.84,27.84,0,0,1,409.8,426a32.1,32.1,0,0,1,13.84-10.92,51.94,51.94,0,0,1,20.93-3.9h1.87q25.2,0,38.78,19.5l-11.4,9.45q-6.15-8.1-13-11.17a35.37,35.37,0,0,0-14.7-3.08h-1.87q-10.27,0-16.65,4.09t-6.38,11.14a10.48,10.48,0,0,0,2.48,7.31,16.06,16.06,0,0,0,6.63,4.24,70.65,70.65,0,0,0,9,2.55l17,3.6c2.35.5,5.23,1.27,8.66,2.32a42.62,42.62,0,0,1,10.2,4.77,26.69,26.69,0,0,1,8.47,8.66q3.42,5.47,3.42,14a28.16,28.16,0,0,1-4.95,16.73,31.39,31.39,0,0,1-14,10.72,54.74,54.74,0,0,1-21.15,3.75Z"/><path class="cls-2" d="M527.89,519.76q-13,0-19.8-8.77t-6.82-24.68V443h15v41.55q0,21.3,15.45,21.3h1.5a19,19,0,0,0,13-4.72,28.72,28.72,0,0,0,8-11.93V443h15v75h-15V505.44a31.62,31.62,0,0,1-10.32,10.5,26.73,26.73,0,0,1-14.36,3.82Z"/><path class="cls-2" d="M598.77,429.61a9.45,9.45,0,0,1-7.24-2.81,11,11,0,0,1,0-14.36,10.86,10.86,0,0,1,14.51,0,11.12,11.12,0,0,1,0,14.36A9.45,9.45,0,0,1,598.77,429.61ZM591.27,518V443h15v75Z"/><path class="cls-2" d="M662.06,518.94q-13.35,0-20.32-6.75t-7-20.78V456h-14.7V443h14.7V420.61h15V443H675V456H649.76v33.38q0,8.85,3.68,12.3t10.87,3.45a57.26,57.26,0,0,0,6.19-.3c1.83-.2,3.71-.45,5.66-.75v13.12a60.85,60.85,0,0,1-6.75,1.24A57.9,57.9,0,0,1,662.06,518.94Z"/><path class="cls-2" d="M723.64,519.76a35.74,35.74,0,0,1-18.94-5A33.83,33.83,0,0,1,692,501a48.51,48.51,0,0,1,0-41,34.05,34.05,0,0,1,12.67-13.88,35.57,35.57,0,0,1,18.94-5h1.65A31.13,31.13,0,0,1,742.58,446,32.23,32.23,0,0,1,754.24,460q4.2,9.12,4.2,21.94v4.57H703q1.35,9.23,6.94,14.52t14.59,5.28H726a25,25,0,0,0,10.35-2.21,24.36,24.36,0,0,0,8.32-6l9.23,9.75a37,37,0,0,1-12.56,8.7,40.14,40.14,0,0,1-16.09,3.22Zm-.45-65.1A18.34,18.34,0,0,0,709.8,460q-5.35,5.3-6.79,14.44h40.35a24.38,24.38,0,0,0-5.43-14q-4.77-5.7-13.24-5.7Z"/></g></svg>