<svg xmlns="http://www.w3.org/2000/svg" viewBox="0 0 462.51 464.78"><defs><style>.cls-1{fill:none;}.cls-2{fill:#f1f4f7;}.cls-3{fill:#cbd2d9;}.cls-4{fill:#dee3e9;}.cls-5{fill:#67788a;}</style></defs><g id="Layer_10" data-name="Layer 10"><path class="cls-1" d="M100.19,198l1.73,1.18,18.41,28.59,14.45-11.51,1.6,2.28L118.72,245l-11.44-1.75Z"/><path class="cls-1" d="M251.76,169.75l3.7,1.74a52,52,0,0,1-3.7-5.43l0-47.48c-.81-.11-1.63-.21-2.45-.3l2.12,193.78Z"/><path class="cls-1" d="M311.18,247.77a22,22,0,0,0,2.49-4.16A18.37,18.37,0,0,0,311.18,247.77Z"/><polygon class="cls-2" points="136.38 218.53 134.78 216.25 120.33 227.76 101.92 199.17 100.19 197.99 107.28 243.28 118.72 245.03 136.38 218.53"/><path class="cls-3" d="M255.46,171.49l14.48,6.81c1.05.07,1.73.07,1.73.07l.58-20s10.95-8.3,13.69-19.38c1-4.11,1.63-7.15,2-9.34a115.39,115.39,0,0,0-36.14-11.06l0,47.48A52,52,0,0,0,255.46,171.49Z"/><path class="cls-4" d="M276.29,313.41C271.75,309,254.15,299,254.15,299s3.61-20.85,8.8-25.66,16.49-24.56,16.49-24.56,3.12,5.13,20.54,4.76a14,14,0,0,0,11.2-5.73,18.37,18.37,0,0,1,2.49-4.16c.2-.43.39-.86.57-1.31l-.23,1.26a1.09,1.09,0,0,1,.09.68c-.78,15.41,6,30.08,6,30.08s8.22,14.47,9.34,15.95a38.07,38.07,0,0,1,3.74,7.5A115.7,115.7,0,0,0,349,262.05c-2.6-8.44-5.95-17-6.79-19.1l.09.83c-8.27-8.76-20-7.9-25.41-18.84l-.1,2.58c-.46,6.66-3,24-17.06,24.29-17.43.37-20.54-4.75-20.54-4.75a295.39,295.39,0,0,0,10.64-29.34c5-16.5,13.37-24.51,13.37-24.51s13.34.66,23.35,10.53c4.08,4,9.66,14.81,13.05,26.59-.44-1.92-.91-3.77-1.38-5.28a104.24,104.24,0,0,0-8.27-18.7c-3.78-6.81-14.83-10.86-20.25-12.5s-17.54-7.66-17.54-7.66l-19.42-6.59-2.75-1.3a29,29,0,0,1-8.9-1.74c-1.88-.79-3.9-2.93-5.58-5.07l-3.7-1.74-.29,142.31.22,20.25V299.74s17.6,10,22.14,14.45c6.68,6.55,5.94,22.9,5.6,27.37.83-.33,1.66-.68,2.48-1C282.26,335.73,282.85,319.84,276.29,313.41Z"/><path class="cls-4" d="M297.23,317.07c0-2.57-.05-4.71-.05-6.09,0-4.31.14-15.1.24-22.94A270.36,270.36,0,0,0,297.23,317.07Z"/><path class="cls-4" d="M261,176.56a29,29,0,0,0,8.9,1.74l-14.48-6.81C257.14,173.63,259.16,175.77,261,176.56Z"/><path class="cls-5" d="M313.67,243.61a22,22,0,0,1-2.49,4.16c-4.76,9.46-13.63,31.32-13.63,31.32s-.06,3.85-.13,9c.18-2.21.42-4.22.73-6,1.4-7.9,15.56-36.94,15.56-36.94l.3-1.59C313.93,243.46,313.82,243.48,313.67,243.61Z"/><path class="cls-5" d="M297.52,332.4l.46-.28c-.24-3.79-.53-9.14-.75-15.05C297.29,321.44,297.39,327.08,297.52,332.4Z"/><path class="cls-5" d="M297.42,288c.07-5.1.13-9,.13-9s8.87-21.86,13.63-31.32A14,14,0,0,1,300,253.5c-17.42.37-20.54-4.76-20.54-4.76S268.14,268.48,263,273.3s-8.8,25.66-8.8,25.66,17.6,10,22.14,14.45c6.56,6.43,6,22.32,5.62,27.12a115.48,115.48,0,0,0,15.61-8.13c-.13-5.32-.23-11-.29-15.33A270.36,270.36,0,0,1,297.42,288Z"/><path class="cls-5" d="M313.67,243.61c.15-.13.26-.15.34-.05l.23-1.26C314.06,242.75,313.87,243.18,313.67,243.61Z"/><path class="cls-3" d="M273.83,314.19c-4.54-4.44-22.14-14.45-22.14-14.45v32.57l.18,16.48a114.93,114.93,0,0,0,27.56-7.23C279.77,337.09,280.51,320.74,273.83,314.19Z"/><path class="cls-5" d="M342,242.45l.2.5a80,80,0,0,0-2.61-12.62C340.87,236.06,342,242.45,342,242.45Z"/><path class="cls-5" d="M339.55,230.33c-3.39-11.78-9-22.56-13.05-26.59-10-9.87-23.35-10.53-23.35-10.53a246.82,246.82,0,0,0,13.69,31.73c5.38,10.94,17.14,10.08,25.41,18.84l-.09-.83-.2-.5S340.87,236.06,339.55,230.33Z"/><path class="cls-3" d="M289.78,217.72a295.39,295.39,0,0,1-10.64,29.34s3.11,5.12,20.54,4.75c14.07-.3,16.6-17.63,17.06-24.29l.1-2.58a246.82,246.82,0,0,1-13.69-31.73S294.78,201.22,289.78,217.72Z"/><path class="cls-2" d="M249.35,118.28a117.27,117.27,0,0,0-13-.73,146.54,146.54,0,0,0-21.57,1.67c.13,10.59,2.76,22.17,8.91,28.92,10.94,12,10.67,17.16,10.67,17.16L231,179.59l-19.64,9.26s-12.11,6-17.54,7.66-14.23,6.74-18,13.56-5.27,14.59-6.82,19.64c-1.84,6-5.6,16.29-5.6,16.29s-6.18,17.95-8.55,29.28c-2.08,9.93-4.89,1.57-4.89,1.57S139,269.12,132.7,264.54c-13.54-9.85-20.93-2.46-20.93-2.46L121.62,283s35.95,28.15,39.39,25.85c3.69-2.46,9.51-11.33,13-15.91,1.13-1.48,9.35-15.95,9.35-15.95l9.33-34.62,13.22,39.38s.37,24.78.37,31.9c0,5.52-.28,23.24-.7,32.43a136.94,136.94,0,0,0,30.73,3.76,117.44,117.44,0,0,0,15.09-1l.08-36.8Z"/><path class="cls-2" d="M251.47,312.06l-.08,36.8.3,0V332.31Z"/><path class="cls-2" d="M251.69,348.82l.18,0-.18-16.48Z"/></g><g id="Layer_5" data-name="Layer 5"><path d="M237.64,105.28a131,131,0,0,0-70,20.93c-18.68,12-33.07,28-42.23,46.82a10.43,10.43,0,1,0,11.75,5.56l-.12-.22c11.09-19.13,24.93-33.84,41.28-43.8a105.94,105.94,0,0,1,34.51-13.32l.08,1.94a10.44,10.44,0,0,0,3.49,20.28,9.91,9.91,0,0,0,2.26-.26l10.37,16-.08,7.93a10.38,10.38,0,0,0-8,12.55l-35.73,17A10.46,10.46,0,1,0,171.51,212l-12.2,34.38-5.6,18.86a10.63,10.63,0,0,0-2.25-.25,10.47,10.47,0,0,0-6.3,2.13l-22.84-13.25a10.33,10.33,0,0,0,.1-4.25L138,226.06a10.42,10.42,0,0,0,8.69-15,10.49,10.49,0,0,0-9.39-5.86,10.47,10.47,0,0,0-9.9,7.07,10.76,10.76,0,0,0-.53,2.7l-4.72,3.81L110,199.67a10.45,10.45,0,0,0-8.77-15.81H101A10.46,10.46,0,0,0,97,204l6.44,41.8a10.34,10.34,0,0,0,5.3,15.66c.28.1.57.18.86.26l18.93,24.07s13.91,13.67,24.33,20.86a10.42,10.42,0,0,0,6.36,6.15,10.63,10.63,0,0,0,3.4.56,10.46,10.46,0,0,0,10.11-13.13c2.79-4.31,7.24-10.9,10.44-15.57,0,0,6.64-19.56,10.31-33.48,4.07,11.48,8.47,24.36,9.58,29.23A10.45,10.45,0,0,0,202,300.46a10.63,10.63,0,0,0,1.45.37l-2.86,31.79a10.44,10.44,0,0,0-4.62,19.45v.1l.52.16a9.27,9.27,0,0,0,1.37.59,10.26,10.26,0,0,0,2.37.52,143.82,143.82,0,0,0,37.45,5.25,126.71,126.71,0,0,0,0-253.41Zm-13.59,34.87a10.44,10.44,0,0,0-4.22-17l-.73-.22-.12-2.73a129.07,129.07,0,0,1,18.66-1.34c3.64,0,7.23.18,10.78.52l.12,46.2-9.38,5a10.2,10.2,0,0,0-3.87-2.83l-.1-9.55-.49-1.58ZM163.74,245l0,.09Zm-57.92-41.36,14.89,23.12,7.46-6a10.47,10.47,0,0,0,3.8,3.91L119.2,243.84a10.39,10.39,0,0,0-3.68-2.19,10.57,10.57,0,0,0-3.39-.56,10.34,10.34,0,0,0-4.49,1l-5.86-37.38A10.09,10.09,0,0,0,105.82,203.59Zm87.23,22.35a10.46,10.46,0,0,0-4.62,19.84c-2.13,8.73-6.51,22.57-11,35.16-1.22,1.79-5.55,8.12-8.94,13.29A10.89,10.89,0,0,0,166,293a10.61,10.61,0,0,0-3.39-.56,10.46,10.46,0,0,0-9.75,6.71,236.23,236.23,0,0,1-19.71-17.42l-16.25-20.86a10.61,10.61,0,0,0,2.31-1.63l22.32,12.95a10.49,10.49,0,0,0,6.53,13.22,10.61,10.61,0,0,0,3.39.56,10.46,10.46,0,0,0,9.4-15.06,10.61,10.61,0,0,0-1.66-2.44l.07-.27,5.86-19.78,12.36-34.8a10.44,10.44,0,0,0,6-2.23l32.42,16.21a10.47,10.47,0,0,0,1,6,10.46,10.46,0,1,0,12.79-14.5,10.63,10.63,0,0,0-3.39-.57,10.43,10.43,0,0,0-7.74,3.47L187,206.26a10.55,10.55,0,0,0,.45-3.81l36.27-17.79a10.46,10.46,0,0,0,17.35-3.95,10.43,10.43,0,0,0,.46-4.79l7-3.42.3,119.05-46.7-50a10.43,10.43,0,0,0-5.72-15A10.27,10.27,0,0,0,193.05,225.94Zm13.56,108.13,3-33.31c0-.1,0-.21,0-.31v-.36a10.42,10.42,0,0,0-.25-19.18v-.25a2.7,2.7,0,0,0,0-.49c-.89-5-6.6-21.47-11-33.73l47.63,51L207.53,334.7A10,10,0,0,0,206.61,334.07Zm31,11.08a160.46,160.46,0,0,1-26-1.74,10.5,10.5,0,0,0-.53-3.64l37.75-36.58.11,41.39C245.26,345,241.47,345.15,237.64,345.15Zm16.93-225.06a112,112,0,0,1,30.59,9.21c-2.88,17.38-14.31,25.85-14.86,26.23a3.09,3.09,0,0,0-1.29,2.63s.14,4.23-.37,11a41.39,41.39,0,0,0-.1,5.68c-7.13-2-13-5.05-13.86-12.39Zm.15,54.73c5.09,4.37,12.14,6,16.77,7.08,1.92.44,4.58,1.09,4.58,1.09l.34.12,22,11a69.33,69.33,0,0,0-11.52,22.8,298.39,298.39,0,0,1-10.35,28.63,3.62,3.62,0,0,0-.35.95,73.66,73.66,0,0,1-6,16.73,22.82,22.82,0,0,1-3.88,5.5,10.09,10.09,0,0,1-1.67,1.35c-3.72,2.26-7.16,9.56-9.7,16.37Zm59.1,50.91-.07,1.59c-.4,5.88-2.55,21.26-14.06,21.51-10.09.22-14.79-1.49-16.75-2.58,1.81-4.34,6-14.8,9.86-27.55a64.84,64.84,0,0,1,9.37-19.3A245.08,245.08,0,0,0,313.82,225.73Zm-5.91-28.55A35.43,35.43,0,0,1,324.42,206c4.07,4,10.65,17.15,13.61,30.59a68.06,68.06,0,0,0-6.27-3.22c-5.05-2.38-9.42-4.43-12-9.64a1.86,1.86,0,0,0-.1-.2A243.13,243.13,0,0,1,307.91,197.18ZM278.73,337.41a112.85,112.85,0,0,1-23.58,6.38l-.1-39.62c5.87,3.44,15.89,9.54,18.86,12.45C278.58,321.2,279.05,331.56,278.73,337.41ZM294.88,280c-2.17,12.31-1,37.58-.26,49.7q-4.69,2.75-9.67,5c0-6.54-.92-16.85-6.73-22.54-3.89-3.81-15.71-10.84-20.69-13.73,2.94-10.23,7.49-21.42,10.36-23.15,7-4.26,11.31-16.42,13.22-23.14,3.38,1.55,9.12,3,18.71,2.77a17.55,17.55,0,0,0,6.13-1.2c-4.55,9.17-10.12,21.08-11,26.12Zm6.19,45.63-.33-25.32.26-19.52c1-4.87,7.56-18.56,12.46-28.27.94,9.61,3.4,21.71,7.76,30.92A84.29,84.29,0,0,0,330,297.34,114.19,114.19,0,0,1,301.07,325.65Zm32.53-33.76a71.86,71.86,0,0,1-6.82-11.06c-6.19-13.07-8.49-34.36-7.38-40.92,0-.13,0-.26,0-.39l.23-6.08a42.39,42.39,0,0,0,9.47,5.52c4,1.88,7.78,3.66,11,7,2.78,3,4.45,10.51,5.95,18.47A112.58,112.58,0,0,1,333.6,291.89Zm11.68-49.3c-1.9-16-10.19-34.69-16.54-41-9.1-9-20.58-10.91-24.21-11.32l-.26-.16L279,177.54l-.3-.13L274.86,176a24.53,24.53,0,0,1-.08-6.38c.35-4.69.41-8.18.4-10.06a48.78,48.78,0,0,0,15.72-27.35,113.12,113.12,0,0,1,58.32,118.66A25.19,25.19,0,0,0,345.28,242.59Z"/></g></svg>