<svg xmlns="http://www.w3.org/2000/svg" viewBox="0 0 867.16 658.37"><defs><style>.cls-1{fill:none;}.cls-2{fill:#f1f4f7;}.cls-3{fill:#cbd2d9;}.cls-4{fill:#dee3e9;}.cls-5{fill:#67788a;}.cls-6{fill:#3caaaa;}.cls-7{fill:#e6f5f0;}</style></defs><g id="Layer_10" data-name="Layer 10"><path d="M105.62,519.59v-105h18.75L161.12,479l36.52-64.42h18.75v105h-15.3v-83.1l-32.85,57.9H153.77l-32.85-57.53v82.73Z"/><path d="M244.07,552.89a33.57,33.57,0,0,1-6.08-.53v-13.5a27.72,27.72,0,0,0,4.2.38q7.88,0,12.83-4.46t8.7-13.09q-9.23-18.53-17.33-38t-15.45-39.15h17.4q4.8,15.07,10.39,30.11t11.89,29.74l20.47-59.85h16.35l-29.32,77.32q-5.62,14.85-13.35,22.92T244.07,552.89Z"/><path d="M348.39,521.39a37.89,37.89,0,0,1-19.84-5.06,34.26,34.26,0,0,1-13-14,47.42,47.42,0,0,1,0-40.62,34.28,34.28,0,0,1,13-13.91,37.89,37.89,0,0,1,19.84-5.06H350q11.47,0,19.88,5.06a34.32,34.32,0,0,1,13,13.91,47.32,47.32,0,0,1,0,40.62,34.3,34.3,0,0,1-13,14q-8.4,5.05-19.88,5.06Zm.08-13.95H350q10.27,0,16.12-6.9t5.85-18.45q0-11.62-5.85-18.49T350,456.74h-1.5q-10.2,0-16.09,6.86t-5.89,18.49q0,11.55,5.89,18.45T348.47,507.44Z"/><path d="M446.64,521.39q-14.77,0-25.65-5.29a48.31,48.31,0,0,1-18.15-15.26l11.55-10.5a41.29,41.29,0,0,0,14.36,12.37,39.43,39.43,0,0,0,17.81,4h1.88q11.78,0,17.77-4.05a12.84,12.84,0,0,0,6-11.25q0-5.55-3.18-8.63a20.85,20.85,0,0,0-7.69-4.65,65.66,65.66,0,0,0-8.55-2.4l-17-3.6a79.19,79.19,0,0,1-9.41-2.62,40,40,0,0,1-9.64-4.84A23.47,23.47,0,0,1,406.29,444a27.89,27.89,0,0,1,4.91-16.39A32.15,32.15,0,0,1,425,416.69a51.89,51.89,0,0,1,20.92-3.9h1.88q25.2,0,38.77,19.5l-11.4,9.45q-6.15-8.1-13-11.18a35.36,35.36,0,0,0-14.7-3.07h-1.88q-10.28,0-16.65,4.09t-6.37,11.13a10.52,10.52,0,0,0,2.47,7.32,16.18,16.18,0,0,0,6.64,4.23,70.65,70.65,0,0,0,9,2.55l17,3.6q3.53.75,8.67,2.33a43,43,0,0,1,10.2,4.76,26.79,26.79,0,0,1,8.47,8.66q3.42,5.47,3.41,14a28.13,28.13,0,0,1-4.95,16.72,31.41,31.41,0,0,1-13.95,10.73,54.74,54.74,0,0,1-21.15,3.75Z"/><path d="M529.29,521.39q-13,0-19.8-8.78t-6.83-24.67V444.59h15v41.55q0,21.3,15.45,21.3h1.5a19,19,0,0,0,13-4.73,28.67,28.67,0,0,0,8-11.92v-46.2h15v75h-15V507.06a31.59,31.59,0,0,1-10.31,10.5,26.73,26.73,0,0,1-14.36,3.83Z"/><path d="M600.16,431.24a9.48,9.48,0,0,1-7.23-2.81,11,11,0,0,1,0-14.37,10.89,10.89,0,0,1,14.51,0,11.16,11.16,0,0,1,0,14.37A9.49,9.49,0,0,1,600.16,431.24Zm-7.5,88.35v-75h15v75Z"/><path d="M663.46,520.56q-13.35,0-20.32-6.75t-7-20.77v-35.4h-14.7V444.59h14.7V422.24h15v22.35h25.28v13.05H651.16V491q0,8.85,3.68,12.3t10.87,3.45a57.4,57.4,0,0,0,6.19-.3q2.73-.3,5.66-.75v13.13a60.85,60.85,0,0,1-6.75,1.24A57.86,57.86,0,0,1,663.46,520.56Z"/><path d="M725,521.39a35.71,35.71,0,0,1-18.94-4.95,33.86,33.86,0,0,1-12.68-13.8,48.63,48.63,0,0,1,0-41,34,34,0,0,1,12.68-13.87,35.46,35.46,0,0,1,18.94-5h1.65A31,31,0,0,1,744,447.63a32.06,32.06,0,0,1,11.67,13.95q4.2,9.1,4.2,21.93v4.58H704.41q1.35,9.23,6.94,14.51t14.59,5.29h1.5a25.17,25.17,0,0,0,10.35-2.21,24.52,24.52,0,0,0,8.32-6l9.23,9.75a36.91,36.91,0,0,1-12.57,8.7,40.06,40.06,0,0,1-16.08,3.23Zm-.45-65.1a18.28,18.28,0,0,0-13.39,5.29q-5.37,5.28-6.79,14.43h40.35a24.29,24.29,0,0,0-5.44-14q-4.76-5.7-13.23-5.7Z"/></g><g id="Layer_7" data-name="Layer 7"><path class="cls-1" d="M485.89,159.6l-.59,20s-.67,0-1.73-.06l2.75,1.29,19.43,6.59s12.11,6,17.53,7.66,16.48,5.69,20.26,12.51a104.59,104.59,0,0,1,8.27,18.69c.46,1.51.93,3.36,1.37,5.28a80,80,0,0,1,2.61,12.62c.84,2.11,4.19,10.67,6.79,19.11a116.27,116.27,0,0,0-61-132.42c-.37,2.2-1,5.23-2,9.34C496.84,151.3,485.89,159.6,485.89,159.6Z"/><path class="cls-1" d="M524.81,249a21.75,21.75,0,0,0,2.49-4.15A18.35,18.35,0,0,0,524.81,249Z"/><path class="cls-1" d="M465.4,171l3.69,1.74a52.86,52.86,0,0,1-3.69-5.43l0-47.48c-.82-.11-1.64-.2-2.46-.3L465.1,313.3Z"/><path class="cls-1" d="M307.81,190.33l14.31,9.88,13.27,20.85L348,210.9l7.56,10.91-20.13,30.53-18.5-2.85Z"/><path d="M355.55,221.81,348,210.9l-12.6,10.16-13.27-20.85-14.31-9.88,9.11,59.16,18.5,2.85Zm-34.63,22.71-7.1-45.29,1.74,1.19L334,229l14.44-11.51,1.61,2.29-17.66,26.49Z"/><polygon class="cls-2" points="348.41 217.49 333.97 229 315.56 200.41 313.82 199.23 320.92 244.52 332.36 246.27 350.02 219.78 348.41 217.49"/><path class="cls-3" d="M469.09,172.73l14.48,6.82c1.06.06,1.73.06,1.73.06l.59-20s10.95-8.3,13.69-19.38c1-4.11,1.63-7.14,2-9.34a115.39,115.39,0,0,0-36.14-11.06l0,47.48A52.86,52.86,0,0,0,469.09,172.73Z"/><path class="cls-4" d="M555.79,244.19c0,.28.07.55.1.83-8.27-8.76-20-7.9-25.41-18.84l-.1,2.58c-.46,6.66-3,24-17.07,24.3-17.42.37-20.54-4.76-20.54-4.76A291.26,291.26,0,0,0,503.41,219c5-16.5,13.38-24.51,13.38-24.51s13.34.66,23.34,10.53c4.09,4,9.66,14.81,13,26.59-.44-1.92-.91-3.77-1.37-5.28a104.59,104.59,0,0,0-8.27-18.69c-3.78-6.82-14.83-10.87-20.26-12.51s-17.53-7.66-17.53-7.66l-19.43-6.59-2.75-1.29a29.46,29.46,0,0,1-8.89-1.74c-1.88-.8-3.91-2.94-5.59-5.08L465.4,171l-.3,142.31.22,20.26V301s17.6,10,22.14,14.45c6.69,6.55,6,22.9,5.61,27.37.83-.33,1.66-.67,2.48-1,.34-4.8.94-20.69-5.63-27.12-4.54-4.44-22.13-14.45-22.13-14.45s4.89-17.78,10.08-22.6S493.07,250,493.07,250s3.12,5.12,20.54,4.75a14,14,0,0,0,11.2-5.73,18.35,18.35,0,0,1,2.49-4.15c.2-.44.4-.87.57-1.31l-.23,1.25a1.07,1.07,0,0,1,.1.68c-.78,15.42,6,30.08,6,30.08S542,290,543.08,291.51a38.14,38.14,0,0,1,3.73,7.5,115.51,115.51,0,0,0,15.77-35.71C560,254.86,556.63,246.3,555.79,244.19Z"/><path class="cls-5" d="M510.87,318.31a270.36,270.36,0,0,1,.19-29c.07-5.1.12-8.95.12-8.95s8.87-21.86,13.63-31.32a14,14,0,0,1-11.2,5.73c-17.42.37-20.54-4.75-20.54-4.75s-10,22.8-15.2,27.61-10.08,22.6-10.08,22.6,17.59,10,22.13,14.45c6.57,6.43,6,22.32,5.63,27.12a114.78,114.78,0,0,0,15.6-8.13Z"/><path class="cls-3" d="M493.07,342.8c.34-4.47,1.08-20.82-5.61-27.37C482.92,311,465.32,301,465.32,301v32.58L465.5,350A115.49,115.49,0,0,0,493.07,342.8Z"/><path class="cls-6" d="M555.59,243.69l.2.5a80,80,0,0,0-2.61-12.62C554.5,237.3,555.59,243.69,555.59,243.69Z"/><path class="cls-5" d="M553.18,231.57c-3.39-11.78-9-22.56-13-26.59-10-9.87-23.34-10.53-23.34-10.53a246.18,246.18,0,0,0,13.69,31.73c5.37,10.94,17.14,10.08,25.41,18.84,0-.28-.07-.55-.1-.83l-.2-.5S554.5,237.3,553.18,231.57Z"/><path class="cls-3" d="M503.41,219a291.26,291.26,0,0,1-10.64,29.34s3.12,5.13,20.54,4.76c14.07-.3,16.61-17.64,17.07-24.3l.1-2.58a246.18,246.18,0,0,1-13.69-31.73S508.42,202.46,503.41,219Z"/><path class="cls-2" d="M465,350.1l.07-36.8L463,119.52a117,117,0,0,0-13-.73,164.21,164.21,0,0,0-21.58,1.52c.11,10.63,2.74,22.29,8.91,29.07,10.94,12,10.68,17.16,10.68,17.16l-3.34,14.29L425,190.1s-12.11,6-17.53,7.65-14.23,6.75-18,13.56-5.26,14.6-6.81,19.64c-1.85,6-5.61,16.29-5.61,16.29s-6.17,17.95-8.55,29.29c-2.07,9.92-4.88,1.56-4.88,1.56s-10.94-7.73-17.24-12.31c-13.54-9.85-20.92-2.46-20.92-2.46l12.72,17.55s33.07,31.52,36.51,29.22c3.7-2.46,9.52-11.33,13-15.91,1.12-1.48,9.35-15.95,9.35-15.95l9.32-34.61L419.54,283s.36,24.77.36,31.89c0,5.52-.28,23.27-.7,32.45a141.23,141.23,0,0,0,30.74,3.74A117.44,117.44,0,0,0,465,350.1Z"/><path class="cls-7" d="M465.32,350.06v-16.5l-.22-20.26L465,350.1Z"/><path class="cls-7" d="M465.5,350l-.18-16.48v16.5Z"/></g><g id="Layer_5" data-name="Layer 5"><path d="M450.63,108.13a131,131,0,0,0-70,20.92c-18.68,12-33.07,28-42.23,46.82a10.44,10.44,0,0,0-1,20.06,10.48,10.48,0,0,0,13.29-6.51,10.41,10.41,0,0,0-.51-8,1.55,1.55,0,0,0-.12-.22c11.09-19.13,24.93-33.84,41.28-43.8a105.94,105.94,0,0,1,34.51-13.32l.09,2a10.43,10.43,0,0,0,.09,19.71,10.61,10.61,0,0,0,3.39.56,9.91,9.91,0,0,0,2.26-.26l10.37,16L442,170a10.41,10.41,0,0,0-8,12.55l-35.73,17a10.46,10.46,0,1,0-13.78,15.31L372.3,249.26l-5.6,18.86a10.63,10.63,0,0,0-2.25-.25,10.42,10.42,0,0,0-6.29,2.13l-22.85-13.25a10.33,10.33,0,0,0,.1-4.25L351,228.9a10.44,10.44,0,0,0,2.69-20.3,10.31,10.31,0,0,0-3.39-.57,10.48,10.48,0,0,0-9.9,7.08,10.67,10.67,0,0,0-.53,2.7l-4.72,3.8L323,202.51a10.44,10.44,0,0,0-8.77-15.8H314A10.52,10.52,0,0,0,303.54,197a10.4,10.4,0,0,0,2.93,7.45,10.53,10.53,0,0,0,3.52,2.41l6.44,41.79a10,10,0,0,0-1.2,2.38,10.48,10.48,0,0,0,6.5,13.29c.28.09.57.18.86.25l18.94,24.07s13.91,13.67,24.32,20.87a10.47,10.47,0,0,0,6.37,6.14,10.27,10.27,0,0,0,3.39.57,10.46,10.46,0,0,0,9.89-7.08,10.33,10.33,0,0,0,.22-6.05c2.79-4.31,7.24-10.91,10.44-15.58,0,0,6.64-19.56,10.31-33.48,4.07,11.48,8.48,24.36,9.59,29.23A10.44,10.44,0,0,0,415,303.3a12.38,12.38,0,0,0,1.45.38l-2.86,31.78a10.44,10.44,0,0,0-4.62,19.45v.1l.52.16a10.51,10.51,0,0,0,1.37.6,10.78,10.78,0,0,0,2.37.51,143.82,143.82,0,0,0,37.45,5.25,126.7,126.7,0,1,0,0-253.4ZM437,143a10.44,10.44,0,0,0-4.22-17c-.24-.08-.48-.15-.73-.21L432,123a127.66,127.66,0,0,1,18.66-1.34c3.64,0,7.23.18,10.78.51l.12,46.2-9.38,5a10.33,10.33,0,0,0-3.87-2.84l-.09-9.55-.5-1.57Zm-60.3,104.8,0,.1Zm-57.93-41.35,14.89,23.11,7.46-5.94a10.45,10.45,0,0,0,3.8,3.9l-12.77,19.17a10.41,10.41,0,0,0-7.07-2.75,10.38,10.38,0,0,0-4.49,1l-5.85-37.37A10.43,10.43,0,0,0,318.81,206.44Zm87.24,22.34a10.46,10.46,0,0,0-4.63,19.84c-2.13,8.73-6.51,22.57-11,35.16-1.23,1.8-5.55,8.13-8.95,13.29a10.46,10.46,0,0,0-2.48-1.24A10.41,10.41,0,0,0,365.87,302a233.05,233.05,0,0,1-19.72-17.42L329.9,263.69a10.61,10.61,0,0,0,2.31-1.63l22.33,13a10.47,10.47,0,0,0,6.52,13.21,10.36,10.36,0,0,0,3.39.57,10.48,10.48,0,0,0,9.9-7.08,10.37,10.37,0,0,0-.5-8,10.51,10.51,0,0,0-1.66-2.44l.07-.27,5.86-19.78,12.36-34.8a10.44,10.44,0,0,0,6-2.23l32.43,16.22a10.45,10.45,0,0,0,7,11.33,10.61,10.61,0,0,0,3.39.56A10.46,10.46,0,0,0,442.67,222a10.61,10.61,0,0,0-3.39-.56,10.43,10.43,0,0,0-7.74,3.46L400,209.1a10.52,10.52,0,0,0,.45-3.81l36.28-17.79a10.45,10.45,0,0,0,4.05,2.56,10.61,10.61,0,0,0,3.39.56,10.46,10.46,0,0,0,10.37-11.85l7-3.43.3,119-46.7-50a10.71,10.71,0,0,0,.79-1.72,10.47,10.47,0,0,0-9.89-13.86ZM419.6,336.92l3-33.31c0-.11,0-.21,0-.32v-.35a10.43,10.43,0,0,0-.25-19.19v-.24a4,4,0,0,0-.05-.5c-.89-5-6.6-21.47-11-33.73l47.62,51-38.43,37.23A9.86,9.86,0,0,0,419.6,336.92Zm31,11.07a161.54,161.54,0,0,1-26-1.73,10.47,10.47,0,0,0-.53-3.64L461.88,306l.11,41.39A112.22,112.22,0,0,1,450.63,348Zm16.94-225.06a112.42,112.42,0,0,1,30.58,9.21c-2.88,17.39-14.31,25.85-14.85,26.24A3.06,3.06,0,0,0,482,161s.14,4.23-.37,11a43.05,43.05,0,0,0-.1,5.68c-7.13-2-12.94-5-13.85-12.39Zm.14,54.73c5.09,4.37,12.14,6,16.77,7.08,1.92.44,4.59,1.09,4.59,1.09l.33.13,22,11a69.14,69.14,0,0,0-11.52,22.79,296.14,296.14,0,0,1-10.35,28.63,3.62,3.62,0,0,0-.35,1,73.71,73.71,0,0,1-6,16.74,22.75,22.75,0,0,1-3.88,5.49,9.25,9.25,0,0,1-1.67,1.35c-3.72,2.26-7.16,9.56-9.69,16.37Zm59.1,50.91-.06,1.59c-.41,5.89-2.56,21.27-14.07,21.51-10.09.22-14.79-1.48-16.74-2.58,1.8-4.33,6-14.8,9.85-27.55a65.22,65.22,0,0,1,9.37-19.3A246.24,246.24,0,0,0,526.81,228.57ZM520.9,200a35.43,35.43,0,0,1,16.51,8.84c4.07,4,10.65,17.15,13.61,30.59-2.12-1.26-4.26-2.27-6.27-3.22-5-2.38-9.42-4.43-12-9.64a1.14,1.14,0,0,0-.1-.19A245.13,245.13,0,0,1,520.9,200ZM491.72,340.25a112.68,112.68,0,0,1-23.58,6.38L468,307c5.88,3.43,15.89,9.53,18.87,12.44C491.58,324,492,334.4,491.72,340.25Zm16.16-57.39c-2.17,12.31-1,37.58-.27,49.7q-4.69,2.76-9.66,5.05c0-6.54-.92-16.85-6.74-22.54-3.88-3.81-15.7-10.84-20.69-13.73,2.94-10.23,7.49-21.41,10.36-23.15,7-4.26,11.32-16.42,13.22-23.14,3.38,1.56,9.12,3,18.71,2.77a17.11,17.11,0,0,0,6.13-1.2c-4.54,9.17-10.12,21.09-11,26.12A.5.5,0,0,0,507.88,282.86Zm6.19,45.63-.34-25.32.26-19.51c1-4.88,7.56-18.56,12.46-28.28.95,9.61,3.4,21.72,7.76,30.93A85.28,85.28,0,0,0,543,300.18,114.15,114.15,0,0,1,514.07,328.49Zm32.53-33.76a71.13,71.13,0,0,1-6.83-11.06c-6.19-13.07-8.49-34.36-7.38-40.92,0-.13,0-.26,0-.39l.24-6.08a42.1,42.1,0,0,0,9.46,5.52c4,1.88,7.78,3.66,11,7,2.78,3,4.46,10.52,5.95,18.47A112.93,112.93,0,0,1,546.6,294.73Zm11.67-49.3c-1.9-16-10.19-34.69-16.54-41-9.09-9-20.58-10.91-24.21-11.31a2.33,2.33,0,0,0-.26-.17L492,180.38l-.29-.13-3.87-1.45a25,25,0,0,1-.08-6.37c.36-4.69.41-8.18.4-10.07A48.78,48.78,0,0,0,503.89,135a113.22,113.22,0,0,1,58.33,118.67A25.36,25.36,0,0,0,558.27,245.43Z"/></g></svg>