<svg xmlns="http://www.w3.org/2000/svg" viewBox="0 0 1137.27 397.84"><defs><style>.cls-1{fill:#f1f4f7;}.cls-2{fill:#cbd2d9;}.cls-3{fill:#155257;}.cls-4{fill:#dee3e9;}.cls-5{fill:#67788a;}</style></defs><g id="Layer_10" data-name="Layer 10"><path d="M378,237.31v-105h18.75l36.75,64.43L470,132.31h18.75v105h-15.3v-83.1l-32.85,57.9H426.14l-32.85-57.52v82.72Z"/><path d="M516.43,270.61a34.4,34.4,0,0,1-6.07-.52v-13.5a28.93,28.93,0,0,0,4.2.37q7.88,0,12.83-4.46t8.7-13.09q-9.24-18.53-17.33-37.95t-15.45-39.15h17.4q4.8,15.08,10.39,30.11T543,222.16l20.47-59.85h16.35l-29.32,77.33q-5.62,14.85-13.35,22.91T516.43,270.61Z"/><path d="M620.76,239.11a37.89,37.89,0,0,1-19.84-5.06,34.26,34.26,0,0,1-13-14,47.3,47.3,0,0,1,0-40.61,34.3,34.3,0,0,1,13-13.92,37.89,37.89,0,0,1,19.84-5.06h1.65q11.48,0,19.87,5.06a34.37,34.37,0,0,1,13,13.92,47.39,47.39,0,0,1,0,40.61,34.32,34.32,0,0,1-13,14q-8.4,5.05-19.87,5.06Zm.07-14h1.5q10.27,0,16.13-6.9t5.85-18.45q0-11.62-5.85-18.49t-16.13-6.86h-1.5q-10.2,0-16.08,6.86t-5.89,18.49q0,11.55,5.89,18.45T620.83,225.16Z"/><path d="M719,239.11q-14.78,0-25.65-5.29a48.31,48.31,0,0,1-18.15-15.26l11.55-10.5a41.24,41.24,0,0,0,14.36,12.38,39.4,39.4,0,0,0,17.81,4h1.88q11.78,0,17.77-4a12.84,12.84,0,0,0,6-11.25q0-5.55-3.19-8.62a20.73,20.73,0,0,0-7.68-4.65,65.66,65.66,0,0,0-8.55-2.4l-17-3.6a78.83,78.83,0,0,1-9.41-2.63,39.79,39.79,0,0,1-9.64-4.84,23.44,23.44,0,0,1-10.42-20.66,27.82,27.82,0,0,1,4.91-16.39,32.1,32.1,0,0,1,13.84-10.91,51.89,51.89,0,0,1,20.92-3.9h1.88q25.2,0,38.77,19.5l-11.4,9.45q-6.15-8.1-13-11.17a35.37,35.37,0,0,0-14.7-3.08H718q-10.28,0-16.65,4.09T695,160.44a10.49,10.49,0,0,0,2.47,7.31,16.13,16.13,0,0,0,6.64,4.24,70.19,70.19,0,0,0,9,2.55l17,3.6q3.52.75,8.66,2.32a42.6,42.6,0,0,1,10.2,4.76,26.85,26.85,0,0,1,8.48,8.67q3.4,5.48,3.41,14A28.16,28.16,0,0,1,756,224.64a31.39,31.39,0,0,1-14,10.72,54.74,54.74,0,0,1-21.15,3.75Z"/><path d="M801.66,239.11q-13,0-19.8-8.77T775,205.66V162.31h15v41.55q0,21.3,15.45,21.3H807a19,19,0,0,0,13-4.72,28.63,28.63,0,0,0,8-11.93v-46.2h15v75H828V224.79a31.69,31.69,0,0,1-10.31,10.5,26.75,26.75,0,0,1-14.36,3.82Z"/><path d="M872.53,149a9.52,9.52,0,0,1-7.24-2.81,11,11,0,0,1,0-14.36,10.87,10.87,0,0,1,14.52,0,11.15,11.15,0,0,1,0,14.36A9.49,9.49,0,0,1,872.53,149ZM865,237.31v-75h15v75Z"/><path d="M935.83,238.29q-13.35,0-20.33-6.75t-7-20.78v-35.4h-14.7V162.31h14.7V140h15v22.35H948.8v13.05H923.53v33.38q0,8.85,3.67,12.3t10.88,3.45a57.4,57.4,0,0,0,6.19-.3q2.73-.3,5.66-.75v13.12a60.85,60.85,0,0,1-6.75,1.24A57.9,57.9,0,0,1,935.83,238.29Z"/><path d="M997.4,239.11a35.67,35.67,0,0,1-18.93-5,33.86,33.86,0,0,1-12.68-13.8,48.53,48.53,0,0,1,0-41,34,34,0,0,1,12.68-13.87,35.43,35.43,0,0,1,18.93-5h1.65a31,31,0,0,1,17.29,4.84,32,32,0,0,1,11.66,14q4.2,9.1,4.2,21.94v4.57H976.78q1.35,9.23,6.94,14.51t14.58,5.29h1.5a25.17,25.17,0,0,0,10.35-2.21,24.54,24.54,0,0,0,8.33-6l9.22,9.75a36.87,36.87,0,0,1-12.56,8.7,40.28,40.28,0,0,1-16.09,3.22ZM997,174a18.26,18.26,0,0,0-13.38,5.29q-5.37,5.28-6.79,14.44h40.35a24.32,24.32,0,0,0-5.44-14q-4.76-5.7-13.24-5.7Z"/></g><g id="Layer_7" data-name="Layer 7"><path class="cls-1" d="M112.87,176a8.56,8.56,0,0,1-3.3.94l4.81,30.69,9.36,1.43,10.54-15.81a8.57,8.57,0,0,1-3.11-3.19l-6.11,4.86Z"/></g><g id="Layer_5" data-name="Layer 5"><path class="cls-2" d="M254.26,287.51c.47-3.83.71-14.72-3.77-19.1-2.43-2.39-10.63-7.38-15.44-10.2l.09,35.33a94.54,94.54,0,0,0,19.1-5.15v-.58C254.24,287.71,254.25,287.61,254.26,287.51Z"/><path class="cls-3" d="M194.85,291.55l.09-.08-.08,0Z"/><path class="cls-2" d="M234.75,142.23c.75,6,5.5,8.5,11.34,10.14a34.07,34.07,0,0,1,.09-4.64c.41-5.52.3-8.95.3-9a2.48,2.48,0,0,1,1.06-2.15c.46-.33,10.57-7.78,12.42-23.17a94.32,94.32,0,0,0-25.3-7.66Z"/><path class="cls-4" d="M252.37,211.07a3,3,0,0,1,.29-.77,246.54,246.54,0,0,0,8.48-23.44,56.51,56.51,0,0,1,9.43-18.67l-18-9-.28-.1s-2.18-.53-3.75-.89c-3.79-.88-9.56-2.22-13.73-5.8l.23,91.39c2.08-5.58,4.89-11.55,7.94-13.4a7.55,7.55,0,0,0,1.36-1.1c1-1.32,2.09-2.87,3.18-4.5A60.49,60.49,0,0,0,252.37,211.07Z"/><path class="cls-5" d="M267.66,238.52s0-.07,0-.1c.75-4.12,5.32-13.88,9-21.39a14.11,14.11,0,0,1-5,1c-7.85.17-12.55-1-15.32-2.27-1.56,5.5-5.07,15.46-10.82,18.94-2.35,1.43-6.07,10.58-8.48,18.95,4.08,2.37,13.76,8.13,16.94,11.25,5.77,5.65,5.7,16.88,5.41,21.39q4.21-1.92,8.19-4.23C267.08,273.93,265.69,249.7,267.66,238.52Z"/><path class="cls-2" d="M266,188.32c-3.17,10.43-6.59,19-8.07,22.55,1.6.9,5.45,2.29,13.71,2.11,9.42-.2,11.18-12.79,11.51-17.61l.05-1.3a202.09,202.09,0,0,1-9.54-21.56A53.31,53.31,0,0,0,266,188.32Z"/><path class="cls-1" d="M230,257.49l0,0-.25-107h0l-.1-45.37a95,95,0,0,0-24.18.63l.56,12.57,12.4,19.12.4,1.29.11,17.07-42.5,20.84-3.56,3.85-11.41,32.13L154,237.75,149.16,235c-1.09-.77-9.17-6.49-14-10-3-2.18-13.5-5.88-15.73-6.39,2.39,10.37,15.94,21.54,21.42,30.32,4.62,3.35,17.59,10.21,18,9.37,1.19-2.39,11-16.69,12.6-19C176.09,226.4,184,205.08,188.62,211c3.58,10,8.25,23.52,9,27.61a2.71,2.71,0,0,1,0,.41l.21,16.19a2.26,2.26,0,0,1,0,.26l-5.32,35.22,2.42.75A95,95,0,0,0,220,294.82a96.13,96.13,0,0,0,10.09-.53Z"/><path d="M221.73,96.5a106.35,106.35,0,0,0-56.83,17,94.62,94.62,0,0,0-34.31,38,8.48,8.48,0,0,0-.84,16.29,8.31,8.31,0,0,0,2.75.46,8.5,8.5,0,0,0,7.63-12.24,1.62,1.62,0,0,0-.1-.18c9-15.54,20.26-27.49,33.54-35.58a86.18,86.18,0,0,1,28-10.82l.07,1.58a8.48,8.48,0,0,0,2.83,16.47,8,8,0,0,0,1.84-.21l8.42,13-.07,6.44a8.47,8.47,0,0,0-6.47,10.2l-29,13.85a8.45,8.45,0,0,0-4-2.81,8.49,8.49,0,0,0-10.79,5.29,8.5,8.5,0,0,0,3.54,10l-9.92,27.93-4.55,15.32a8.6,8.6,0,0,0-1.82-.2A8.49,8.49,0,0,0,146.6,228l-18.55-10.77a8.53,8.53,0,0,0,.07-3.45l12.64-19.17A8.48,8.48,0,0,0,143,178.13a8.35,8.35,0,0,0-2.75-.46,8.48,8.48,0,0,0-8,5.74,8.09,8.09,0,0,0-.43,2.2l-3.84,3.09L118,173.18a8.48,8.48,0,0,0-7.13-12.84h-.16a8.54,8.54,0,0,0-8.5,8.33,8.45,8.45,0,0,0,2.38,6.06,8.32,8.32,0,0,0,2.87,2l5.23,34a8.15,8.15,0,0,0-1,1.93,8.51,8.51,0,0,0,5.28,10.8c.23.08.46.14.7.2l15.38,19.56s11.3,11.11,19.77,16.95a8.49,8.49,0,0,0,5.17,5,8.31,8.31,0,0,0,2.75.46A8.5,8.5,0,0,0,169,254.86c2.26-3.5,5.88-8.85,8.48-12.65,0,0,5.39-15.89,8.37-27.2,3.31,9.33,6.89,19.79,7.79,23.74a8.51,8.51,0,0,0-6.17,5.52,8.5,8.5,0,0,0,5.28,10.79,9.76,9.76,0,0,0,1.18.31l-2.32,25.82a8.49,8.49,0,0,0-3.76,15.8v.08l.43.13a7.94,7.94,0,0,0,1.11.49,8.51,8.51,0,0,0,1.93.41,116.47,116.47,0,0,0,30.42,4.27,102.94,102.94,0,1,0,0-205.87Zm-11,28.32A8.48,8.48,0,0,0,207.26,111l-.59-.17-.1-2.22a104.13,104.13,0,0,1,15.16-1.09q4.44,0,8.76.42l.1,37.53L223,149.51a8.43,8.43,0,0,0-3.15-2.31l-.08-7.75-.4-1.28ZM161.7,210l0,.07Zm-47.06-33.6,12.09,18.78,6.07-4.83a8.58,8.58,0,0,0,3.08,3.17l-10.37,15.57a8.44,8.44,0,0,0-3-1.77,8.35,8.35,0,0,0-2.75-.46,8.46,8.46,0,0,0-3.65.83l-4.76-30.36A8.34,8.34,0,0,0,114.64,176.37Zm70.87,18.15a8.5,8.5,0,0,0-8,5.75,8.5,8.5,0,0,0,4.28,10.37c-1.73,7.09-5.29,18.34-8.93,28.57-1,1.45-4.51,6.6-7.27,10.79a8.43,8.43,0,0,0-4.77-1.47,8.5,8.5,0,0,0-7.91,5.45,188.08,188.08,0,0,1-16-14.15l-13.2-17a8.43,8.43,0,0,0,1.87-1.32l18.14,10.52a8.51,8.51,0,0,0,5.3,10.74,8.68,8.68,0,0,0,2.76.46,8.5,8.5,0,0,0,8-5.75,8.48,8.48,0,0,0-1.76-8.47l.06-.22,4.77-16.07,10-28.28a8.4,8.4,0,0,0,4.88-1.8l26.34,13.17A8.5,8.5,0,1,0,215.26,189a8.58,8.58,0,0,0-2.75-.46,8.48,8.48,0,0,0-6.29,2.82l-25.6-12.81a8.57,8.57,0,0,0,.37-3.09L210.46,161a8.5,8.5,0,0,0,14.09-3.21,8.61,8.61,0,0,0,.38-3.89l5.67-2.78.25,96.72-37.94-40.65a8.85,8.85,0,0,0,.64-1.4,8.5,8.5,0,0,0-5.29-10.8A8.58,8.58,0,0,0,185.51,194.52Zm11,87.85L199,255.31c0-.09,0-.17,0-.26v-.28a8.47,8.47,0,0,0-.21-15.59V239a1.81,1.81,0,0,0,0-.4c-.72-4.06-5.35-17.45-8.91-27.4l38.69,41.45-31.22,30.25Q196.91,282.61,196.52,282.37Zm25.21,9a130.49,130.49,0,0,1-21.1-1.41,8.31,8.31,0,0,0-.43-3l30.67-29.72.09,33.63C227.92,291.21,224.85,291.37,221.73,291.37Zm13.76-182.84A91.15,91.15,0,0,1,260.34,116c-2.34,14.12-11.63,21-12.07,21.31a2.51,2.51,0,0,0-1.06,2.14,86.05,86.05,0,0,1-.29,8.9,33.76,33.76,0,0,0-.09,4.62c-5.79-1.64-10.51-4.11-11.25-10.07ZM235.6,153c4.14,3.55,9.87,4.88,13.63,5.75,1.56.36,3.73.89,3.73.89l.27.1,17.89,8.94a56.29,56.29,0,0,0-9.36,18.52,239,239,0,0,1-8.41,23.26,3.09,3.09,0,0,0-.28.77,59.77,59.77,0,0,1-4.85,13.6,18.57,18.57,0,0,1-3.15,4.47,7.47,7.47,0,0,1-1.36,1.09c-3,1.83-5.81,7.77-7.87,13.3Zm48,41.36-.05,1.29c-.33,4.78-2.07,17.28-11.43,17.48-8.19.17-12-1.21-13.6-2.1,1.47-3.52,4.87-12,8-22.38a52.79,52.79,0,0,1,7.6-15.68A201.41,201.41,0,0,0,283.62,194.35Zm-4.8-23.19a28.71,28.71,0,0,1,13.41,7.18c3.31,3.26,8.66,13.93,11.06,24.85-1.73-1-3.46-1.85-5.09-2.62-4.11-1.93-7.66-3.6-9.79-7.83l-.07-.16A198.11,198.11,0,0,1,278.82,171.16ZM255.11,285.08A90.94,90.94,0,0,1,236,290.26l-.08-32.18c4.77,2.79,12.91,7.75,15.32,10.11C255,271.91,255.37,280.33,255.11,285.08Zm13.13-46.63c-1.76,10-.82,30.54-.22,40.39q-3.81,2.22-7.85,4.1c0-5.32-.75-13.69-5.47-18.32-3.16-3.09-12.76-8.8-16.81-11.15,2.39-8.31,6.08-17.4,8.42-18.81,5.7-3.46,9.19-13.34,10.73-18.8,2.76,1.27,7.41,2.42,15.21,2.26a14.15,14.15,0,0,0,5-1c-3.69,7.45-8.22,17.13-9,21.22A.29.29,0,0,0,268.24,238.45Zm5,37.08L273,255l.21-15.85c.81-4,6.15-15.08,10.13-23,.77,7.81,2.76,17.64,6.3,25.13a69.11,69.11,0,0,0,7.11,11.27A92.78,92.78,0,0,1,273.27,275.53Zm26.42-27.43a59.38,59.38,0,0,1-5.54-9c-5-10.62-6.9-27.92-6-33.25a3.11,3.11,0,0,0,0-.32l.19-4.93a34.13,34.13,0,0,0,7.69,4.48c3.25,1.53,6.32,3,8.9,5.7,2.26,2.4,3.62,8.54,4.84,15A91.46,91.46,0,0,1,299.69,248.1Zm9.49-40c-1.55-13-8.28-28.18-13.44-33.27a34.3,34.3,0,0,0-19.67-9.19.92.92,0,0,0-.21-.13L255.35,155.2l-.24-.11L252,153.92a20.09,20.09,0,0,1-.07-5.18c.29-3.81.34-6.65.33-8.18A39.65,39.65,0,0,0,265,118.34a91.85,91.85,0,0,1,47.38,96.41A20.49,20.49,0,0,0,309.18,208.05Z"/></g></svg>