<svg xmlns="http://www.w3.org/2000/svg" viewBox="0 0 462.51 464.78"><defs><style>.cls-1{fill:#fff;}</style></defs><g id="Layer_7" data-name="Layer 7"><path class="cls-1" d="M235.82,108.52a130.26,130.26,0,0,0-69.62,20.83c-18.59,12-32.92,27.9-42,46.59a10.39,10.39,0,0,0-1,20,10.24,10.24,0,0,0,3.38.56,10.42,10.42,0,0,0,9.35-15c0-.07-.09-.14-.13-.22,11-19,24.81-33.67,41.08-43.58a105.37,105.37,0,0,1,34.35-13.26l.08,1.94a10.38,10.38,0,0,0,.1,19.61,10.45,10.45,0,0,0,3.37.56,9.82,9.82,0,0,0,2.25-.26l10.32,15.92-.08,7.89a10.34,10.34,0,0,0-7.92,12.49l-35.56,17a10.46,10.46,0,0,0-8.21-4A10.41,10.41,0,0,0,170,214.76L157.86,249l-5.57,18.77a10.27,10.27,0,0,0-8.5,1.87l-22.73-13.19a10.4,10.4,0,0,0,.09-4.23l15.49-23.48a10.4,10.4,0,0,0,2.68-20.21,10.39,10.39,0,0,0-13.76,9.16l-4.69,3.79-12.1-19a10.39,10.39,0,0,0-8.72-15.73h-.2a10.46,10.46,0,0,0-10.41,10.21,10.35,10.35,0,0,0,2.91,7.42,10.46,10.46,0,0,0,3.51,2.4l6.41,41.59a10,10,0,0,0-1.2,2.37,10.42,10.42,0,0,0,6.47,13.22c.28.1.57.18.85.25l18.85,24s13.84,13.6,24.21,20.76a10.4,10.4,0,0,0,6.33,6.12A10.42,10.42,0,0,0,171,308.54a10.34,10.34,0,0,0,.21-6c2.78-4.29,7.21-10.85,10.39-15.49,0,0,6.61-19.47,10.26-33.33,4,11.43,8.43,24.25,9.54,29.09a10.4,10.4,0,0,0-1.09,20,10.88,10.88,0,0,0,1.44.37l-2.84,31.63a10.4,10.4,0,0,0-4.6,19.36v.1l.51.16a10.47,10.47,0,0,0,1.37.59,10.15,10.15,0,0,0,2.36.51,142.93,142.93,0,0,0,37.27,5.23,126.1,126.1,0,0,0,0-252.19Zm-13.52,34.7a10.46,10.46,0,0,0,2.27-3.73,10.42,10.42,0,0,0-6.47-13.23c-.24-.08-.49-.15-.73-.21l-.12-2.72A127.83,127.83,0,0,1,235.82,122c3.62,0,7.19.17,10.73.51l.12,46-9.33,5a10.43,10.43,0,0,0-3.86-2.83l-.09-9.5-.5-1.56Zm-60,104.3,0,.09Zm-57.65-41.16,14.82,23,7.43-5.91a10.34,10.34,0,0,0,3.78,3.88l-12.72,19.08a10.38,10.38,0,0,0-3.65-2.18,10.51,10.51,0,0,0-3.38-.56,10.29,10.29,0,0,0-4.47,1l-5.82-37.2A10.15,10.15,0,0,0,104.63,206.36Zm86.82,22.24a10.4,10.4,0,0,0-4.6,19.74c-2.12,8.69-6.48,22.46-10.95,35-1.22,1.79-5.52,8.09-8.9,13.23a10.38,10.38,0,0,0-15.54,4.88,234.07,234.07,0,0,1-19.62-17.34l-16.17-20.76a10.5,10.5,0,0,0,2.3-1.62l22.22,12.89a10.41,10.41,0,1,0,19.22-1.28,10.25,10.25,0,0,0-1.66-2.43l.07-.27L163.66,251,176,216.31a10.33,10.33,0,0,0,6-2.21l32.27,16.13a10.41,10.41,0,1,0,13.69-8.42,10.38,10.38,0,0,0-11.08,2.88L185.46,209a10.41,10.41,0,0,0,.45-3.79l36.1-17.7a10.41,10.41,0,0,0,17.73-8.7l6.94-3.4L247,293.89,200.51,244.1a10,10,0,0,0,.79-1.72,10.41,10.41,0,0,0-9.85-13.78Zm13.49,107.61,3-33.15c0-.1,0-.21,0-.31v-.36a10.38,10.38,0,0,0-.26-19.09v-.24a2.63,2.63,0,0,0,0-.49c-.88-5-6.56-21.37-10.92-33.57l47.4,50.78-38.24,37.05C205.56,336.61,205.26,336.4,204.94,336.21Zm30.88,11A161.18,161.18,0,0,1,210,345.51a10.44,10.44,0,0,0-.52-3.63L247,305.48l.1,41.19Q241.56,347.23,235.82,347.23Zm16.85-224a111.49,111.49,0,0,1,30.44,9.16c-2.87,17.3-14.24,25.72-14.78,26.11a3,3,0,0,0-1.29,2.61s.14,4.21-.37,10.91a42.61,42.61,0,0,0-.1,5.65c-7.1-2-12.88-5-13.79-12.33Zm.14,54.46c5.07,4.35,12.09,6,16.7,7.05l4.56,1.08.33.13,21.92,11a68.69,68.69,0,0,0-11.46,22.69,295.45,295.45,0,0,1-10.31,28.49,4,4,0,0,0-.35.95,72.76,72.76,0,0,1-5.93,16.65,22.31,22.31,0,0,1-3.86,5.47,9.64,9.64,0,0,1-1.66,1.35c-3.7,2.24-7.13,9.5-9.65,16.28Zm58.82,50.67-.06,1.58c-.4,5.86-2.54,21.16-14,21.41-10,.21-14.71-1.48-16.66-2.57,1.79-4.32,6-14.73,9.81-27.42A64.75,64.75,0,0,1,300,202.18,243.93,243.93,0,0,0,311.63,228.39ZM305.76,200a35.23,35.23,0,0,1,16.42,8.79c4.05,4,10.6,17.07,13.54,30.44-2.11-1.25-4.23-2.26-6.23-3.2-5-2.36-9.38-4.41-12-9.6l-.09-.19A240.86,240.86,0,0,1,305.76,200ZM276.71,339.53a111.71,111.71,0,0,1-23.46,6.35l-.1-39.42C259,309.87,269,316,271.92,318.84,276.57,323.39,277,333.71,276.71,339.53Zm16.08-57.12c-2.16,12.26-1,37.41-.27,49.47q-4.66,2.73-9.61,5c0-6.51-.92-16.77-6.7-22.43-3.87-3.79-15.64-10.79-20.59-13.67,2.92-10.17,7.45-21.3,10.3-23,7-4.24,11.26-16.34,13.16-23,3.37,1.55,9.07,3,18.62,2.76a17.38,17.38,0,0,0,6.1-1.2c-4.52,9.13-10.07,21-11,26C292.8,282.34,292.8,282.37,292.79,282.41ZM299,327.83l-.34-25.2.26-19.42c1-4.86,7.53-18.47,12.4-28.14,1,9.56,3.39,21.61,7.73,30.78a84.73,84.73,0,0,0,8.71,13.81A113.75,113.75,0,0,1,299,327.83Zm32.37-33.6a71.22,71.22,0,0,1-6.79-11c-6.16-13-8.45-34.19-7.35-40.72a1.72,1.72,0,0,0,0-.39l.24-6.05a41.94,41.94,0,0,0,9.42,5.49c4,1.88,7.75,3.65,10.9,7,2.77,2.93,4.44,10.46,5.93,18.38A112.27,112.27,0,0,1,331.32,294.23ZM343,245.16c-1.9-15.95-10.15-34.52-16.47-40.75-9.05-8.92-20.48-10.86-24.09-11.26l-.26-.16L277,180.43l-.29-.13-3.85-1.44a24.82,24.82,0,0,1-.08-6.35c.35-4.66.41-8.14.4-10a48.58,48.58,0,0,0,15.65-27.21,112.6,112.6,0,0,1,58,118.09A25.51,25.51,0,0,0,343,245.16Z"/></g></svg>