<svg xmlns="http://www.w3.org/2000/svg" viewBox="0 0 1139.52 397.84"><defs><style>.cls-1{fill:#fff;}</style></defs><g id="Layer_10" data-name="Layer 10"><path class="cls-1" d="M378,243.29v-105h18.75l36.75,64.43L470,138.29h18.75v105h-15.3v-83.1l-32.85,57.9H426.14l-32.85-57.52v82.72Z"/><path class="cls-1" d="M516.43,276.59a33.48,33.48,0,0,1-6.07-.52v-13.5a27.58,27.58,0,0,0,4.2.37q7.88,0,12.83-4.46t8.7-13.09q-9.24-18.52-17.33-37.95t-15.45-39.15h17.4q4.8,15.08,10.39,30.12T543,228.14l20.47-59.85h16.35l-29.32,77.33q-5.62,14.85-13.35,22.91T516.43,276.59Z"/><path class="cls-1" d="M620.76,245.09A37.8,37.8,0,0,1,600.92,240a34.13,34.13,0,0,1-13-13.95,47.3,47.3,0,0,1,0-40.61,34.22,34.22,0,0,1,13-13.91,37.8,37.8,0,0,1,19.84-5.07h1.65q11.48,0,19.87,5.07a34.28,34.28,0,0,1,13,13.91,47.39,47.39,0,0,1,0,40.61,34.2,34.2,0,0,1-13,13.95q-8.4,5.07-19.87,5.06Zm.07-14h1.5q10.27,0,16.13-6.9t5.85-18.45q0-11.62-5.85-18.48t-16.13-6.87h-1.5q-10.2,0-16.08,6.87t-5.89,18.48q0,11.55,5.89,18.45T620.83,231.14Z"/><path class="cls-1" d="M719,245.09q-14.78,0-25.65-5.28a48.42,48.42,0,0,1-18.15-15.27L686.76,214a41.24,41.24,0,0,0,14.36,12.38,39.4,39.4,0,0,0,17.81,4h1.88q11.78,0,17.77-4a12.84,12.84,0,0,0,6-11.25q0-5.55-3.19-8.62a20.73,20.73,0,0,0-7.68-4.65,65.66,65.66,0,0,0-8.55-2.4l-17-3.6a78.83,78.83,0,0,1-9.41-2.63,40.12,40.12,0,0,1-9.64-4.83,23.48,23.48,0,0,1-10.42-20.67,27.77,27.77,0,0,1,4.91-16.38,32,32,0,0,1,13.84-10.92,51.89,51.89,0,0,1,20.92-3.9h1.88q25.2,0,38.77,19.5l-11.4,9.45q-6.15-8.1-13-11.17a35.37,35.37,0,0,0-14.7-3.08H718q-10.28,0-16.65,4.09T695,166.42a10.47,10.47,0,0,0,2.47,7.31,16,16,0,0,0,6.64,4.24,70.19,70.19,0,0,0,9,2.55l17,3.6q3.52.75,8.66,2.32a42.27,42.27,0,0,1,10.2,4.77,26.72,26.72,0,0,1,8.48,8.66q3.4,5.48,3.41,14A28.16,28.16,0,0,1,756,230.62a31.39,31.39,0,0,1-14,10.72,54.74,54.74,0,0,1-21.15,3.75Z"/><path class="cls-1" d="M801.66,245.09q-13,0-19.8-8.77T775,211.64V168.29h15v41.55q0,21.3,15.45,21.3H807a19,19,0,0,0,13-4.72,28.63,28.63,0,0,0,8-11.93v-46.2h15v75H828V230.77a31.69,31.69,0,0,1-10.31,10.5,26.75,26.75,0,0,1-14.36,3.82Z"/><path class="cls-1" d="M872.53,154.94a9.48,9.48,0,0,1-7.24-2.81,11,11,0,0,1,0-14.36,10.87,10.87,0,0,1,14.52,0,11.15,11.15,0,0,1,0,14.36A9.46,9.46,0,0,1,872.53,154.94ZM865,243.29v-75h15v75Z"/><path class="cls-1" d="M935.83,244.27q-13.35,0-20.33-6.75t-7-20.78v-35.4h-14.7V168.29h14.7V145.94h15v22.35H948.8v13.05H923.53v33.38q0,8.85,3.67,12.3t10.88,3.45a57.4,57.4,0,0,0,6.19-.3q2.73-.3,5.66-.75v13.12a60.85,60.85,0,0,1-6.75,1.24A56.12,56.12,0,0,1,935.83,244.27Z"/><path class="cls-1" d="M997.4,245.09a35.67,35.67,0,0,1-18.93-5,33.86,33.86,0,0,1-12.68-13.8,48.51,48.51,0,0,1,0-41,34.07,34.07,0,0,1,12.68-13.88,35.51,35.51,0,0,1,18.93-5h1.65a31.11,31.11,0,0,1,17.29,4.84A32.16,32.16,0,0,1,1028,185.28q4.2,9.12,4.2,21.94v4.57H976.78q1.35,9.22,6.94,14.52t14.58,5.28h1.5a25,25,0,0,0,10.35-2.21,24.4,24.4,0,0,0,8.33-6l9.22,9.75a36.87,36.87,0,0,1-12.56,8.7,40.11,40.11,0,0,1-16.09,3.22ZM997,180a18.3,18.3,0,0,0-13.38,5.29q-5.37,5.29-6.79,14.44h40.35a24.32,24.32,0,0,0-5.44-14q-4.76-5.7-13.24-5.7Z"/></g><g id="Layer_7" data-name="Layer 7"><path class="cls-1" d="M189.9,107a96.33,96.33,0,0,0-51.45,15.39,85.67,85.67,0,0,0-31,34.43,7.68,7.68,0,0,0-.76,14.75,7.78,7.78,0,0,0,2.49.41A7.69,7.69,0,0,0,116,160.91l-.09-.17c8.16-14.06,18.33-24.88,30.35-32.2a78,78,0,0,1,25.38-9.8l.06,1.43a7.64,7.64,0,0,0-4.34,10.6,7.64,7.64,0,0,0,8.57,4.12l7.63,11.76-.06,5.83a7.64,7.64,0,0,0-5.86,9.23l-26.27,12.54a7.66,7.66,0,0,0-3.57-2.55,7.89,7.89,0,0,0-2.5-.41,7.68,7.68,0,0,0-4.07,14.21l-9,25.28-4.11,13.88a7.74,7.74,0,0,0-1.65-.19A7.63,7.63,0,0,0,121.9,226l-16.8-9.75a7.63,7.63,0,0,0,.07-3.12l11.44-17.36a7.68,7.68,0,0,0,2-14.93,7.88,7.88,0,0,0-2.49-.41,7.69,7.69,0,0,0-7.28,5.2,7.32,7.32,0,0,0-.39,2l-3.47,2.8-8.94-14a7.68,7.68,0,0,0-6.45-11.63h-.15a7.69,7.69,0,0,0-5.54,13,7.61,7.61,0,0,0,2.6,1.77l4.73,30.73a7.36,7.36,0,0,0-.88,1.75,7.69,7.69,0,0,0,4.78,9.77,5,5,0,0,0,.63.19l13.92,17.7s10.23,10.06,17.89,15.35a7.69,7.69,0,0,0,14.61-4.73c2.06-3.17,5.33-8,7.68-11.45,0,0,4.88-14.38,7.58-24.62,3,8.44,6.23,17.91,7.05,21.49a7.68,7.68,0,0,0-.8,14.76,7.88,7.88,0,0,0,1.06.28l-2.1,23.37a7.69,7.69,0,0,0-3.4,14.31v.07l.38.12a9.07,9.07,0,0,0,1,.44,8.15,8.15,0,0,0,1.75.37,105.71,105.71,0,0,0,27.54,3.86,93.17,93.17,0,0,0,0-186.34Zm-10,25.64a7.63,7.63,0,0,0,1.31-8.64,7.68,7.68,0,0,0-4.42-3.89l-.53-.16-.09-2a94.38,94.38,0,0,1,13.72-1q4,0,7.92.38l.09,34L191,155a7.68,7.68,0,0,0-2.85-2.08l-.07-7-.36-1.15Zm-44.35,77.07,0,.06ZM93,179.29l11,17,5.49-4.37a7.6,7.6,0,0,0,2.79,2.87l-9.39,14.1a7.63,7.63,0,0,0-8.5-1.27L90,180.14A7.46,7.46,0,0,0,93,179.29Zm64.15,16.44a7.69,7.69,0,0,0-6.91,11.07,7.61,7.61,0,0,0,3.51,3.51c-1.57,6.42-4.79,16.6-8.09,25.86-.9,1.32-4.08,6-6.57,9.77a7.82,7.82,0,0,0-1.83-.91,7.57,7.57,0,0,0-2.49-.42,7.69,7.69,0,0,0-7.17,4.94,172.49,172.49,0,0,1-14.49-12.82L101.12,221.4a7.73,7.73,0,0,0,1.69-1.2l16.42,9.52a7.71,7.71,0,0,0,4.8,9.72,7.69,7.69,0,0,0,9.4-10.66,7.36,7.36,0,0,0-1.22-1.79l.06-.21,4.31-14.54,9.09-25.59a7.68,7.68,0,0,0,4.42-1.64l23.84,11.92a7.7,7.7,0,0,0,5.13,8.34,7.78,7.78,0,0,0,2.49.41,7.69,7.69,0,0,0,2.49-15,7.78,7.78,0,0,0-2.49-.41,7.66,7.66,0,0,0-5.69,2.54l-23.18-11.59a7.65,7.65,0,0,0,.34-2.8l26.67-13.08a7.65,7.65,0,0,0,3,1.88,7.53,7.53,0,0,0,2.49.42,7.68,7.68,0,0,0,7.62-8.72l5.13-2.52.23,87.54-34.34-36.79a8.64,8.64,0,0,0,.58-1.27,7.7,7.7,0,0,0-4.79-9.77A7.78,7.78,0,0,0,157.11,195.73Zm10,79.51,2.2-24.49a1.85,1.85,0,0,0,0-.23v-.26a7.67,7.67,0,0,0,3.78-10.4,7.57,7.57,0,0,0-4-3.71V236a2.33,2.33,0,0,0,0-.37c-.65-3.67-4.85-15.79-8.07-24.8l35,37.52L167.76,275.7C167.54,275.54,167.31,275.38,167.08,275.24Zm22.82,8.15a118.62,118.62,0,0,1-19.1-1.28,7.68,7.68,0,0,0-.39-2.68l27.76-26.9.08,30.44C195.5,283.24,192.72,283.39,189.9,283.39Zm12.45-165.5a82.55,82.55,0,0,1,22.49,6.77c-2.12,12.78-10.52,19-10.92,19.29a2.27,2.27,0,0,0-1,1.93s.11,3.11-.26,8.06a28.86,28.86,0,0,0-.08,4.18c-5.24-1.48-9.52-3.72-10.19-9.11Zm.1,40.24c3.75,3.22,8.93,4.42,12.34,5.21,1.41.32,3.37.8,3.37.8l.25.09,16.19,8.1a51,51,0,0,0-8.47,16.76,218.07,218.07,0,0,1-7.61,21,2.57,2.57,0,0,0-.26.7,54.1,54.1,0,0,1-4.39,12.31,16.3,16.3,0,0,1-2.85,4,7,7,0,0,1-1.23,1c-2.73,1.65-5.26,7-7.12,12Zm43.46,37.44,0,1.17c-.3,4.33-1.88,15.64-10.34,15.82-7.42.16-10.88-1.09-12.32-1.9,1.33-3.19,4.41-10.88,7.25-20.26a47.63,47.63,0,0,1,6.89-14.19A181.22,181.22,0,0,0,245.91,195.57Zm-4.34-21a26,26,0,0,1,12.14,6.5c3,2.95,7.83,12.61,10,22.49-1.56-.93-3.13-1.67-4.61-2.37-3.71-1.74-6.93-3.26-8.86-7.09l-.07-.14A180,180,0,0,1,241.57,174.58ZM220.11,277.69a82.48,82.48,0,0,1-17.34,4.7l-.07-29.13c4.32,2.52,11.69,7,13.87,9.15C220,265.77,220.35,273.4,220.11,277.69ZM232,235.49c-1.59,9.06-.74,27.64-.19,36.55-2.3,1.35-4.68,2.59-7.11,3.71,0-4.81-.68-12.39-4.95-16.57-2.86-2.8-11.55-8-15.21-10.1,2.16-7.52,5.5-15.74,7.61-17,5.17-3.13,8.32-12.08,9.72-17,2.49,1.15,6.71,2.19,13.76,2a12.75,12.75,0,0,0,4.51-.88c-3.34,6.74-7.44,15.5-8.12,19.21C232,235.43,232,235.46,232,235.49Zm4.55,33.56-.24-18.62.19-14.35c.73-3.59,5.56-13.65,9.16-20.79.7,7.06,2.5,16,5.71,22.74a62.33,62.33,0,0,0,6.43,10.2A83.94,83.94,0,0,1,236.54,269.05Zm23.92-24.83a52.56,52.56,0,0,1-5-8.13c-4.55-9.61-6.25-25.27-5.43-30.09l0-.29.17-4.47a31.22,31.22,0,0,0,7,4.06c2.95,1.38,5.73,2.69,8.06,5.16,2.05,2.17,3.28,7.73,4.38,13.58A83,83,0,0,1,260.46,244.22ZM269.05,208c-1.4-11.79-7.49-25.51-12.16-30.11a31.14,31.14,0,0,0-17.81-8.33l-.18-.11-18.57-9.29-.22-.09L217.27,159a18,18,0,0,1-.06-4.69c.26-3.44.3-6,.29-7.4a35.8,35.8,0,0,0,11.56-20.11A83.2,83.2,0,0,1,272,214,18.59,18.59,0,0,0,269.05,208Z"/></g></svg>