<svg xmlns="http://www.w3.org/2000/svg" viewBox="0 0 855.34 657.7"><defs><style>.cls-1{fill:#fff;}</style></defs><g id="Layer_10" data-name="Layer 10"><path class="cls-1" d="M105.62,517.41v-105h18.75l36.75,64.42,36.52-64.42h18.75v105h-15.3v-83.1l-32.85,57.9H153.77l-32.85-57.53v82.73Z"/><path class="cls-1" d="M244.07,550.71a33.57,33.57,0,0,1-6.08-.53v-13.5a27.72,27.72,0,0,0,4.2.38q7.88,0,12.83-4.47t8.7-13.08q-9.23-18.52-17.33-37.95t-15.45-39.15h17.4q4.8,15.07,10.39,30.11t11.89,29.74l20.47-59.85h16.35l-29.32,77.32q-5.62,14.85-13.35,22.91T244.07,550.71Z"/><path class="cls-1" d="M348.39,519.21a37.8,37.8,0,0,1-19.84-5.07,34.13,34.13,0,0,1-13-13.95,47.39,47.39,0,0,1,0-40.61,34.28,34.28,0,0,1,13-13.91,37.89,37.89,0,0,1,19.84-5.06H350q11.47,0,19.88,5.06a34.32,34.32,0,0,1,13,13.91,47.3,47.3,0,0,1,0,40.61,34.17,34.17,0,0,1-13,13.95q-8.4,5.07-19.88,5.07Zm.08-14H350q10.27,0,16.12-6.9t5.85-18.45q0-11.62-5.85-18.49T350,454.56h-1.5q-10.2,0-16.09,6.86t-5.89,18.49q0,11.55,5.89,18.45T348.47,505.26Z"/><path class="cls-1" d="M446.64,519.21q-14.77,0-25.65-5.29a48.4,48.4,0,0,1-18.15-15.26l11.55-10.5a41.29,41.29,0,0,0,14.36,12.37,39.43,39.43,0,0,0,17.81,4h1.88q11.78,0,17.77-4.05a12.84,12.84,0,0,0,6-11.25q0-5.55-3.18-8.63a20.85,20.85,0,0,0-7.69-4.65,65.66,65.66,0,0,0-8.55-2.4l-17-3.6a79.19,79.19,0,0,1-9.41-2.62,40,40,0,0,1-9.64-4.84,23.47,23.47,0,0,1-10.42-20.66,27.89,27.89,0,0,1,4.91-16.39A32.15,32.15,0,0,1,425,414.51a51.89,51.89,0,0,1,20.92-3.9h1.88q25.2,0,38.77,19.5l-11.4,9.45q-6.15-8.1-13-11.18a35.36,35.36,0,0,0-14.7-3.07h-1.88q-10.28,0-16.65,4.08t-6.37,11.14a10.47,10.47,0,0,0,2.47,7.31,16.1,16.1,0,0,0,6.64,4.24,70.65,70.65,0,0,0,9,2.55l17,3.6q3.53.75,8.67,2.33a43,43,0,0,1,10.2,4.76,26.79,26.79,0,0,1,8.47,8.66q3.42,5.47,3.41,14a28.13,28.13,0,0,1-4.95,16.72,31.41,31.41,0,0,1-13.95,10.73,54.74,54.74,0,0,1-21.15,3.75Z"/><path class="cls-1" d="M529.29,519.21q-13,0-19.8-8.78t-6.83-24.67V442.41h15V484q0,21.3,15.45,21.3h1.5a19,19,0,0,0,13-4.73,28.67,28.67,0,0,0,8-11.92v-46.2h15v75h-15V504.88a31.59,31.59,0,0,1-10.31,10.5,26.73,26.73,0,0,1-14.36,3.83Z"/><path class="cls-1" d="M600.16,429.06a9.45,9.45,0,0,1-7.23-2.82,11,11,0,0,1,0-14.36,10.89,10.89,0,0,1,14.51,0,11.15,11.15,0,0,1,0,14.36A9.46,9.46,0,0,1,600.16,429.06Zm-7.5,88.35v-75h15v75Z"/><path class="cls-1" d="M663.46,518.38q-13.35,0-20.32-6.75t-7-20.77v-35.4h-14.7v-13h14.7V420.06h15v22.35h25.28v13H651.16v33.37q0,8.85,3.68,12.3t10.87,3.45a57.4,57.4,0,0,0,6.19-.3q2.73-.3,5.66-.75v13.13a58.73,58.73,0,0,1-6.75,1.23A56.12,56.12,0,0,1,663.46,518.38Z"/><path class="cls-1" d="M725,519.21a35.71,35.71,0,0,1-18.94-5,33.86,33.86,0,0,1-12.68-13.8,48.63,48.63,0,0,1,0-41,34.14,34.14,0,0,1,12.68-13.88,35.54,35.54,0,0,1,18.94-5h1.65A31.07,31.07,0,0,1,744,445.44a32.18,32.18,0,0,1,11.67,13.95q4.2,9.12,4.2,21.94v4.58H704.41q1.35,9.22,6.94,14.51t14.59,5.29h1.5a25,25,0,0,0,10.35-2.22,24.36,24.36,0,0,0,8.32-6l9.23,9.75a36.91,36.91,0,0,1-12.57,8.7,40.06,40.06,0,0,1-16.08,3.23Zm-.45-65.1a18.31,18.31,0,0,0-13.39,5.28q-5.37,5.3-6.79,14.44h40.35a24.29,24.29,0,0,0-5.44-14q-4.76-5.7-13.23-5.7Z"/></g><g id="Layer_7" data-name="Layer 7"><path class="cls-1" d="M442.77,103.36a130.39,130.39,0,0,0-69.63,20.82c-18.59,12-32.91,27.91-42,46.6a10.38,10.38,0,1,0,11.7,5.53l-.12-.22c11-19,24.81-33.68,41.08-43.58a105.31,105.31,0,0,1,34.34-13.26l.09,1.93a10.39,10.39,0,0,0,3.47,20.18,9.89,9.89,0,0,0,2.25-.26L434.24,157l-.08,7.88a10.38,10.38,0,0,0-7.93,12.5l-35.55,17a10.4,10.4,0,0,0-4.83-3.45,10.55,10.55,0,0,0-3.38-.56A10.41,10.41,0,0,0,377,209.6l-12.15,34.21-5.57,18.78a10.53,10.53,0,0,0-2.24-.25,10.32,10.32,0,0,0-6.26,2.12L328,251.27a10.23,10.23,0,0,0,.1-4.23l15.48-23.48A10.4,10.4,0,1,0,333,209.82a10.68,10.68,0,0,0-.53,2.69l-4.7,3.79-12.09-19A10.39,10.39,0,0,0,307,181.56h-.2a10.45,10.45,0,0,0-10.4,10.21,10.36,10.36,0,0,0,6.42,9.81l6.4,41.6a10.77,10.77,0,0,0-1.2,2.37,10.42,10.42,0,0,0,6.48,13.22,8.29,8.29,0,0,0,.85.25l18.85,24s13.84,13.6,24.2,20.76a10.41,10.41,0,0,0,19.78-6.39c2.77-4.29,7.21-10.85,10.39-15.5,0,0,6.6-19.46,10.26-33.32,4.05,11.43,8.43,24.24,9.54,29.09a10.39,10.39,0,0,0-1.09,20,10.5,10.5,0,0,0,1.44.37l-2.84,31.63a10.4,10.4,0,0,0-4.6,19.36l0,.1.52.16a10.47,10.47,0,0,0,1.37.59,10.7,10.7,0,0,0,2.36.51,142.8,142.8,0,0,0,37.27,5.22,126.09,126.09,0,1,0,0-252.18Zm-13.52,34.7a10.56,10.56,0,0,0,2.27-3.74A10.41,10.41,0,0,0,425,121.1q-.36-.12-.72-.21l-.12-2.72a127.61,127.61,0,0,1,18.57-1.34c3.62,0,7.19.18,10.72.52l.12,46-9.33,5a10.32,10.32,0,0,0-3.85-2.83l-.1-9.5-.49-1.57Zm-60,104.3,0,.09ZM311.58,201.2l14.82,23,7.42-5.92a10.39,10.39,0,0,0,3.79,3.89l-12.72,19.08a10.24,10.24,0,0,0-3.65-2.18,10.51,10.51,0,0,0-3.38-.56,10.29,10.29,0,0,0-4.47,1l-5.82-37.2A10.15,10.15,0,0,0,311.58,201.2Zm86.82,22.24a10.4,10.4,0,0,0-4.6,19.74c-2.13,8.69-6.49,22.46-10.95,35-1.22,1.79-5.52,8.09-8.9,13.23a10.4,10.4,0,0,0-2.47-1.24,10.25,10.25,0,0,0-3.38-.57,10.4,10.4,0,0,0-9.69,6.69,230.79,230.79,0,0,1-19.62-17.35l-16.17-20.75a10.54,10.54,0,0,0,2.29-1.62l22.22,12.89a10.41,10.41,0,0,0,19.72,6.67,10.42,10.42,0,0,0-2.15-10.38l.07-.27,5.84-19.68,12.3-34.64a10.35,10.35,0,0,0,6-2.21l32.27,16.13a10.4,10.4,0,0,0,6.94,11.28,10.41,10.41,0,0,0,12.72-14.43,10.33,10.33,0,0,0-6-5.27,10.36,10.36,0,0,0-11.07,2.88l-31.36-15.68a10.41,10.41,0,0,0,.45-3.79L429,182.35a10.27,10.27,0,0,0,4,2.55,10.41,10.41,0,0,0,13.22-6.48,10.31,10.31,0,0,0,.46-4.76l6.95-3.41.31,118.48-46.48-49.79a9.93,9.93,0,0,0,.78-1.72A10.39,10.39,0,0,0,401.77,224,10.49,10.49,0,0,0,398.4,223.44Zm13.49,107.61,3-33.15c0-.11,0-.21,0-.32v-.35a10.38,10.38,0,0,0-.26-19.09v-.24a4.23,4.23,0,0,0-.05-.5c-.88-5-6.56-21.37-10.92-33.56l47.4,50.77L412.8,331.67C412.51,331.45,412.2,331.24,411.89,331.05Zm30.88,11a160.1,160.1,0,0,1-25.85-1.73,10.43,10.43,0,0,0-.53-3.62L454,300.32l.1,41.18A111.18,111.18,0,0,1,442.77,342.07Zm16.85-224a111.49,111.49,0,0,1,30.44,9.16c-2.87,17.3-14.25,25.72-14.79,26.11A3.09,3.09,0,0,0,474,156a104.62,104.62,0,0,1-.36,10.91,41,41,0,0,0-.1,5.65c-7.1-2-12.88-5-13.79-12.33Zm.14,54.46c5.07,4.35,12.08,6,16.7,7.05l4.56,1.08.33.13,21.92,11a68.86,68.86,0,0,0-11.47,22.69A294.79,294.79,0,0,1,481.5,243a3.62,3.62,0,0,0-.35,1,73.74,73.74,0,0,1-5.93,16.65,22.33,22.33,0,0,1-3.87,5.47,9.28,9.28,0,0,1-1.66,1.35c-3.7,2.24-7.12,9.5-9.64,16.28Zm58.82,50.67-.06,1.58c-.4,5.85-2.54,21.16-14,21.41-10,.21-14.72-1.48-16.67-2.57,1.8-4.32,6-14.73,9.82-27.42A64.9,64.9,0,0,1,507,197,244.37,244.37,0,0,0,518.58,223.23Zm-5.88-28.41a35.21,35.21,0,0,1,16.43,8.79c4,4,10.6,17.07,13.54,30.44-2.11-1.25-4.23-2.26-6.23-3.2-5-2.37-9.38-4.41-12-9.6a1.74,1.74,0,0,0-.1-.19A242.85,242.85,0,0,1,512.7,194.82Zm-29,139.55a112.32,112.32,0,0,1-23.46,6.35l-.11-39.43c5.85,3.42,15.82,9.5,18.78,12.39C483.52,318.23,484,328.55,483.66,334.37Zm16.08-57.12c-2.16,12.26-1,37.41-.27,49.47q-4.67,2.73-9.62,5c0-6.51-.91-16.77-6.7-22.43-3.87-3.79-15.63-10.79-20.59-13.67,2.93-10.17,7.45-21.31,10.31-23,7-4.23,11.26-16.33,13.15-23,3.37,1.55,9.08,3,18.63,2.76a17.38,17.38,0,0,0,6.1-1.2c-4.52,9.12-10.07,21-11,26A.36.36,0,0,0,499.74,277.25Zm6.16,45.42-.34-25.21.26-19.41c1-4.86,7.52-18.47,12.4-28.14.94,9.56,3.38,21.61,7.73,30.77a83.21,83.21,0,0,0,8.71,13.81A113.78,113.78,0,0,1,505.9,322.67Zm32.37-33.6a71.69,71.69,0,0,1-6.79-11c-6.16-13-8.45-34.19-7.35-40.72a2.58,2.58,0,0,0,0-.39l.24-6a41.5,41.5,0,0,0,9.42,5.49c4,1.88,7.74,3.64,10.9,7,2.77,2.93,4.44,10.46,5.93,18.38A112.44,112.44,0,0,1,538.27,289.07ZM549.89,240c-1.9-16-10.14-34.52-16.46-40.75-9-8.92-20.48-10.86-24.1-11.26l-.25-.16L484,175.26c-.1,0-.2-.09-.3-.12l-3.84-1.44a24.82,24.82,0,0,1-.08-6.35c.35-4.67.4-8.14.4-10a48.56,48.56,0,0,0,15.64-27.22,112.52,112.52,0,0,1,58,118.1A25.31,25.31,0,0,0,549.89,240Z"/></g></svg>