<svg xmlns="http://www.w3.org/2000/svg" viewBox="0 0 867.16 658.37"><g id="Layer_10" data-name="Layer 10"><path d="M105.62,519.59v-105h18.75L161.12,479l36.52-64.42h18.75v105h-15.3v-83.1l-32.85,57.9H153.77l-32.85-57.53v82.73Z"/><path d="M244.07,552.89a33.57,33.57,0,0,1-6.08-.53v-13.5a27.72,27.72,0,0,0,4.2.38q7.88,0,12.83-4.46t8.7-13.09q-9.23-18.53-17.33-38t-15.45-39.15h17.4q4.8,15.07,10.39,30.11t11.89,29.74l20.47-59.85h16.35l-29.32,77.32q-5.62,14.85-13.35,22.92T244.07,552.89Z"/><path d="M348.39,521.39a37.89,37.89,0,0,1-19.84-5.06,34.26,34.26,0,0,1-13-14,47.42,47.42,0,0,1,0-40.62,34.28,34.28,0,0,1,13-13.91,37.89,37.89,0,0,1,19.84-5.06H350q11.47,0,19.88,5.06a34.32,34.32,0,0,1,13,13.91,47.32,47.32,0,0,1,0,40.62,34.3,34.3,0,0,1-13,14q-8.4,5.05-19.88,5.06Zm.08-13.95H350q10.27,0,16.12-6.9t5.85-18.45q0-11.62-5.85-18.49T350,456.74h-1.5q-10.2,0-16.09,6.86t-5.89,18.49q0,11.55,5.89,18.45T348.47,507.44Z"/><path d="M446.64,521.39q-14.77,0-25.65-5.29a48.31,48.31,0,0,1-18.15-15.26l11.55-10.5a41.29,41.29,0,0,0,14.36,12.37,39.43,39.43,0,0,0,17.81,4h1.88q11.78,0,17.77-4.05a12.84,12.84,0,0,0,6-11.25q0-5.55-3.18-8.63a20.85,20.85,0,0,0-7.69-4.65,65.66,65.66,0,0,0-8.55-2.4l-17-3.6a79.19,79.19,0,0,1-9.41-2.62,40,40,0,0,1-9.64-4.84A23.47,23.47,0,0,1,406.29,444a27.89,27.89,0,0,1,4.91-16.39A32.15,32.15,0,0,1,425,416.69a51.89,51.89,0,0,1,20.92-3.9h1.88q25.2,0,38.77,19.5l-11.4,9.45q-6.15-8.1-13-11.18a35.36,35.36,0,0,0-14.7-3.07h-1.88q-10.28,0-16.65,4.09t-6.37,11.13a10.52,10.52,0,0,0,2.47,7.32,16.18,16.18,0,0,0,6.64,4.23,70.65,70.65,0,0,0,9,2.55l17,3.6q3.53.75,8.67,2.33a43,43,0,0,1,10.2,4.76,26.79,26.79,0,0,1,8.47,8.66q3.42,5.47,3.41,14a28.13,28.13,0,0,1-4.95,16.72,31.41,31.41,0,0,1-13.95,10.73,54.74,54.74,0,0,1-21.15,3.75Z"/><path d="M529.29,521.39q-13,0-19.8-8.78t-6.83-24.67V444.59h15v41.55q0,21.3,15.45,21.3h1.5a19,19,0,0,0,13-4.73,28.67,28.67,0,0,0,8-11.92v-46.2h15v75h-15V507.06a31.59,31.59,0,0,1-10.31,10.5,26.73,26.73,0,0,1-14.36,3.83Z"/><path d="M600.16,431.24a9.48,9.48,0,0,1-7.23-2.81,11,11,0,0,1,0-14.37,10.89,10.89,0,0,1,14.51,0,11.16,11.16,0,0,1,0,14.37A9.49,9.49,0,0,1,600.16,431.24Zm-7.5,88.35v-75h15v75Z"/><path d="M663.46,520.56q-13.35,0-20.32-6.75t-7-20.77v-35.4h-14.7V444.59h14.7V422.24h15v22.35h25.28v13.05H651.16V491q0,8.85,3.68,12.3t10.87,3.45a57.4,57.4,0,0,0,6.19-.3q2.73-.3,5.66-.75v13.13a60.85,60.85,0,0,1-6.75,1.24A57.86,57.86,0,0,1,663.46,520.56Z"/><path d="M725,521.39a35.71,35.71,0,0,1-18.94-4.95,33.86,33.86,0,0,1-12.68-13.8,48.63,48.63,0,0,1,0-41,34,34,0,0,1,12.68-13.87,35.46,35.46,0,0,1,18.94-5h1.65A31,31,0,0,1,744,447.63a32.06,32.06,0,0,1,11.67,13.95q4.2,9.1,4.2,21.93v4.58H704.41q1.35,9.23,6.94,14.51t14.59,5.29h1.5a25.17,25.17,0,0,0,10.35-2.21,24.52,24.52,0,0,0,8.32-6l9.23,9.75a36.91,36.91,0,0,1-12.57,8.7,40.06,40.06,0,0,1-16.08,3.23Zm-.45-65.1a18.28,18.28,0,0,0-13.39,5.29q-5.37,5.28-6.79,14.43h40.35a24.29,24.29,0,0,0-5.44-14q-4.76-5.7-13.23-5.7Z"/></g><g id="Layer_7" data-name="Layer 7"><path d="M444.82,109.55a130.25,130.25,0,0,0-69.62,20.82c-18.59,12-32.92,27.91-42,46.6a10.39,10.39,0,0,0-1,20,10.41,10.41,0,0,0,13.22-6.48,10.31,10.31,0,0,0-.49-7.95l-.13-.22c11-19,24.81-33.68,41.08-43.59a105.57,105.57,0,0,1,34.35-13.25l.08,1.93a10.38,10.38,0,0,0,.1,19.62,10.49,10.49,0,0,0,3.37.56,9.82,9.82,0,0,0,2.25-.26l10.32,15.92-.08,7.88a10.35,10.35,0,0,0-7.92,12.5l-35.56,17a10.4,10.4,0,0,0-4.83-3.45,10.42,10.42,0,0,0-13.23,6.48,10.4,10.4,0,0,0,4.34,12.2L366.86,250l-5.57,18.78a10.27,10.27,0,0,0-8.5,1.87l-22.73-13.19a10.4,10.4,0,0,0,.09-4.23l15.49-23.48a10.4,10.4,0,0,0,2.68-20.21A10.43,10.43,0,0,0,335.09,216a10.68,10.68,0,0,0-.53,2.69l-4.69,3.79-12.1-19a10.39,10.39,0,0,0-8.72-15.73h-.2A10.46,10.46,0,0,0,298.44,198a10.39,10.39,0,0,0,6.42,9.81l6.41,41.6a10,10,0,0,0-1.2,2.37A10.42,10.42,0,0,0,316.54,265c.28.1.57.18.85.25l18.85,24s13.84,13.61,24.21,20.77a10.4,10.4,0,0,0,6.33,6.12A10.42,10.42,0,0,0,380,309.57a10.34,10.34,0,0,0,.21-6c2.78-4.29,7.21-10.85,10.4-15.5,0,0,6.6-19.46,10.25-33.32,4.05,11.43,8.44,24.24,9.54,29.09a10.4,10.4,0,0,0-1.09,20,10.88,10.88,0,0,0,1.44.37l-2.84,31.63a10.4,10.4,0,0,0-4.6,19.36v.1l.51.16a10.47,10.47,0,0,0,1.37.59,10.7,10.7,0,0,0,2.36.51,142.92,142.92,0,0,0,37.27,5.22,126.09,126.09,0,0,0,0-252.18ZM431.3,144.24a10.39,10.39,0,0,0-4.2-17l-.73-.22-.12-2.71A127.82,127.82,0,0,1,444.82,123c3.62,0,7.19.18,10.73.52l.12,46-9.33,5a10.27,10.27,0,0,0-3.86-2.83l-.09-9.5-.5-1.57Zm-60,104.31,0,.09Zm-57.65-41.16,14.82,23,7.43-5.92a10.29,10.29,0,0,0,3.78,3.89L327,247.43a10.39,10.39,0,0,0-11.51-1.71l-5.82-37.19A10.32,10.32,0,0,0,313.63,207.39Zm86.82,22.24a10.4,10.4,0,0,0-4.6,19.74c-2.12,8.69-6.48,22.46-11,35-1.22,1.79-5.52,8.09-8.9,13.23a10.4,10.4,0,0,0-2.47-1.24,10.24,10.24,0,0,0-3.37-.57,10.4,10.4,0,0,0-9.7,6.69,232.35,232.35,0,0,1-19.62-17.35l-16.17-20.75a10.85,10.85,0,0,0,2.3-1.62l22.22,12.89a10.41,10.41,0,1,0,19.22-1.28,10.25,10.25,0,0,0-1.66-2.43l.07-.27L372.66,252,385,217.34a10.33,10.33,0,0,0,6-2.21l32.27,16.13a10.41,10.41,0,1,0,13.69-8.42,10.38,10.38,0,0,0-11.08,2.88L394.46,210a10.41,10.41,0,0,0,.45-3.79L431,188.54a10.4,10.4,0,0,0,17.26-3.93,10.45,10.45,0,0,0,.47-4.76l6.94-3.41L456,294.92l-46.48-49.79a10,10,0,0,0,.79-1.72,10.41,10.41,0,0,0-6.48-13.22A10.18,10.18,0,0,0,400.45,229.63Zm13.49,107.61,3-33.15c0-.11,0-.21,0-.32v-.35a10.38,10.38,0,0,0-.26-19.09v-.24a2.83,2.83,0,0,0-.05-.5c-.88-5-6.56-21.37-10.92-33.56l47.4,50.77-38.24,37.06C414.56,337.64,414.26,337.43,413.94,337.24Zm30.88,11A160.1,160.1,0,0,1,419,346.53a10.42,10.42,0,0,0-.52-3.62L456,306.51l.11,41.18A111.23,111.23,0,0,1,444.82,348.26Zm16.85-224a111.49,111.49,0,0,1,30.44,9.16c-2.87,17.3-14.24,25.72-14.78,26.11a3,3,0,0,0-1.29,2.61s.14,4.21-.37,10.91a42.59,42.59,0,0,0-.1,5.65c-7.1-2-12.88-5-13.79-12.33Zm.14,54.46c5.07,4.35,12.09,6,16.7,7l4.56,1.09.34.12,21.91,11a68.72,68.72,0,0,0-11.46,22.68,296.1,296.1,0,0,1-10.31,28.5,4.11,4.11,0,0,0-.35.94,72.65,72.65,0,0,1-5.93,16.66,22.31,22.31,0,0,1-3.86,5.47,9.64,9.64,0,0,1-1.66,1.35c-3.7,2.24-7.13,9.5-9.65,16.28Zm58.82,50.67-.06,1.58c-.4,5.85-2.54,21.16-14,21.4-10,.22-14.71-1.47-16.66-2.56,1.79-4.32,6-14.73,9.81-27.42A64.62,64.62,0,0,1,509,203.21,243.93,243.93,0,0,0,520.63,229.42ZM514.76,201a35.13,35.13,0,0,1,16.42,8.79c4.05,4,10.6,17.07,13.54,30.44a69.76,69.76,0,0,0-6.23-3.2c-5-2.37-9.38-4.41-12-9.6l-.09-.19A240.86,240.86,0,0,1,514.76,201ZM485.71,340.55a111.73,111.73,0,0,1-23.46,6.36l-.1-39.43C468,310.9,478,317,480.92,319.87,485.57,324.42,486,334.74,485.71,340.55Zm16.08-57.11c-2.16,12.26-1,37.4-.27,49.47q-4.66,2.73-9.61,5c0-6.51-.92-16.77-6.7-22.43-3.87-3.79-15.64-10.79-20.59-13.67,2.92-10.17,7.45-21.31,10.3-23,7-4.23,11.26-16.33,13.16-23,3.37,1.55,9.07,3,18.62,2.76a17.38,17.38,0,0,0,6.1-1.2c-4.52,9.12-10.07,21-11,26C501.8,283.36,501.8,283.4,501.79,283.44ZM508,328.86l-.34-25.21.26-19.42c1-4.85,7.53-18.46,12.4-28.13,1,9.56,3.39,21.61,7.73,30.77a83.87,83.87,0,0,0,8.71,13.81A113.62,113.62,0,0,1,508,328.86Zm32.37-33.6a71.69,71.69,0,0,1-6.79-11c-6.16-13-8.45-34.19-7.35-40.72a1.72,1.72,0,0,0,0-.39l.24-6a41.94,41.94,0,0,0,9.42,5.49c4,1.87,7.75,3.64,10.9,7,2.77,2.93,4.44,10.46,5.93,18.38A112.44,112.44,0,0,1,540.32,295.26ZM552,246.19c-1.9-16-10.15-34.52-16.47-40.75-9.05-8.92-20.48-10.86-24.09-11.26-.09-.05-.17-.12-.26-.16L486,181.45c-.1,0-.19-.09-.29-.12l-3.85-1.44a24.82,24.82,0,0,1-.08-6.35c.35-4.67.41-8.14.4-10a48.61,48.61,0,0,0,15.65-27.22,112.62,112.62,0,0,1,58,118.1A25.51,25.51,0,0,0,552,246.19Z"/></g></svg>