<svg xmlns="http://www.w3.org/2000/svg" viewBox="0 0 1137.27 397.84"><g id="Layer_10" data-name="Layer 10"><path d="M378,237.31v-105h18.75l36.75,64.43L470,132.31h18.75v105h-15.3v-83.1l-32.85,57.9H426.14l-32.85-57.52v82.72Z"/><path d="M516.43,270.61a34.4,34.4,0,0,1-6.07-.52v-13.5a28.93,28.93,0,0,0,4.2.37q7.88,0,12.83-4.46t8.7-13.09q-9.24-18.53-17.33-37.95t-15.45-39.15h17.4q4.8,15.08,10.39,30.11T543,222.16l20.47-59.85h16.35l-29.32,77.33q-5.62,14.85-13.35,22.91T516.43,270.61Z"/><path d="M620.76,239.11a37.89,37.89,0,0,1-19.84-5.06,34.26,34.26,0,0,1-13-14,47.3,47.3,0,0,1,0-40.61,34.3,34.3,0,0,1,13-13.92,37.89,37.89,0,0,1,19.84-5.06h1.65q11.48,0,19.87,5.06a34.37,34.37,0,0,1,13,13.92,47.39,47.39,0,0,1,0,40.61,34.32,34.32,0,0,1-13,14q-8.4,5.05-19.87,5.06Zm.07-14h1.5q10.27,0,16.13-6.9t5.85-18.45q0-11.62-5.85-18.49t-16.13-6.86h-1.5q-10.2,0-16.08,6.86t-5.89,18.49q0,11.55,5.89,18.45T620.83,225.16Z"/><path d="M719,239.11q-14.78,0-25.65-5.29a48.31,48.31,0,0,1-18.15-15.26l11.55-10.5a41.24,41.24,0,0,0,14.36,12.38,39.4,39.4,0,0,0,17.81,4h1.88q11.78,0,17.77-4a12.84,12.84,0,0,0,6-11.25q0-5.55-3.19-8.62a20.73,20.73,0,0,0-7.68-4.65,65.66,65.66,0,0,0-8.55-2.4l-17-3.6a78.83,78.83,0,0,1-9.41-2.63,39.79,39.79,0,0,1-9.64-4.84,23.44,23.44,0,0,1-10.42-20.66,27.82,27.82,0,0,1,4.91-16.39,32.1,32.1,0,0,1,13.84-10.91,51.89,51.89,0,0,1,20.92-3.9h1.88q25.2,0,38.77,19.5l-11.4,9.45q-6.15-8.1-13-11.17a35.37,35.37,0,0,0-14.7-3.08H718q-10.28,0-16.65,4.09T695,160.44a10.49,10.49,0,0,0,2.47,7.31,16.13,16.13,0,0,0,6.64,4.24,70.19,70.19,0,0,0,9,2.55l17,3.6q3.52.75,8.66,2.32a42.6,42.6,0,0,1,10.2,4.76,26.85,26.85,0,0,1,8.48,8.67q3.4,5.48,3.41,14A28.16,28.16,0,0,1,756,224.64a31.39,31.39,0,0,1-14,10.72,54.74,54.74,0,0,1-21.15,3.75Z"/><path d="M801.66,239.11q-13,0-19.8-8.77T775,205.66V162.31h15v41.55q0,21.3,15.45,21.3H807a19,19,0,0,0,13-4.72,28.63,28.63,0,0,0,8-11.93v-46.2h15v75H828V224.79a31.69,31.69,0,0,1-10.31,10.5,26.75,26.75,0,0,1-14.36,3.82Z"/><path d="M872.53,149a9.52,9.52,0,0,1-7.24-2.81,11,11,0,0,1,0-14.36,10.87,10.87,0,0,1,14.52,0,11.15,11.15,0,0,1,0,14.36A9.49,9.49,0,0,1,872.53,149ZM865,237.31v-75h15v75Z"/><path d="M935.83,238.29q-13.35,0-20.33-6.75t-7-20.78v-35.4h-14.7V162.31h14.7V140h15v22.35H948.8v13.05H923.53v33.38q0,8.85,3.67,12.3t10.88,3.45a57.4,57.4,0,0,0,6.19-.3q2.73-.3,5.66-.75v13.12a60.85,60.85,0,0,1-6.75,1.24A57.9,57.9,0,0,1,935.83,238.29Z"/><path d="M997.4,239.11a35.67,35.67,0,0,1-18.93-5,33.86,33.86,0,0,1-12.68-13.8,48.53,48.53,0,0,1,0-41,34,34,0,0,1,12.68-13.87,35.43,35.43,0,0,1,18.93-5h1.65a31,31,0,0,1,17.29,4.84,32,32,0,0,1,11.66,14q4.2,9.1,4.2,21.94v4.57H976.78q1.35,9.23,6.94,14.51t14.58,5.29h1.5a25.17,25.17,0,0,0,10.35-2.21,24.54,24.54,0,0,0,8.33-6l9.22,9.75a36.87,36.87,0,0,1-12.56,8.7,40.28,40.28,0,0,1-16.09,3.22ZM997,174a18.26,18.26,0,0,0-13.38,5.29q-5.37,5.28-6.79,14.44h40.35a24.32,24.32,0,0,0-5.44-14q-4.76-5.7-13.24-5.7Z"/></g><g id="Layer_7" data-name="Layer 7"><path d="M192,104.19a96.25,96.25,0,0,0-51.45,15.39,85.67,85.67,0,0,0-31,34.43,7.68,7.68,0,0,0-.76,14.75,7.88,7.88,0,0,0,2.49.41,7.69,7.69,0,0,0,7.28-5.2,7.58,7.58,0,0,0-.37-5.87,1.4,1.4,0,0,0-.09-.17c8.16-14.07,18.34-24.88,30.36-32.2a77.65,77.65,0,0,1,25.37-9.8l.07,1.43a7.66,7.66,0,0,0,.07,14.49,7.53,7.53,0,0,0,2.49.42,7.7,7.7,0,0,0,1.67-.19l7.62,11.76-.06,5.83a7.67,7.67,0,0,0-5.86,9.23l-26.27,12.54a7.66,7.66,0,0,0-3.57-2.55,7.88,7.88,0,0,0-2.49-.41,7.69,7.69,0,0,0-7.28,5.2,7.69,7.69,0,0,0,3.2,9l-9,25.28-4.12,13.88a7.52,7.52,0,0,0-6.28,1.38l-16.8-9.75a7.63,7.63,0,0,0,.07-3.12L118.66,193a7.68,7.68,0,0,0,2-14.93,7.78,7.78,0,0,0-2.49-.41,7.7,7.7,0,0,0-7.28,5.2,8.17,8.17,0,0,0-.39,2l-3.47,2.8-8.94-14A7.68,7.68,0,0,0,91.63,162h-.15a7.74,7.74,0,0,0-7.69,7.55,7.7,7.7,0,0,0,4.74,7.25l4.74,30.73a7.79,7.79,0,0,0-.89,1.75A7.69,7.69,0,0,0,97.16,219a5,5,0,0,0,.63.19l13.93,17.7S122,247,129.61,252.25a7.65,7.65,0,0,0,4.68,4.52,7.53,7.53,0,0,0,2.49.42,7.69,7.69,0,0,0,7.44-9.66c2.05-3.17,5.32-8,7.68-11.45,0,0,4.88-14.38,7.58-24.62,3,8.44,6.23,17.91,7.05,21.49a7.68,7.68,0,0,0-.81,14.76,8,8,0,0,0,1.07.28l-2.11,23.37a7.68,7.68,0,0,0-3.39,14.31v.07l.38.12a8.28,8.28,0,0,0,1,.43,7.41,7.41,0,0,0,1.74.38A105.77,105.77,0,0,0,192,290.53a93.17,93.17,0,0,0,0-186.34Zm-10,25.64a7.67,7.67,0,0,0-3.11-12.53l-.53-.16-.09-2a94.38,94.38,0,0,1,13.72-1c2.67,0,5.32.13,7.93.38l.08,34-6.89,3.67a7.57,7.57,0,0,0-2.85-2.08l-.07-7-.36-1.15ZM137.61,206.9l0,.06ZM95,176.48l10.94,17,5.49-4.37a7.63,7.63,0,0,0,2.8,2.87l-9.4,14.09a7.74,7.74,0,0,0-2.7-1.6,7.61,7.61,0,0,0-2.49-.42,7.69,7.69,0,0,0-3.31.76l-4.3-27.48A7.55,7.55,0,0,0,95,176.48Zm64.14,16.44A7.7,7.7,0,0,0,152.25,204a7.58,7.58,0,0,0,3.52,3.51c-1.57,6.42-4.8,16.6-8.09,25.86-.9,1.32-4.08,6-6.58,9.77a7.82,7.82,0,0,0-1.83-.91,7.53,7.53,0,0,0-2.49-.42,7.68,7.68,0,0,0-7.16,4.94,171.11,171.11,0,0,1-14.5-12.82l-12-15.33a7.8,7.8,0,0,0,1.7-1.2l16.42,9.52a7.7,7.7,0,0,0,4.8,9.72,7.53,7.53,0,0,0,2.49.42A7.69,7.69,0,0,0,135.49,226a8,8,0,0,0-1.22-1.79l0-.21,4.31-14.54,9.09-25.59a7.65,7.65,0,0,0,4.42-1.64L176,194.12a7.7,7.7,0,0,0,5.13,8.34,7.83,7.83,0,0,0,2.49.41,7.7,7.7,0,0,0,7.28-5.2,7.7,7.7,0,0,0-7.28-10.19,7.67,7.67,0,0,0-5.69,2.55l-23.17-11.59a7.64,7.64,0,0,0,.33-2.8l26.68-13.08a7.7,7.7,0,0,0,5.47,2.3,7.68,7.68,0,0,0,7.62-8.72l5.14-2.52.22,87.54-34.34-36.79a7,7,0,0,0,.58-1.27,7.7,7.7,0,0,0-4.78-9.77A7.89,7.89,0,0,0,159.16,192.92Zm10,79.51,2.2-24.49a1.93,1.93,0,0,0,0-.24v-.26a7.67,7.67,0,0,0-.19-14.11v-.17a2.31,2.31,0,0,0,0-.37c-.66-3.67-4.85-15.79-8.07-24.8l35,37.52-28.26,27.38A8.09,8.09,0,0,0,169.13,272.43ZM192,280.58a118.77,118.77,0,0,1-19.1-1.28,7.68,7.68,0,0,0-.39-2.68l27.77-26.9.07,30.44C197.56,280.43,194.77,280.58,192,280.58Zm12.45-165.5a82.45,82.45,0,0,1,22.49,6.77c-2.11,12.78-10.52,19-10.92,19.29a2.26,2.26,0,0,0-.95,1.93s.1,3.11-.27,8.06a30.37,30.37,0,0,0-.08,4.18c-5.24-1.48-9.52-3.72-10.19-9.11Zm.11,40.24c3.74,3.22,8.93,4.42,12.33,5.21,1.41.32,3.37.8,3.37.8l.25.09,16.19,8.1a51,51,0,0,0-8.47,16.76,218.07,218.07,0,0,1-7.61,21.05,3,3,0,0,0-.26.7,54,54,0,0,1-4.38,12.31,16.58,16.58,0,0,1-2.86,4,7,7,0,0,1-1.22,1c-2.74,1.65-5.27,7-7.13,12ZM248,192.76l-.05,1.17c-.29,4.33-1.88,15.64-10.34,15.82-7.42.16-10.87-1.1-12.31-1.9,1.32-3.19,4.4-10.88,7.24-20.26a48.13,48.13,0,0,1,6.89-14.19A182.56,182.56,0,0,0,248,192.76Zm-4.34-21a26,26,0,0,1,12.13,6.5c3,2.95,7.84,12.61,10,22.49-1.56-.93-3.13-1.67-4.61-2.37-3.71-1.74-6.92-3.26-8.85-7.09,0-.05-.05-.09-.07-.14A176,176,0,0,1,243.63,171.77ZM222.17,274.88a82,82,0,0,1-17.34,4.69l-.08-29.12c4.32,2.52,11.69,7,13.88,9.15C222.06,263,222.4,270.59,222.17,274.88Zm11.88-42.2c-1.6,9.06-.74,27.64-.2,36.55a79.84,79.84,0,0,1-7.11,3.71c0-4.81-.67-12.39-5-16.57-2.86-2.8-11.55-8-15.21-10.1,2.16-7.52,5.5-15.75,7.61-17,5.17-3.14,8.32-12.08,9.72-17,2.49,1.15,6.71,2.19,13.77,2a12.74,12.74,0,0,0,4.5-.88c-3.34,6.74-7.44,15.5-8.12,19.2C234.06,232.62,234.05,232.65,234.05,232.68Zm4.55,33.56-.25-18.62.19-14.35c.73-3.59,5.56-13.65,9.16-20.79.7,7.06,2.5,16,5.71,22.74a61.68,61.68,0,0,0,6.44,10.2A84.1,84.1,0,0,1,238.6,266.24Zm23.92-24.83a51.84,51.84,0,0,1-5-8.13c-4.55-9.61-6.24-25.27-5.43-30.09a1.43,1.43,0,0,0,0-.29l.18-4.47a31,31,0,0,0,7,4.06c2.94,1.38,5.72,2.69,8.05,5.16,2,2.17,3.28,7.73,4.38,13.58A82.6,82.6,0,0,1,262.52,241.41Zm8.59-36.25c-1.41-11.79-7.5-25.51-12.17-30.12a31.18,31.18,0,0,0-17.8-8.32c-.07,0-.12-.08-.19-.11l-18.57-9.29a1.45,1.45,0,0,0-.22-.09l-2.84-1.07a18,18,0,0,1-.06-4.69c.26-3.44.3-6,.3-7.4A35.92,35.92,0,0,0,231.12,124,83.21,83.21,0,0,1,274,211.22,18.79,18.79,0,0,0,271.11,205.16Z"/></g></svg>