<svg xmlns="http://www.w3.org/2000/svg" viewBox="0 0 462.51 464.78"><g id="Layer_7" data-name="Layer 7"><path d="M237.87,105.71a130.28,130.28,0,0,0-69.62,20.83c-18.59,12-32.92,27.9-42,46.59a10.39,10.39,0,0,0-1,20,10.55,10.55,0,0,0,3.38.56,10.41,10.41,0,0,0,9.35-15,1.55,1.55,0,0,1-.12-.22c11-19,24.81-33.67,41.08-43.58a105.23,105.23,0,0,1,34.34-13.26l.09,1.94a10.38,10.38,0,0,0,.09,19.61,10.51,10.51,0,0,0,3.38.56,9.89,9.89,0,0,0,2.25-.26l10.31,15.92-.08,7.88a10.38,10.38,0,0,0-7.63,6.78,10.24,10.24,0,0,0-.29,5.72l-35.56,17A10.41,10.41,0,1,0,172.07,212l-12.15,34.21-5.58,18.78a10.27,10.27,0,0,0-8.5,1.87l-22.73-13.19a10.4,10.4,0,0,0,.1-4.23l15.48-23.48a10.39,10.39,0,0,0,2.68-20.21,10.41,10.41,0,0,0-13.22,6.48,10.19,10.19,0,0,0-.53,2.68l-4.7,3.79-12.1-19a10.39,10.39,0,0,0-8.72-15.73h-.2a10.47,10.47,0,0,0-10.41,10.21,10.35,10.35,0,0,0,2.91,7.42,10.56,10.56,0,0,0,3.51,2.4l6.41,41.59a10,10,0,0,0-1.2,2.37,10.42,10.42,0,0,0,6.47,13.22,8.47,8.47,0,0,0,.86.25l18.84,24s13.84,13.6,24.21,20.76a10.4,10.4,0,0,0,19.56-.36,10.26,10.26,0,0,0,.21-6c2.78-4.29,7.21-10.85,10.4-15.49,0,0,6.6-19.47,10.25-33.33,4.06,11.43,8.44,24.25,9.54,29.09a10.39,10.39,0,0,0-1.08,20,10.14,10.14,0,0,0,1.44.37L201,332a10.38,10.38,0,0,0-8.7,14.94,10.26,10.26,0,0,0,4.1,4.42v.1l.52.16a11,11,0,0,0,1.36.59,10.66,10.66,0,0,0,2.37.51,142.8,142.8,0,0,0,37.26,5.23,126.1,126.1,0,1,0,0-252.19Zm-13.52,34.7a10.39,10.39,0,0,0-4.2-17c-.24-.08-.48-.15-.73-.21l-.12-2.72a127.83,127.83,0,0,1,18.57-1.33q5.43,0,10.73.51l.12,46-9.33,5a10.27,10.27,0,0,0-3.86-2.83l-.09-9.5-.49-1.56Zm-60,104.3,0,.09Zm-57.64-41.16,14.81,23,7.43-5.91a10.41,10.41,0,0,0,3.78,3.88L120,243.6a10.36,10.36,0,0,0-7-2.74,10.26,10.26,0,0,0-4.47,1l-5.83-37.2A10.15,10.15,0,0,0,106.69,203.55Zm86.81,22.24a10.4,10.4,0,0,0-4.6,19.74c-2.12,8.69-6.48,22.46-10.94,35-1.22,1.79-5.53,8.09-8.9,13.23a10.38,10.38,0,0,0-15.54,4.88,232.49,232.49,0,0,1-19.62-17.34l-16.17-20.76a10.44,10.44,0,0,0,2.29-1.62l22.22,12.89a10.41,10.41,0,1,0,17.57-3.71l.07-.27,5.83-19.68L178,213.5a10.38,10.38,0,0,0,6-2.21l32.26,16.13a10.43,10.43,0,0,0,6.94,11.28,10.41,10.41,0,0,0,13.22-6.48A10.39,10.39,0,0,0,230,219a10.49,10.49,0,0,0-3.37-.56,10.39,10.39,0,0,0-7.7,3.44L187.51,206.2a10.42,10.42,0,0,0,.46-3.79l36.09-17.7a10.41,10.41,0,0,0,17.26-3.94,10.3,10.3,0,0,0,.47-4.76l7-3.41.3,118.48-46.48-49.79a10,10,0,0,0,.79-1.72,10.41,10.41,0,0,0-6.47-13.22A10.55,10.55,0,0,0,193.5,225.79ZM207,333.4l3-33.15c0-.1,0-.21,0-.31v-.36a10.38,10.38,0,0,0-.25-19.09v-.24a2.81,2.81,0,0,0,0-.5c-.89-5-6.57-21.36-10.92-33.56L246.15,297l-38.24,37C207.61,333.8,207.31,333.59,207,333.4Zm30.88,11A160.1,160.1,0,0,1,212,342.69a10.19,10.19,0,0,0-.52-3.62l37.57-36.4.11,41.19Q243.6,344.42,237.87,344.42Zm16.86-224a111.31,111.31,0,0,1,30.43,9.16c-2.86,17.3-14.24,25.72-14.78,26.11a3.07,3.07,0,0,0-1.29,2.61s.14,4.21-.36,10.91a41.15,41.15,0,0,0-.11,5.65c-7.09-2-12.88-5-13.78-12.33Zm.14,54.46c5.07,4.35,12.08,6,16.69,7.05,1.91.44,4.56,1.08,4.56,1.08l.34.13,21.91,11a68.69,68.69,0,0,0-11.46,22.69A295.45,295.45,0,0,1,276.6,245.3a4,4,0,0,0-.34.95,73.36,73.36,0,0,1-5.94,16.65,22.31,22.31,0,0,1-3.86,5.47,9.64,9.64,0,0,1-1.66,1.35c-3.7,2.24-7.13,9.5-9.65,16.28Zm58.81,50.67-.06,1.58c-.4,5.86-2.54,21.16-14,21.41-10,.21-14.72-1.48-16.67-2.57,1.8-4.32,6-14.73,9.81-27.42a64.62,64.62,0,0,1,9.32-19.21A246,246,0,0,0,313.68,225.58Zm-5.87-28.41A35.18,35.18,0,0,1,324.23,206c4,4,10.61,17.07,13.55,30.44-2.11-1.25-4.24-2.26-6.24-3.2-5-2.36-9.37-4.41-12-9.6,0-.06-.07-.12-.1-.19A242.85,242.85,0,0,1,307.81,197.17ZM278.76,336.72a111.71,111.71,0,0,1-23.46,6.35l-.1-39.42C261,307.06,271,313.14,274,316,278.62,320.58,279.08,330.9,278.76,336.72Zm16.08-57.12c-2.16,12.26-1,37.41-.26,49.47q-4.68,2.73-9.62,5c0-6.51-.92-16.77-6.7-22.43-3.87-3.79-15.63-10.79-20.59-13.67,2.93-10.17,7.45-21.3,10.3-23,7-4.24,11.27-16.34,13.16-23,3.37,1.55,9.08,3,18.63,2.76a17.37,17.37,0,0,0,6.09-1.2c-4.52,9.13-10.07,21-11,26A.43.43,0,0,1,294.84,279.6ZM301,325l-.33-25.21.26-19.41c1-4.86,7.52-18.47,12.4-28.14.94,9.56,3.38,21.61,7.72,30.78a84.19,84.19,0,0,0,8.71,13.8A113.46,113.46,0,0,1,301,325Zm32.38-33.6a71.22,71.22,0,0,1-6.79-11c-6.16-13-8.45-34.19-7.35-40.72,0-.13,0-.26,0-.39l.23-6.05a41.78,41.78,0,0,0,9.43,5.49c4,1.88,7.74,3.65,10.9,7,2.77,2.93,4.43,10.46,5.92,18.38A112.41,112.41,0,0,1,333.38,291.42ZM345,242.35c-1.9-15.95-10.15-34.52-16.47-40.75-9-8.92-20.47-10.86-24.09-11.26-.09-.05-.16-.11-.26-.16l-25.13-12.56-.29-.13-3.84-1.44a24.09,24.09,0,0,1-.09-6.35c.36-4.66.41-8.14.4-10a48.46,48.46,0,0,0,15.65-27.21,112.6,112.6,0,0,1,58,118.09A25.31,25.31,0,0,0,345,242.35Z"/></g></svg>